M48
;DRILL file {KiCad 4.0.6} date 04/07/17 00:55:43
;FORMAT={3:3/ absolute / metric / suppress trailing zeros}
FMAT,2
METRIC,LZ
T1C0.300
T2C0.400
T3C0.600
T4C0.800
T5C0.900
T6C1.000
T7C1.600
T8C3.200
%
G90
G05
M71
T1
X124206Y-104775
X124206Y-107315
X124206Y-109855
X124206Y-112395
X124206Y-114935
X124206Y-117475
X124206Y-120015
X124206Y-122555
X1265Y-084
X1288Y-103505
X1295Y-0898
X1321Y-07915
X13275Y-0785
X1336Y-0785
X1336Y-07915
X137Y-100155
X1377Y-08
X1387Y-108555
X1387Y-111105
X1387Y-113655
X13875Y-107305
X138809Y-078986
X13915Y-106055
X14185Y-0848
X143129Y-104775
X143129Y-107315
X143129Y-109855
X143129Y-112395
X143129Y-114935
X143129Y-117475
X143129Y-120015
X143129Y-122555
X1527Y-0726
X1547Y-0715
T2
X0993Y-085
X1114Y-107
X112Y-0701
X11405Y-06425
X11555Y-06425
X1167Y-0846
X118295Y-125095
X1184Y-1268
X119Y-082
X1202Y-0773
X1202Y-0791
X1208Y-103655
X1214Y-06855
X1217Y-08595
X12229Y-0753
X1226Y-0825
X12275Y-0686
X1234Y-0708
X1234Y-0837
X12425Y-0825
X1244Y-07585
X1249Y-08905
X125Y-0837
X12575Y-07335
X12589Y-07748
X126Y-0902
X1264Y-0973
X1265Y-0958
X12705Y-0686
X1272Y-08125
X1272Y-0888
X127275Y-0876
X1273Y-0966
X1275Y-083
X12835Y-0686
X12839Y-07938
X12945Y-07335
X1296Y-0936
X130594Y-085369
X130594Y-087206
X130604Y-083976
X1308Y-09175
X130902Y-090802
X130988Y-081509
X1324Y-07275
X132431Y-083531
X132431Y-085369
X132431Y-087206
X13265Y-0686
X13285Y-08155
X1333Y-0913
X13335Y-0958
X13335Y-0988
X13405Y-0686
X1343Y-07275
X134795Y-085365
X134795Y-087192
X134829Y-084332
X135Y-053
X135219Y-082596
X136106Y-081694
X136106Y-085369
X136106Y-087206
X13725Y-07335
X1373Y-08965
X13835Y-0686
X1387Y-0951
X139256Y-100393
X139256Y-102679
X139256Y-104076
X1393Y-081
X1393Y-0959
X13965Y-0686
X13985Y-08585
X13985Y-0867
X1409Y-0789
X14095Y-07335
X14115Y-0825
X1417Y-0856
X1418Y-0943
X1433Y-0708
X14395Y-0686
X1445Y-0526
X1453Y-06855
X1456Y-1037
X1463Y-0708
X1492Y-0944
X1492Y-0963
X15095Y-0974
X15115Y-06425
X15265Y-06425
X15355Y-0936
X1567Y-0948
T3
X1126Y-06825
X1138Y-0843
X1145Y-0819
X1148Y-0696
X116Y-0748
X1167Y-1075
X1169Y-0683
X1193Y-1049
X1212Y-0736
X1226Y-1016
X1248Y-0994
X127Y-0985
X13015Y-0962
X13015Y-0998
X1329Y-0765
X1439Y-0748
X1439Y-0803
X149Y-0748
X1498Y-0683
X1519Y-0696
X154Y-0683
X1557Y-0738
T4
X14692Y-0813
X14692Y-08892
X14946Y-0813
X14946Y-08892
X152Y-0813
X152Y-08892
X15454Y-0813
X15454Y-08892
T5
X11811Y-06604
X11938Y-0635
X12065Y-06604
X12192Y-0635
X12319Y-06604
X12446Y-0635
X12573Y-06604
X127Y-0635
X1397Y-06604
X14097Y-0635
X14224Y-06604
X14351Y-0635
X14478Y-06604
X14605Y-0635
X14732Y-06604
X14859Y-0635
T6
X1016Y-08128
X1016Y-08382
X1016Y-08636
X1016Y-0889
X1016Y-09144
X1016Y-09398
X1016Y-09652
X1016Y-09906
X1016Y-1016
X1016Y-10414
X1016Y-10668
X1016Y-10922
X1016Y-11176
X1016Y-1143
X1016Y-11684
X1016Y-11938
X1016Y-12192
X1016Y-12446
X1016Y-127
X10414Y-08128
X10414Y-08382
X10414Y-08636
X10414Y-0889
X10414Y-09144
X10414Y-09398
X10414Y-09652
X10414Y-09906
X10414Y-1016
X10414Y-10414
X10414Y-10668
X10414Y-10922
X10414Y-11176
X10414Y-1143
X10414Y-11684
X10414Y-11938
X10414Y-12192
X10414Y-12446
X10414Y-127
X107Y-0935
X109Y-0915
X111Y-0895
X113Y-0875
X11623Y-053772
X11877Y-052248
X12634Y-053772
X12888Y-052248
X13208Y-102235
X13208Y-104775
X13208Y-107315
X13208Y-109855
X13208Y-112395
X13208Y-114935
X13208Y-117475
X13208Y-120015
X13208Y-122555
X13208Y-125095
X13462Y-102235
X13462Y-104775
X13462Y-107315
X13462Y-109855
X13462Y-112395
X13462Y-114935
X13462Y-117475
X13462Y-120015
X13462Y-122555
X13462Y-125095
X13782Y-053772
X14036Y-052248
X14793Y-053772
X15047Y-052248
X16256Y-08128
X16256Y-08382
X16256Y-08636
X16256Y-0889
X16256Y-09144
X16256Y-09398
X16256Y-09652
X16256Y-09906
X16256Y-1016
X16256Y-10414
X16256Y-10668
X16256Y-10922
X16256Y-11176
X16256Y-1143
X16256Y-11684
X16256Y-11938
X16256Y-12192
X16256Y-12446
X16256Y-127
X1651Y-08128
X1651Y-08382
X1651Y-08636
X1651Y-0889
X1651Y-09144
X1651Y-09398
X1651Y-09652
X1651Y-09906
X1651Y-1016
X1651Y-10414
X1651Y-10668
X1651Y-10922
X1651Y-11176
X1651Y-1143
X1651Y-11684
X1651Y-11938
X1651Y-12192
X1651Y-12446
X1651Y-127
T7
X114681Y-060198
X130429Y-060198
X136271Y-060198
X152019Y-060198
T8
X11684Y-05715
X12827Y-05715
X13843Y-05715
X14986Y-05715
T0
M30
