M48
;DRILL file {KiCad 4.0.6} date 04/07/17 01:25:29
;FORMAT={-:-/ absolute / metric / decimal}
FMAT,2
METRIC,TZ
T1C0.300
T2C0.400
T3C0.600
T4C0.800
T5C0.900
T6C1.000
T7C1.600
T8C3.200
%
G90
G05
M71
T1
X124.206Y-104.775
X124.206Y-107.315
X124.206Y-109.855
X124.206Y-112.395
X124.206Y-114.935
X124.206Y-117.475
X124.206Y-120.015
X124.206Y-122.555
X126.5Y-84.
X128.8Y-103.505
X129.5Y-89.8
X132.1Y-79.15
X132.75Y-78.5
X133.6Y-78.5
X133.6Y-79.15
X137.Y-100.155
X137.7Y-80.
X138.7Y-108.555
X138.7Y-111.105
X138.7Y-113.655
X138.75Y-107.305
X138.809Y-78.986
X139.15Y-106.055
X141.85Y-84.8
X143.129Y-104.775
X143.129Y-107.315
X143.129Y-109.855
X143.129Y-112.395
X143.129Y-114.935
X143.129Y-117.475
X143.129Y-120.015
X143.129Y-122.555
X152.7Y-72.6
X154.7Y-71.5
T2
X99.3Y-85.
X111.4Y-107.
X112.Y-70.1
X114.05Y-64.25
X115.55Y-64.25
X116.7Y-84.6
X118.295Y-125.095
X118.4Y-126.8
X119.Y-82.
X120.2Y-77.3
X120.2Y-79.1
X120.8Y-103.655
X121.4Y-68.55
X121.7Y-85.95
X122.29Y-75.3
X122.6Y-82.5
X122.75Y-68.6
X123.4Y-70.8
X123.4Y-83.7
X124.25Y-82.5
X124.4Y-75.85
X124.9Y-89.05
X125.Y-83.7
X125.75Y-73.35
X125.89Y-77.48
X126.Y-90.2
X126.4Y-97.3
X126.5Y-95.8
X127.05Y-68.6
X127.2Y-81.25
X127.2Y-88.8
X127.275Y-87.6
X127.3Y-96.6
X127.5Y-83.
X128.35Y-68.6
X128.39Y-79.38
X129.45Y-73.35
X129.6Y-93.6
X130.594Y-85.369
X130.594Y-87.206
X130.604Y-83.976
X130.8Y-91.75
X130.902Y-90.802
X130.988Y-81.509
X132.4Y-72.75
X132.431Y-83.531
X132.431Y-85.369
X132.431Y-87.206
X132.65Y-68.6
X132.85Y-81.55
X133.3Y-91.3
X133.35Y-95.8
X133.35Y-98.8
X134.05Y-68.6
X134.3Y-72.75
X134.795Y-85.365
X134.795Y-87.192
X134.829Y-84.332
X135.Y-53.
X135.219Y-82.596
X136.106Y-81.694
X136.106Y-85.369
X136.106Y-87.206
X137.25Y-73.35
X137.3Y-89.65
X138.35Y-68.6
X138.7Y-95.1
X139.255Y-100.393
X139.255Y-102.679
X139.255Y-104.076
X139.3Y-81.
X139.3Y-95.9
X139.65Y-68.6
X139.85Y-85.85
X139.85Y-86.7
X140.9Y-78.9
X140.95Y-73.35
X141.15Y-82.5
X141.7Y-85.6
X141.8Y-94.3
X143.3Y-70.8
X143.95Y-68.6
X144.5Y-52.6
X145.3Y-68.55
X145.6Y-103.7
X146.3Y-70.8
X149.2Y-94.4
X149.2Y-96.3
X150.95Y-97.4
X151.15Y-64.25
X152.65Y-64.25
X153.55Y-93.6
X156.7Y-94.8
T3
X112.6Y-68.25
X113.8Y-84.3
X114.5Y-81.9
X114.8Y-69.6
X116.Y-74.8
X116.7Y-107.5
X116.9Y-68.3
X119.3Y-104.9
X121.2Y-73.6
X122.6Y-101.6
X124.8Y-99.4
X127.Y-98.5
X130.15Y-96.2
X130.15Y-99.8
X132.9Y-76.5
X143.9Y-74.8
X143.9Y-80.3
X149.Y-74.8
X149.8Y-68.3
X151.9Y-69.6
X154.Y-68.3
X155.7Y-73.8
T4
X146.92Y-81.3
X146.92Y-88.92
X149.46Y-81.3
X149.46Y-88.92
X152.Y-81.3
X152.Y-88.92
X154.54Y-81.3
X154.54Y-88.92
T5
X118.11Y-66.04
X119.38Y-63.5
X120.65Y-66.04
X121.92Y-63.5
X123.19Y-66.04
X124.46Y-63.5
X125.73Y-66.04
X127.Y-63.5
X139.7Y-66.04
X140.97Y-63.5
X142.24Y-66.04
X143.51Y-63.5
X144.78Y-66.04
X146.05Y-63.5
X147.32Y-66.04
X148.59Y-63.5
T6
X101.6Y-81.28
X101.6Y-83.82
X101.6Y-86.36
X101.6Y-88.9
X101.6Y-91.44
X101.6Y-93.98
X101.6Y-96.52
X101.6Y-99.06
X101.6Y-101.6
X101.6Y-104.14
X101.6Y-106.68
X101.6Y-109.22
X101.6Y-111.76
X101.6Y-114.3
X101.6Y-116.84
X101.6Y-119.38
X101.6Y-121.92
X101.6Y-124.46
X101.6Y-127.
X104.14Y-81.28
X104.14Y-83.82
X104.14Y-86.36
X104.14Y-88.9
X104.14Y-91.44
X104.14Y-93.98
X104.14Y-96.52
X104.14Y-99.06
X104.14Y-101.6
X104.14Y-104.14
X104.14Y-106.68
X104.14Y-109.22
X104.14Y-111.76
X104.14Y-114.3
X104.14Y-116.84
X104.14Y-119.38
X104.14Y-121.92
X104.14Y-124.46
X104.14Y-127.
X107.Y-93.5
X109.Y-91.5
X111.Y-89.5
X113.Y-87.5
X116.23Y-53.772
X118.77Y-52.248
X126.34Y-53.772
X128.88Y-52.248
X132.08Y-102.235
X132.08Y-104.775
X132.08Y-107.315
X132.08Y-109.855
X132.08Y-112.395
X132.08Y-114.935
X132.08Y-117.475
X132.08Y-120.015
X132.08Y-122.555
X132.08Y-125.095
X134.62Y-102.235
X134.62Y-104.775
X134.62Y-107.315
X134.62Y-109.855
X134.62Y-112.395
X134.62Y-114.935
X134.62Y-117.475
X134.62Y-120.015
X134.62Y-122.555
X134.62Y-125.095
X137.82Y-53.772
X140.36Y-52.248
X147.93Y-53.772
X150.47Y-52.248
X162.56Y-81.28
X162.56Y-83.82
X162.56Y-86.36
X162.56Y-88.9
X162.56Y-91.44
X162.56Y-93.98
X162.56Y-96.52
X162.56Y-99.06
X162.56Y-101.6
X162.56Y-104.14
X162.56Y-106.68
X162.56Y-109.22
X162.56Y-111.76
X162.56Y-114.3
X162.56Y-116.84
X162.56Y-119.38
X162.56Y-121.92
X162.56Y-124.46
X162.56Y-127.
X165.1Y-81.28
X165.1Y-83.82
X165.1Y-86.36
X165.1Y-88.9
X165.1Y-91.44
X165.1Y-93.98
X165.1Y-96.52
X165.1Y-99.06
X165.1Y-101.6
X165.1Y-104.14
X165.1Y-106.68
X165.1Y-109.22
X165.1Y-111.76
X165.1Y-114.3
X165.1Y-116.84
X165.1Y-119.38
X165.1Y-121.92
X165.1Y-124.46
X165.1Y-127.
T7
X114.681Y-60.198
X130.429Y-60.198
X136.271Y-60.198
X152.019Y-60.198
T8
X116.84Y-57.15
X128.27Y-57.15
X138.43Y-57.15
X149.86Y-57.15
T0
M30
