G04 #@! TF.FileFunction,Legend,Bot*
%FSLAX46Y46*%
G04 Gerber Fmt 4.6, Leading zero omitted, Abs format (unit mm)*
G04 Created by KiCad (PCBNEW 4.0.6) date 04/07/17 01:25:25*
%MOMM*%
%LPD*%
G01*
G04 APERTURE LIST*
%ADD10C,0.100000*%
%ADD11C,0.150000*%
%ADD12C,0.200000*%
%ADD13C,0.120000*%
G04 APERTURE END LIST*
D10*
D11*
X149700000Y-98800000D02*
X148900000Y-98800000D01*
X143500000Y-98800000D02*
X144100000Y-98800000D01*
X143500000Y-93000000D02*
X143500000Y-98800000D01*
X149700000Y-93000000D02*
X143500000Y-93000000D01*
X149700000Y-98800000D02*
X149700000Y-93000000D01*
D12*
X147842857Y-99342857D02*
X148414286Y-99342857D01*
X148414286Y-98142857D01*
X146928571Y-98542857D02*
X146928571Y-99342857D01*
X147214285Y-98085714D02*
X147500000Y-98942857D01*
X146757142Y-98942857D01*
X146414285Y-98142857D02*
X145614285Y-98142857D01*
X146128571Y-99342857D01*
X144642857Y-98142857D02*
X144871428Y-98142857D01*
X144985714Y-98200000D01*
X145042857Y-98257143D01*
X145157143Y-98428571D01*
X145214286Y-98657143D01*
X145214286Y-99114286D01*
X145157143Y-99228571D01*
X145100000Y-99285714D01*
X144985714Y-99342857D01*
X144757143Y-99342857D01*
X144642857Y-99285714D01*
X144585714Y-99228571D01*
X144528571Y-99114286D01*
X144528571Y-98828571D01*
X144585714Y-98714286D01*
X144642857Y-98657143D01*
X144757143Y-98600000D01*
X144985714Y-98600000D01*
X145100000Y-98657143D01*
X145157143Y-98714286D01*
X145214286Y-98828571D01*
X151642857Y-96557143D02*
X151642857Y-95985714D01*
X150442857Y-95985714D01*
X150842857Y-97471429D02*
X151642857Y-97471429D01*
X150385714Y-97185715D02*
X151242857Y-96900000D01*
X151242857Y-97642858D01*
X150442857Y-97985715D02*
X150442857Y-98785715D01*
X151642857Y-98271429D01*
X150442857Y-99757143D02*
X150442857Y-99528572D01*
X150500000Y-99414286D01*
X150557143Y-99357143D01*
X150728571Y-99242857D01*
X150957143Y-99185714D01*
X151414286Y-99185714D01*
X151528571Y-99242857D01*
X151585714Y-99300000D01*
X151642857Y-99414286D01*
X151642857Y-99642857D01*
X151585714Y-99757143D01*
X151528571Y-99814286D01*
X151414286Y-99871429D01*
X151128571Y-99871429D01*
X151014286Y-99814286D01*
X150957143Y-99757143D01*
X150900000Y-99642857D01*
X150900000Y-99414286D01*
X150957143Y-99300000D01*
X151014286Y-99242857D01*
X151128571Y-99185714D01*
X156942857Y-103242857D02*
X157514286Y-103242857D01*
X157514286Y-102042857D01*
X156028571Y-102442857D02*
X156028571Y-103242857D01*
X156314285Y-101985714D02*
X156600000Y-102842857D01*
X155857142Y-102842857D01*
X155514285Y-102042857D02*
X154714285Y-102042857D01*
X155228571Y-103242857D01*
X153742857Y-102042857D02*
X153971428Y-102042857D01*
X154085714Y-102100000D01*
X154142857Y-102157143D01*
X154257143Y-102328571D01*
X154314286Y-102557143D01*
X154314286Y-103014286D01*
X154257143Y-103128571D01*
X154200000Y-103185714D01*
X154085714Y-103242857D01*
X153857143Y-103242857D01*
X153742857Y-103185714D01*
X153685714Y-103128571D01*
X153628571Y-103014286D01*
X153628571Y-102728571D01*
X153685714Y-102614286D01*
X153742857Y-102557143D01*
X153857143Y-102500000D01*
X154085714Y-102500000D01*
X154200000Y-102557143D01*
X154257143Y-102614286D01*
X154314286Y-102728571D01*
X156942857Y-110542857D02*
X157514286Y-110542857D01*
X157514286Y-109342857D01*
X156028571Y-109742857D02*
X156028571Y-110542857D01*
X156314285Y-109285714D02*
X156600000Y-110142857D01*
X155857142Y-110142857D01*
X155514285Y-109342857D02*
X154714285Y-109342857D01*
X155228571Y-110542857D01*
X153742857Y-109342857D02*
X153971428Y-109342857D01*
X154085714Y-109400000D01*
X154142857Y-109457143D01*
X154257143Y-109628571D01*
X154314286Y-109857143D01*
X154314286Y-110314286D01*
X154257143Y-110428571D01*
X154200000Y-110485714D01*
X154085714Y-110542857D01*
X153857143Y-110542857D01*
X153742857Y-110485714D01*
X153685714Y-110428571D01*
X153628571Y-110314286D01*
X153628571Y-110028571D01*
X153685714Y-109914286D01*
X153742857Y-109857143D01*
X153857143Y-109800000D01*
X154085714Y-109800000D01*
X154200000Y-109857143D01*
X154257143Y-109914286D01*
X154314286Y-110028571D01*
X152914286Y-96357143D02*
X152914286Y-95957143D01*
X153542857Y-95957143D02*
X152342857Y-95957143D01*
X152342857Y-96528572D01*
X152742857Y-97500000D02*
X153542857Y-97500000D01*
X152285714Y-97214286D02*
X153142857Y-96928571D01*
X153142857Y-97671429D01*
X152742857Y-98642857D02*
X153542857Y-98642857D01*
X152285714Y-98357143D02*
X153142857Y-98071428D01*
X153142857Y-98814286D01*
X152342857Y-99785714D02*
X152342857Y-99557143D01*
X152400000Y-99442857D01*
X152457143Y-99385714D01*
X152628571Y-99271428D01*
X152857143Y-99214285D01*
X153314286Y-99214285D01*
X153428571Y-99271428D01*
X153485714Y-99328571D01*
X153542857Y-99442857D01*
X153542857Y-99671428D01*
X153485714Y-99785714D01*
X153428571Y-99842857D01*
X153314286Y-99900000D01*
X153028571Y-99900000D01*
X152914286Y-99842857D01*
X152857143Y-99785714D01*
X152800000Y-99671428D01*
X152800000Y-99442857D01*
X152857143Y-99328571D01*
X152914286Y-99271428D01*
X153028571Y-99214285D01*
X157142857Y-108114286D02*
X157542857Y-108114286D01*
X157542857Y-108742857D02*
X157542857Y-107542857D01*
X156971428Y-107542857D01*
X156000000Y-107942857D02*
X156000000Y-108742857D01*
X156285714Y-107485714D02*
X156571429Y-108342857D01*
X155828571Y-108342857D01*
X154857143Y-107942857D02*
X154857143Y-108742857D01*
X155142857Y-107485714D02*
X155428572Y-108342857D01*
X154685714Y-108342857D01*
X153714286Y-107542857D02*
X153942857Y-107542857D01*
X154057143Y-107600000D01*
X154114286Y-107657143D01*
X154228572Y-107828571D01*
X154285715Y-108057143D01*
X154285715Y-108514286D01*
X154228572Y-108628571D01*
X154171429Y-108685714D01*
X154057143Y-108742857D01*
X153828572Y-108742857D01*
X153714286Y-108685714D01*
X153657143Y-108628571D01*
X153600000Y-108514286D01*
X153600000Y-108228571D01*
X153657143Y-108114286D01*
X153714286Y-108057143D01*
X153828572Y-108000000D01*
X154057143Y-108000000D01*
X154171429Y-108057143D01*
X154228572Y-108114286D01*
X154285715Y-108228571D01*
X157142857Y-100714286D02*
X157542857Y-100714286D01*
X157542857Y-101342857D02*
X157542857Y-100142857D01*
X156971428Y-100142857D01*
X156000000Y-100542857D02*
X156000000Y-101342857D01*
X156285714Y-100085714D02*
X156571429Y-100942857D01*
X155828571Y-100942857D01*
X154857143Y-100542857D02*
X154857143Y-101342857D01*
X155142857Y-100085714D02*
X155428572Y-100942857D01*
X154685714Y-100942857D01*
X153714286Y-100142857D02*
X153942857Y-100142857D01*
X154057143Y-100200000D01*
X154114286Y-100257143D01*
X154228572Y-100428571D01*
X154285715Y-100657143D01*
X154285715Y-101114286D01*
X154228572Y-101228571D01*
X154171429Y-101285714D01*
X154057143Y-101342857D01*
X153828572Y-101342857D01*
X153714286Y-101285714D01*
X153657143Y-101228571D01*
X153600000Y-101114286D01*
X153600000Y-100828571D01*
X153657143Y-100714286D01*
X153714286Y-100657143D01*
X153828572Y-100600000D01*
X154057143Y-100600000D01*
X154171429Y-100657143D01*
X154228572Y-100714286D01*
X154285715Y-100828571D01*
D13*
X138600000Y-89250000D02*
X138600000Y-88550000D01*
X137400000Y-88550000D02*
X137400000Y-89250000D01*
X138450000Y-80800000D02*
X137750000Y-80800000D01*
X137750000Y-82000000D02*
X138450000Y-82000000D01*
X130150000Y-76900000D02*
X130150000Y-77600000D01*
X131350000Y-77600000D02*
X131350000Y-76900000D01*
X143900000Y-72850000D02*
X143900000Y-72150000D01*
X142700000Y-72150000D02*
X142700000Y-72850000D01*
X138450000Y-86050000D02*
X137750000Y-86050000D01*
X137750000Y-87250000D02*
X138450000Y-87250000D01*
X131700000Y-89750000D02*
X131700000Y-89050000D01*
X130500000Y-89050000D02*
X130500000Y-89750000D01*
X124000000Y-72850000D02*
X124000000Y-72150000D01*
X122800000Y-72150000D02*
X122800000Y-72850000D01*
X130500000Y-82550000D02*
X130500000Y-81850000D01*
X129300000Y-81850000D02*
X129300000Y-82550000D01*
X133200000Y-89750000D02*
X133200000Y-89050000D01*
X132000000Y-89050000D02*
X132000000Y-89750000D01*
X129100000Y-82550000D02*
X129100000Y-81850000D01*
X127900000Y-81850000D02*
X127900000Y-82550000D01*
X138450000Y-84650000D02*
X137750000Y-84650000D01*
X137750000Y-85850000D02*
X138450000Y-85850000D01*
X133000000Y-80450000D02*
X133000000Y-81150000D01*
X134200000Y-81150000D02*
X134200000Y-80450000D01*
X132750000Y-77600000D02*
X132750000Y-76900000D01*
X131550000Y-76900000D02*
X131550000Y-77600000D01*
X131500000Y-80450000D02*
X131500000Y-81150000D01*
X132700000Y-81150000D02*
X132700000Y-80450000D01*
X142500000Y-74450000D02*
X142500000Y-73750000D01*
X141300000Y-73750000D02*
X141300000Y-74450000D01*
X125400000Y-74450000D02*
X125400000Y-73750000D01*
X124200000Y-73750000D02*
X124200000Y-74450000D01*
X134450000Y-76900000D02*
X134450000Y-77600000D01*
X135650000Y-77600000D02*
X135650000Y-76900000D01*
X145980000Y-70600000D02*
X145980000Y-69600000D01*
X144620000Y-69600000D02*
X144620000Y-70600000D01*
X152500000Y-52930000D02*
X153500000Y-52930000D01*
X153500000Y-51570000D02*
X152500000Y-51570000D01*
X120720000Y-69600000D02*
X120720000Y-70600000D01*
X122080000Y-70600000D02*
X122080000Y-69600000D01*
X131000000Y-52930000D02*
X132000000Y-52930000D01*
X132000000Y-51570000D02*
X131000000Y-51570000D01*
X132920000Y-76750000D02*
X132920000Y-77750000D01*
X134280000Y-77750000D02*
X134280000Y-76750000D01*
X128600000Y-83720000D02*
X127600000Y-83720000D01*
X127600000Y-85080000D02*
X128600000Y-85080000D01*
X142400000Y-52880000D02*
X143400000Y-52880000D01*
X143400000Y-51520000D02*
X142400000Y-51520000D01*
X120750000Y-52880000D02*
X121750000Y-52880000D01*
X121750000Y-51520000D02*
X120750000Y-51520000D01*
X159890000Y-99790000D02*
X159890000Y-103610000D01*
X159890000Y-103610000D02*
X158110000Y-103610000D01*
X158110000Y-103610000D02*
X158110000Y-99790000D01*
X159890000Y-99790000D02*
X158110000Y-99790000D01*
X159890000Y-107190000D02*
X159890000Y-111010000D01*
X159890000Y-111010000D02*
X158110000Y-111010000D01*
X158110000Y-111010000D02*
X158110000Y-107190000D01*
X159890000Y-107190000D02*
X158110000Y-107190000D01*
X153910000Y-95590000D02*
X150090000Y-95590000D01*
X150090000Y-95590000D02*
X150090000Y-93810000D01*
X150090000Y-93810000D02*
X153910000Y-93810000D01*
X153910000Y-95590000D02*
X153910000Y-93810000D01*
X146130000Y-93410000D02*
X148670000Y-93410000D01*
X148670000Y-95190000D02*
X146130000Y-95190000D01*
X148670000Y-95190000D02*
X148670000Y-93410000D01*
X146130000Y-93410000D02*
X146130000Y-95190000D01*
X146190000Y-95810000D02*
X148730000Y-95810000D01*
X148730000Y-97590000D02*
X146190000Y-97590000D01*
X148730000Y-97590000D02*
X148730000Y-95810000D01*
X146190000Y-95810000D02*
X146190000Y-97590000D01*
X126865000Y-104095000D02*
X125865000Y-104095000D01*
X125865000Y-105455000D02*
X126865000Y-105455000D01*
X126865000Y-106635000D02*
X125865000Y-106635000D01*
X125865000Y-107995000D02*
X126865000Y-107995000D01*
X126750000Y-109175000D02*
X125750000Y-109175000D01*
X125750000Y-110535000D02*
X126750000Y-110535000D01*
X126865000Y-111715000D02*
X125865000Y-111715000D01*
X125865000Y-113075000D02*
X126865000Y-113075000D01*
X126865000Y-114255000D02*
X125865000Y-114255000D01*
X125865000Y-115615000D02*
X126865000Y-115615000D01*
X126865000Y-116795000D02*
X125865000Y-116795000D01*
X125865000Y-118155000D02*
X126865000Y-118155000D01*
X126750000Y-119335000D02*
X125750000Y-119335000D01*
X125750000Y-120695000D02*
X126750000Y-120695000D01*
X126865000Y-121875000D02*
X125865000Y-121875000D01*
X125865000Y-123235000D02*
X126865000Y-123235000D01*
X140978000Y-105455000D02*
X141978000Y-105455000D01*
X141978000Y-104095000D02*
X140978000Y-104095000D01*
X140966000Y-107995000D02*
X141966000Y-107995000D01*
X141966000Y-106635000D02*
X140966000Y-106635000D01*
X140978000Y-110535000D02*
X141978000Y-110535000D01*
X141978000Y-109175000D02*
X140978000Y-109175000D01*
X140966000Y-113075000D02*
X141966000Y-113075000D01*
X141966000Y-111715000D02*
X140966000Y-111715000D01*
X140978000Y-115615000D02*
X141978000Y-115615000D01*
X141978000Y-114255000D02*
X140978000Y-114255000D01*
X140978000Y-118155000D02*
X141978000Y-118155000D01*
X141978000Y-116795000D02*
X140978000Y-116795000D01*
X140978000Y-120695000D02*
X141978000Y-120695000D01*
X141978000Y-119335000D02*
X140978000Y-119335000D01*
X140978000Y-123235000D02*
X141978000Y-123235000D01*
X141978000Y-121875000D02*
X140978000Y-121875000D01*
X153380000Y-67800000D02*
X153380000Y-65800000D01*
X150420000Y-65800000D02*
X150420000Y-67800000D01*
X116280000Y-67800000D02*
X116280000Y-65800000D01*
X113320000Y-65800000D02*
X113320000Y-67800000D01*
X120650000Y-72900000D02*
X120650000Y-73900000D01*
X118950000Y-73900000D02*
X118950000Y-72900000D01*
X156920000Y-66200000D02*
X156920000Y-67200000D01*
X158280000Y-67200000D02*
X158280000Y-66200000D01*
X154320000Y-66200000D02*
X154320000Y-67200000D01*
X155680000Y-67200000D02*
X155680000Y-66200000D01*
X153700000Y-85920000D02*
X152700000Y-85920000D01*
X152700000Y-87280000D02*
X153700000Y-87280000D01*
D11*
X139857143Y-88733334D02*
X139904762Y-88685715D01*
X139952381Y-88542858D01*
X139952381Y-88447620D01*
X139904762Y-88304762D01*
X139809524Y-88209524D01*
X139714286Y-88161905D01*
X139523810Y-88114286D01*
X139380952Y-88114286D01*
X139190476Y-88161905D01*
X139095238Y-88209524D01*
X139000000Y-88304762D01*
X138952381Y-88447620D01*
X138952381Y-88542858D01*
X139000000Y-88685715D01*
X139047619Y-88733334D01*
X138952381Y-89590477D02*
X138952381Y-89400000D01*
X139000000Y-89304762D01*
X139047619Y-89257143D01*
X139190476Y-89161905D01*
X139380952Y-89114286D01*
X139761905Y-89114286D01*
X139857143Y-89161905D01*
X139904762Y-89209524D01*
X139952381Y-89304762D01*
X139952381Y-89495239D01*
X139904762Y-89590477D01*
X139857143Y-89638096D01*
X139761905Y-89685715D01*
X139523810Y-89685715D01*
X139428571Y-89638096D01*
X139380952Y-89590477D01*
X139333333Y-89495239D01*
X139333333Y-89304762D01*
X139380952Y-89209524D01*
X139428571Y-89161905D01*
X139523810Y-89114286D01*
X138266666Y-83257143D02*
X138314285Y-83304762D01*
X138457142Y-83352381D01*
X138552380Y-83352381D01*
X138695238Y-83304762D01*
X138790476Y-83209524D01*
X138838095Y-83114286D01*
X138885714Y-82923810D01*
X138885714Y-82780952D01*
X138838095Y-82590476D01*
X138790476Y-82495238D01*
X138695238Y-82400000D01*
X138552380Y-82352381D01*
X138457142Y-82352381D01*
X138314285Y-82400000D01*
X138266666Y-82447619D01*
X137361904Y-82352381D02*
X137838095Y-82352381D01*
X137885714Y-82828571D01*
X137838095Y-82780952D01*
X137742857Y-82733333D01*
X137504761Y-82733333D01*
X137409523Y-82780952D01*
X137361904Y-82828571D01*
X137314285Y-82923810D01*
X137314285Y-83161905D01*
X137361904Y-83257143D01*
X137409523Y-83304762D01*
X137504761Y-83352381D01*
X137742857Y-83352381D01*
X137838095Y-83304762D01*
X137885714Y-83257143D01*
X131202381Y-74733334D02*
X131202381Y-74257143D01*
X130202381Y-74257143D01*
X130202381Y-74971429D02*
X130202381Y-75590477D01*
X130583333Y-75257143D01*
X130583333Y-75400001D01*
X130630952Y-75495239D01*
X130678571Y-75542858D01*
X130773810Y-75590477D01*
X131011905Y-75590477D01*
X131107143Y-75542858D01*
X131154762Y-75495239D01*
X131202381Y-75400001D01*
X131202381Y-75114286D01*
X131154762Y-75019048D01*
X131107143Y-74971429D01*
X143657143Y-74733334D02*
X143704762Y-74685715D01*
X143752381Y-74542858D01*
X143752381Y-74447620D01*
X143704762Y-74304762D01*
X143609524Y-74209524D01*
X143514286Y-74161905D01*
X143323810Y-74114286D01*
X143180952Y-74114286D01*
X142990476Y-74161905D01*
X142895238Y-74209524D01*
X142800000Y-74304762D01*
X142752381Y-74447620D01*
X142752381Y-74542858D01*
X142800000Y-74685715D01*
X142847619Y-74733334D01*
X143085714Y-75590477D02*
X143752381Y-75590477D01*
X142704762Y-75352381D02*
X143419048Y-75114286D01*
X143419048Y-75733334D01*
X141166666Y-87007143D02*
X141214285Y-87054762D01*
X141357142Y-87102381D01*
X141452380Y-87102381D01*
X141595238Y-87054762D01*
X141690476Y-86959524D01*
X141738095Y-86864286D01*
X141785714Y-86673810D01*
X141785714Y-86530952D01*
X141738095Y-86340476D01*
X141690476Y-86245238D01*
X141595238Y-86150000D01*
X141452380Y-86102381D01*
X141357142Y-86102381D01*
X141214285Y-86150000D01*
X141166666Y-86197619D01*
X140833333Y-86102381D02*
X140166666Y-86102381D01*
X140595238Y-87102381D01*
X131457143Y-86733334D02*
X131504762Y-86685715D01*
X131552381Y-86542858D01*
X131552381Y-86447620D01*
X131504762Y-86304762D01*
X131409524Y-86209524D01*
X131314286Y-86161905D01*
X131123810Y-86114286D01*
X130980952Y-86114286D01*
X130790476Y-86161905D01*
X130695238Y-86209524D01*
X130600000Y-86304762D01*
X130552381Y-86447620D01*
X130552381Y-86542858D01*
X130600000Y-86685715D01*
X130647619Y-86733334D01*
X130980952Y-87304762D02*
X130933333Y-87209524D01*
X130885714Y-87161905D01*
X130790476Y-87114286D01*
X130742857Y-87114286D01*
X130647619Y-87161905D01*
X130600000Y-87209524D01*
X130552381Y-87304762D01*
X130552381Y-87495239D01*
X130600000Y-87590477D01*
X130647619Y-87638096D01*
X130742857Y-87685715D01*
X130790476Y-87685715D01*
X130885714Y-87638096D01*
X130933333Y-87590477D01*
X130980952Y-87495239D01*
X130980952Y-87304762D01*
X131028571Y-87209524D01*
X131076190Y-87161905D01*
X131171429Y-87114286D01*
X131361905Y-87114286D01*
X131457143Y-87161905D01*
X131504762Y-87209524D01*
X131552381Y-87304762D01*
X131552381Y-87495239D01*
X131504762Y-87590477D01*
X131457143Y-87638096D01*
X131361905Y-87685715D01*
X131171429Y-87685715D01*
X131076190Y-87638096D01*
X131028571Y-87590477D01*
X130980952Y-87495239D01*
X125257143Y-71857143D02*
X125304762Y-71809524D01*
X125352381Y-71666667D01*
X125352381Y-71571429D01*
X125304762Y-71428571D01*
X125209524Y-71333333D01*
X125114286Y-71285714D01*
X124923810Y-71238095D01*
X124780952Y-71238095D01*
X124590476Y-71285714D01*
X124495238Y-71333333D01*
X124400000Y-71428571D01*
X124352381Y-71571429D01*
X124352381Y-71666667D01*
X124400000Y-71809524D01*
X124447619Y-71857143D01*
X125352381Y-72809524D02*
X125352381Y-72238095D01*
X125352381Y-72523809D02*
X124352381Y-72523809D01*
X124495238Y-72428571D01*
X124590476Y-72333333D01*
X124638095Y-72238095D01*
X125352381Y-73761905D02*
X125352381Y-73190476D01*
X125352381Y-73476190D02*
X124352381Y-73476190D01*
X124495238Y-73380952D01*
X124590476Y-73285714D01*
X124638095Y-73190476D01*
X130257143Y-78707143D02*
X130304762Y-78659524D01*
X130352381Y-78516667D01*
X130352381Y-78421429D01*
X130304762Y-78278571D01*
X130209524Y-78183333D01*
X130114286Y-78135714D01*
X129923810Y-78088095D01*
X129780952Y-78088095D01*
X129590476Y-78135714D01*
X129495238Y-78183333D01*
X129400000Y-78278571D01*
X129352381Y-78421429D01*
X129352381Y-78516667D01*
X129400000Y-78659524D01*
X129447619Y-78707143D01*
X130352381Y-79659524D02*
X130352381Y-79088095D01*
X130352381Y-79373809D02*
X129352381Y-79373809D01*
X129495238Y-79278571D01*
X129590476Y-79183333D01*
X129638095Y-79088095D01*
X129447619Y-80040476D02*
X129400000Y-80088095D01*
X129352381Y-80183333D01*
X129352381Y-80421429D01*
X129400000Y-80516667D01*
X129447619Y-80564286D01*
X129542857Y-80611905D01*
X129638095Y-80611905D01*
X129780952Y-80564286D01*
X130352381Y-79992857D01*
X130352381Y-80611905D01*
X133007143Y-85907143D02*
X133054762Y-85859524D01*
X133102381Y-85716667D01*
X133102381Y-85621429D01*
X133054762Y-85478571D01*
X132959524Y-85383333D01*
X132864286Y-85335714D01*
X132673810Y-85288095D01*
X132530952Y-85288095D01*
X132340476Y-85335714D01*
X132245238Y-85383333D01*
X132150000Y-85478571D01*
X132102381Y-85621429D01*
X132102381Y-85716667D01*
X132150000Y-85859524D01*
X132197619Y-85907143D01*
X133102381Y-86859524D02*
X133102381Y-86288095D01*
X133102381Y-86573809D02*
X132102381Y-86573809D01*
X132245238Y-86478571D01*
X132340476Y-86383333D01*
X132388095Y-86288095D01*
X132102381Y-87192857D02*
X132102381Y-87811905D01*
X132483333Y-87478571D01*
X132483333Y-87621429D01*
X132530952Y-87716667D01*
X132578571Y-87764286D01*
X132673810Y-87811905D01*
X132911905Y-87811905D01*
X133007143Y-87764286D01*
X133054762Y-87716667D01*
X133102381Y-87621429D01*
X133102381Y-87335714D01*
X133054762Y-87240476D01*
X133007143Y-87192857D01*
X128857143Y-78707143D02*
X128904762Y-78659524D01*
X128952381Y-78516667D01*
X128952381Y-78421429D01*
X128904762Y-78278571D01*
X128809524Y-78183333D01*
X128714286Y-78135714D01*
X128523810Y-78088095D01*
X128380952Y-78088095D01*
X128190476Y-78135714D01*
X128095238Y-78183333D01*
X128000000Y-78278571D01*
X127952381Y-78421429D01*
X127952381Y-78516667D01*
X128000000Y-78659524D01*
X128047619Y-78707143D01*
X128952381Y-79659524D02*
X128952381Y-79088095D01*
X128952381Y-79373809D02*
X127952381Y-79373809D01*
X128095238Y-79278571D01*
X128190476Y-79183333D01*
X128238095Y-79088095D01*
X128285714Y-80516667D02*
X128952381Y-80516667D01*
X127904762Y-80278571D02*
X128619048Y-80040476D01*
X128619048Y-80659524D01*
X141842857Y-85657143D02*
X141890476Y-85704762D01*
X142033333Y-85752381D01*
X142128571Y-85752381D01*
X142271429Y-85704762D01*
X142366667Y-85609524D01*
X142414286Y-85514286D01*
X142461905Y-85323810D01*
X142461905Y-85180952D01*
X142414286Y-84990476D01*
X142366667Y-84895238D01*
X142271429Y-84800000D01*
X142128571Y-84752381D01*
X142033333Y-84752381D01*
X141890476Y-84800000D01*
X141842857Y-84847619D01*
X140890476Y-85752381D02*
X141461905Y-85752381D01*
X141176191Y-85752381D02*
X141176191Y-84752381D01*
X141271429Y-84895238D01*
X141366667Y-84990476D01*
X141461905Y-85038095D01*
X139985714Y-84752381D02*
X140461905Y-84752381D01*
X140509524Y-85228571D01*
X140461905Y-85180952D01*
X140366667Y-85133333D01*
X140128571Y-85133333D01*
X140033333Y-85180952D01*
X139985714Y-85228571D01*
X139938095Y-85323810D01*
X139938095Y-85561905D01*
X139985714Y-85657143D01*
X140033333Y-85704762D01*
X140128571Y-85752381D01*
X140366667Y-85752381D01*
X140461905Y-85704762D01*
X140509524Y-85657143D01*
X133932143Y-82957143D02*
X133979762Y-82909524D01*
X134027381Y-82766667D01*
X134027381Y-82671429D01*
X133979762Y-82528571D01*
X133884524Y-82433333D01*
X133789286Y-82385714D01*
X133598810Y-82338095D01*
X133455952Y-82338095D01*
X133265476Y-82385714D01*
X133170238Y-82433333D01*
X133075000Y-82528571D01*
X133027381Y-82671429D01*
X133027381Y-82766667D01*
X133075000Y-82909524D01*
X133122619Y-82957143D01*
X134027381Y-83909524D02*
X134027381Y-83338095D01*
X134027381Y-83623809D02*
X133027381Y-83623809D01*
X133170238Y-83528571D01*
X133265476Y-83433333D01*
X133313095Y-83338095D01*
X133027381Y-84766667D02*
X133027381Y-84576190D01*
X133075000Y-84480952D01*
X133122619Y-84433333D01*
X133265476Y-84338095D01*
X133455952Y-84290476D01*
X133836905Y-84290476D01*
X133932143Y-84338095D01*
X133979762Y-84385714D01*
X134027381Y-84480952D01*
X134027381Y-84671429D01*
X133979762Y-84766667D01*
X133932143Y-84814286D01*
X133836905Y-84861905D01*
X133598810Y-84861905D01*
X133503571Y-84814286D01*
X133455952Y-84766667D01*
X133408333Y-84671429D01*
X133408333Y-84480952D01*
X133455952Y-84385714D01*
X133503571Y-84338095D01*
X133598810Y-84290476D01*
X132507143Y-73657143D02*
X132554762Y-73609524D01*
X132602381Y-73466667D01*
X132602381Y-73371429D01*
X132554762Y-73228571D01*
X132459524Y-73133333D01*
X132364286Y-73085714D01*
X132173810Y-73038095D01*
X132030952Y-73038095D01*
X131840476Y-73085714D01*
X131745238Y-73133333D01*
X131650000Y-73228571D01*
X131602381Y-73371429D01*
X131602381Y-73466667D01*
X131650000Y-73609524D01*
X131697619Y-73657143D01*
X132602381Y-74609524D02*
X132602381Y-74038095D01*
X132602381Y-74323809D02*
X131602381Y-74323809D01*
X131745238Y-74228571D01*
X131840476Y-74133333D01*
X131888095Y-74038095D01*
X131602381Y-74942857D02*
X131602381Y-75609524D01*
X132602381Y-75180952D01*
X132482143Y-82957143D02*
X132529762Y-82909524D01*
X132577381Y-82766667D01*
X132577381Y-82671429D01*
X132529762Y-82528571D01*
X132434524Y-82433333D01*
X132339286Y-82385714D01*
X132148810Y-82338095D01*
X132005952Y-82338095D01*
X131815476Y-82385714D01*
X131720238Y-82433333D01*
X131625000Y-82528571D01*
X131577381Y-82671429D01*
X131577381Y-82766667D01*
X131625000Y-82909524D01*
X131672619Y-82957143D01*
X132577381Y-83909524D02*
X132577381Y-83338095D01*
X132577381Y-83623809D02*
X131577381Y-83623809D01*
X131720238Y-83528571D01*
X131815476Y-83433333D01*
X131863095Y-83338095D01*
X132005952Y-84480952D02*
X131958333Y-84385714D01*
X131910714Y-84338095D01*
X131815476Y-84290476D01*
X131767857Y-84290476D01*
X131672619Y-84338095D01*
X131625000Y-84385714D01*
X131577381Y-84480952D01*
X131577381Y-84671429D01*
X131625000Y-84766667D01*
X131672619Y-84814286D01*
X131767857Y-84861905D01*
X131815476Y-84861905D01*
X131910714Y-84814286D01*
X131958333Y-84766667D01*
X132005952Y-84671429D01*
X132005952Y-84480952D01*
X132053571Y-84385714D01*
X132101190Y-84338095D01*
X132196429Y-84290476D01*
X132386905Y-84290476D01*
X132482143Y-84338095D01*
X132529762Y-84385714D01*
X132577381Y-84480952D01*
X132577381Y-84671429D01*
X132529762Y-84766667D01*
X132482143Y-84814286D01*
X132386905Y-84861905D01*
X132196429Y-84861905D01*
X132101190Y-84814286D01*
X132053571Y-84766667D01*
X132005952Y-84671429D01*
X142352381Y-76233334D02*
X142352381Y-75757143D01*
X141352381Y-75757143D01*
X142352381Y-77090477D02*
X142352381Y-76519048D01*
X142352381Y-76804762D02*
X141352381Y-76804762D01*
X141495238Y-76709524D01*
X141590476Y-76614286D01*
X141638095Y-76519048D01*
X126752381Y-73933334D02*
X126752381Y-73457143D01*
X125752381Y-73457143D01*
X125847619Y-74219048D02*
X125800000Y-74266667D01*
X125752381Y-74361905D01*
X125752381Y-74600001D01*
X125800000Y-74695239D01*
X125847619Y-74742858D01*
X125942857Y-74790477D01*
X126038095Y-74790477D01*
X126180952Y-74742858D01*
X126752381Y-74171429D01*
X126752381Y-74790477D01*
X135552381Y-74633334D02*
X135552381Y-74157143D01*
X134552381Y-74157143D01*
X134885714Y-75395239D02*
X135552381Y-75395239D01*
X134504762Y-75157143D02*
X135219048Y-74919048D01*
X135219048Y-75538096D01*
X145752381Y-72133334D02*
X145276190Y-71800000D01*
X145752381Y-71561905D02*
X144752381Y-71561905D01*
X144752381Y-71942858D01*
X144800000Y-72038096D01*
X144847619Y-72085715D01*
X144942857Y-72133334D01*
X145085714Y-72133334D01*
X145180952Y-72085715D01*
X145228571Y-72038096D01*
X145276190Y-71942858D01*
X145276190Y-71561905D01*
X144752381Y-72466667D02*
X144752381Y-73085715D01*
X145133333Y-72752381D01*
X145133333Y-72895239D01*
X145180952Y-72990477D01*
X145228571Y-73038096D01*
X145323810Y-73085715D01*
X145561905Y-73085715D01*
X145657143Y-73038096D01*
X145704762Y-72990477D01*
X145752381Y-72895239D01*
X145752381Y-72609524D01*
X145704762Y-72514286D01*
X145657143Y-72466667D01*
X156416666Y-52702381D02*
X156750000Y-52226190D01*
X156988095Y-52702381D02*
X156988095Y-51702381D01*
X156607142Y-51702381D01*
X156511904Y-51750000D01*
X156464285Y-51797619D01*
X156416666Y-51892857D01*
X156416666Y-52035714D01*
X156464285Y-52130952D01*
X156511904Y-52178571D01*
X156607142Y-52226190D01*
X156988095Y-52226190D01*
X155511904Y-51702381D02*
X155988095Y-51702381D01*
X156035714Y-52178571D01*
X155988095Y-52130952D01*
X155892857Y-52083333D01*
X155654761Y-52083333D01*
X155559523Y-52130952D01*
X155511904Y-52178571D01*
X155464285Y-52273810D01*
X155464285Y-52511905D01*
X155511904Y-52607143D01*
X155559523Y-52654762D01*
X155654761Y-52702381D01*
X155892857Y-52702381D01*
X155988095Y-52654762D01*
X156035714Y-52607143D01*
X123302381Y-69933334D02*
X122826190Y-69600000D01*
X123302381Y-69361905D02*
X122302381Y-69361905D01*
X122302381Y-69742858D01*
X122350000Y-69838096D01*
X122397619Y-69885715D01*
X122492857Y-69933334D01*
X122635714Y-69933334D01*
X122730952Y-69885715D01*
X122778571Y-69838096D01*
X122826190Y-69742858D01*
X122826190Y-69361905D01*
X122302381Y-70790477D02*
X122302381Y-70600000D01*
X122350000Y-70504762D01*
X122397619Y-70457143D01*
X122540476Y-70361905D01*
X122730952Y-70314286D01*
X123111905Y-70314286D01*
X123207143Y-70361905D01*
X123254762Y-70409524D01*
X123302381Y-70504762D01*
X123302381Y-70695239D01*
X123254762Y-70790477D01*
X123207143Y-70838096D01*
X123111905Y-70885715D01*
X122873810Y-70885715D01*
X122778571Y-70838096D01*
X122730952Y-70790477D01*
X122683333Y-70695239D01*
X122683333Y-70504762D01*
X122730952Y-70409524D01*
X122778571Y-70361905D01*
X122873810Y-70314286D01*
X134866666Y-52702381D02*
X135200000Y-52226190D01*
X135438095Y-52702381D02*
X135438095Y-51702381D01*
X135057142Y-51702381D01*
X134961904Y-51750000D01*
X134914285Y-51797619D01*
X134866666Y-51892857D01*
X134866666Y-52035714D01*
X134914285Y-52130952D01*
X134961904Y-52178571D01*
X135057142Y-52226190D01*
X135438095Y-52226190D01*
X134533333Y-51702381D02*
X133866666Y-51702381D01*
X134295238Y-52702381D01*
X134052381Y-73607143D02*
X133576190Y-73273809D01*
X134052381Y-73035714D02*
X133052381Y-73035714D01*
X133052381Y-73416667D01*
X133100000Y-73511905D01*
X133147619Y-73559524D01*
X133242857Y-73607143D01*
X133385714Y-73607143D01*
X133480952Y-73559524D01*
X133528571Y-73511905D01*
X133576190Y-73416667D01*
X133576190Y-73035714D01*
X134052381Y-74559524D02*
X134052381Y-73988095D01*
X134052381Y-74273809D02*
X133052381Y-74273809D01*
X133195238Y-74178571D01*
X133290476Y-74083333D01*
X133338095Y-73988095D01*
X133052381Y-74892857D02*
X133052381Y-75511905D01*
X133433333Y-75178571D01*
X133433333Y-75321429D01*
X133480952Y-75416667D01*
X133528571Y-75464286D01*
X133623810Y-75511905D01*
X133861905Y-75511905D01*
X133957143Y-75464286D01*
X134004762Y-75416667D01*
X134052381Y-75321429D01*
X134052381Y-75035714D01*
X134004762Y-74940476D01*
X133957143Y-74892857D01*
X125642857Y-84852381D02*
X125976191Y-84376190D01*
X126214286Y-84852381D02*
X126214286Y-83852381D01*
X125833333Y-83852381D01*
X125738095Y-83900000D01*
X125690476Y-83947619D01*
X125642857Y-84042857D01*
X125642857Y-84185714D01*
X125690476Y-84280952D01*
X125738095Y-84328571D01*
X125833333Y-84376190D01*
X126214286Y-84376190D01*
X124690476Y-84852381D02*
X125261905Y-84852381D01*
X124976191Y-84852381D02*
X124976191Y-83852381D01*
X125071429Y-83995238D01*
X125166667Y-84090476D01*
X125261905Y-84138095D01*
X124119048Y-84280952D02*
X124214286Y-84233333D01*
X124261905Y-84185714D01*
X124309524Y-84090476D01*
X124309524Y-84042857D01*
X124261905Y-83947619D01*
X124214286Y-83900000D01*
X124119048Y-83852381D01*
X123928571Y-83852381D01*
X123833333Y-83900000D01*
X123785714Y-83947619D01*
X123738095Y-84042857D01*
X123738095Y-84090476D01*
X123785714Y-84185714D01*
X123833333Y-84233333D01*
X123928571Y-84280952D01*
X124119048Y-84280952D01*
X124214286Y-84328571D01*
X124261905Y-84376190D01*
X124309524Y-84471429D01*
X124309524Y-84661905D01*
X124261905Y-84757143D01*
X124214286Y-84804762D01*
X124119048Y-84852381D01*
X123928571Y-84852381D01*
X123833333Y-84804762D01*
X123785714Y-84757143D01*
X123738095Y-84661905D01*
X123738095Y-84471429D01*
X123785714Y-84376190D01*
X123833333Y-84328571D01*
X123928571Y-84280952D01*
X146342857Y-52652381D02*
X146676191Y-52176190D01*
X146914286Y-52652381D02*
X146914286Y-51652381D01*
X146533333Y-51652381D01*
X146438095Y-51700000D01*
X146390476Y-51747619D01*
X146342857Y-51842857D01*
X146342857Y-51985714D01*
X146390476Y-52080952D01*
X146438095Y-52128571D01*
X146533333Y-52176190D01*
X146914286Y-52176190D01*
X145961905Y-51747619D02*
X145914286Y-51700000D01*
X145819048Y-51652381D01*
X145580952Y-51652381D01*
X145485714Y-51700000D01*
X145438095Y-51747619D01*
X145390476Y-51842857D01*
X145390476Y-51938095D01*
X145438095Y-52080952D01*
X146009524Y-52652381D01*
X145390476Y-52652381D01*
X145009524Y-51747619D02*
X144961905Y-51700000D01*
X144866667Y-51652381D01*
X144628571Y-51652381D01*
X144533333Y-51700000D01*
X144485714Y-51747619D01*
X144438095Y-51842857D01*
X144438095Y-51938095D01*
X144485714Y-52080952D01*
X145057143Y-52652381D01*
X144438095Y-52652381D01*
X124742857Y-52652381D02*
X125076191Y-52176190D01*
X125314286Y-52652381D02*
X125314286Y-51652381D01*
X124933333Y-51652381D01*
X124838095Y-51700000D01*
X124790476Y-51747619D01*
X124742857Y-51842857D01*
X124742857Y-51985714D01*
X124790476Y-52080952D01*
X124838095Y-52128571D01*
X124933333Y-52176190D01*
X125314286Y-52176190D01*
X124361905Y-51747619D02*
X124314286Y-51700000D01*
X124219048Y-51652381D01*
X123980952Y-51652381D01*
X123885714Y-51700000D01*
X123838095Y-51747619D01*
X123790476Y-51842857D01*
X123790476Y-51938095D01*
X123838095Y-52080952D01*
X124409524Y-52652381D01*
X123790476Y-52652381D01*
X123457143Y-51652381D02*
X122838095Y-51652381D01*
X123171429Y-52033333D01*
X123028571Y-52033333D01*
X122933333Y-52080952D01*
X122885714Y-52128571D01*
X122838095Y-52223810D01*
X122838095Y-52461905D01*
X122885714Y-52557143D01*
X122933333Y-52604762D01*
X123028571Y-52652381D01*
X123314286Y-52652381D01*
X123409524Y-52604762D01*
X123457143Y-52557143D01*
X160152381Y-101366667D02*
X160866667Y-101366667D01*
X161009524Y-101319047D01*
X161104762Y-101223809D01*
X161152381Y-101080952D01*
X161152381Y-100985714D01*
X160152381Y-101747619D02*
X160152381Y-102366667D01*
X160533333Y-102033333D01*
X160533333Y-102176191D01*
X160580952Y-102271429D01*
X160628571Y-102319048D01*
X160723810Y-102366667D01*
X160961905Y-102366667D01*
X161057143Y-102319048D01*
X161104762Y-102271429D01*
X161152381Y-102176191D01*
X161152381Y-101890476D01*
X161104762Y-101795238D01*
X161057143Y-101747619D01*
X160152381Y-108766667D02*
X160866667Y-108766667D01*
X161009524Y-108719047D01*
X161104762Y-108623809D01*
X161152381Y-108480952D01*
X161152381Y-108385714D01*
X160485714Y-109671429D02*
X161152381Y-109671429D01*
X160104762Y-109433333D02*
X160819048Y-109195238D01*
X160819048Y-109814286D01*
X152333333Y-92352381D02*
X152333333Y-93066667D01*
X152380953Y-93209524D01*
X152476191Y-93304762D01*
X152619048Y-93352381D01*
X152714286Y-93352381D01*
X151428571Y-92352381D02*
X151619048Y-92352381D01*
X151714286Y-92400000D01*
X151761905Y-92447619D01*
X151857143Y-92590476D01*
X151904762Y-92780952D01*
X151904762Y-93161905D01*
X151857143Y-93257143D01*
X151809524Y-93304762D01*
X151714286Y-93352381D01*
X151523809Y-93352381D01*
X151428571Y-93304762D01*
X151380952Y-93257143D01*
X151333333Y-93161905D01*
X151333333Y-92923810D01*
X151380952Y-92828571D01*
X151428571Y-92780952D01*
X151523809Y-92733333D01*
X151714286Y-92733333D01*
X151809524Y-92780952D01*
X151857143Y-92828571D01*
X151904762Y-92923810D01*
X145133333Y-93752381D02*
X145133333Y-94466667D01*
X145180953Y-94609524D01*
X145276191Y-94704762D01*
X145419048Y-94752381D01*
X145514286Y-94752381D01*
X144752381Y-93752381D02*
X144085714Y-93752381D01*
X144514286Y-94752381D01*
X145193333Y-96152381D02*
X145193333Y-96866667D01*
X145240953Y-97009524D01*
X145336191Y-97104762D01*
X145479048Y-97152381D01*
X145574286Y-97152381D01*
X144574286Y-96580952D02*
X144669524Y-96533333D01*
X144717143Y-96485714D01*
X144764762Y-96390476D01*
X144764762Y-96342857D01*
X144717143Y-96247619D01*
X144669524Y-96200000D01*
X144574286Y-96152381D01*
X144383809Y-96152381D01*
X144288571Y-96200000D01*
X144240952Y-96247619D01*
X144193333Y-96342857D01*
X144193333Y-96390476D01*
X144240952Y-96485714D01*
X144288571Y-96533333D01*
X144383809Y-96580952D01*
X144574286Y-96580952D01*
X144669524Y-96628571D01*
X144717143Y-96676190D01*
X144764762Y-96771429D01*
X144764762Y-96961905D01*
X144717143Y-97057143D01*
X144669524Y-97104762D01*
X144574286Y-97152381D01*
X144383809Y-97152381D01*
X144288571Y-97104762D01*
X144240952Y-97057143D01*
X144193333Y-96961905D01*
X144193333Y-96771429D01*
X144240952Y-96676190D01*
X144288571Y-96628571D01*
X144383809Y-96580952D01*
X129928857Y-105227381D02*
X130262191Y-104751190D01*
X130500286Y-105227381D02*
X130500286Y-104227381D01*
X130119333Y-104227381D01*
X130024095Y-104275000D01*
X129976476Y-104322619D01*
X129928857Y-104417857D01*
X129928857Y-104560714D01*
X129976476Y-104655952D01*
X130024095Y-104703571D01*
X130119333Y-104751190D01*
X130500286Y-104751190D01*
X129547905Y-104322619D02*
X129500286Y-104275000D01*
X129405048Y-104227381D01*
X129166952Y-104227381D01*
X129071714Y-104275000D01*
X129024095Y-104322619D01*
X128976476Y-104417857D01*
X128976476Y-104513095D01*
X129024095Y-104655952D01*
X129595524Y-105227381D01*
X128976476Y-105227381D01*
X128119333Y-104560714D02*
X128119333Y-105227381D01*
X128357429Y-104179762D02*
X128595524Y-104894048D01*
X127976476Y-104894048D01*
X129928857Y-107767381D02*
X130262191Y-107291190D01*
X130500286Y-107767381D02*
X130500286Y-106767381D01*
X130119333Y-106767381D01*
X130024095Y-106815000D01*
X129976476Y-106862619D01*
X129928857Y-106957857D01*
X129928857Y-107100714D01*
X129976476Y-107195952D01*
X130024095Y-107243571D01*
X130119333Y-107291190D01*
X130500286Y-107291190D01*
X129547905Y-106862619D02*
X129500286Y-106815000D01*
X129405048Y-106767381D01*
X129166952Y-106767381D01*
X129071714Y-106815000D01*
X129024095Y-106862619D01*
X128976476Y-106957857D01*
X128976476Y-107053095D01*
X129024095Y-107195952D01*
X129595524Y-107767381D01*
X128976476Y-107767381D01*
X128071714Y-106767381D02*
X128547905Y-106767381D01*
X128595524Y-107243571D01*
X128547905Y-107195952D01*
X128452667Y-107148333D01*
X128214571Y-107148333D01*
X128119333Y-107195952D01*
X128071714Y-107243571D01*
X128024095Y-107338810D01*
X128024095Y-107576905D01*
X128071714Y-107672143D01*
X128119333Y-107719762D01*
X128214571Y-107767381D01*
X128452667Y-107767381D01*
X128547905Y-107719762D01*
X128595524Y-107672143D01*
X129928857Y-110307381D02*
X130262191Y-109831190D01*
X130500286Y-110307381D02*
X130500286Y-109307381D01*
X130119333Y-109307381D01*
X130024095Y-109355000D01*
X129976476Y-109402619D01*
X129928857Y-109497857D01*
X129928857Y-109640714D01*
X129976476Y-109735952D01*
X130024095Y-109783571D01*
X130119333Y-109831190D01*
X130500286Y-109831190D01*
X129547905Y-109402619D02*
X129500286Y-109355000D01*
X129405048Y-109307381D01*
X129166952Y-109307381D01*
X129071714Y-109355000D01*
X129024095Y-109402619D01*
X128976476Y-109497857D01*
X128976476Y-109593095D01*
X129024095Y-109735952D01*
X129595524Y-110307381D01*
X128976476Y-110307381D01*
X128119333Y-109307381D02*
X128309810Y-109307381D01*
X128405048Y-109355000D01*
X128452667Y-109402619D01*
X128547905Y-109545476D01*
X128595524Y-109735952D01*
X128595524Y-110116905D01*
X128547905Y-110212143D01*
X128500286Y-110259762D01*
X128405048Y-110307381D01*
X128214571Y-110307381D01*
X128119333Y-110259762D01*
X128071714Y-110212143D01*
X128024095Y-110116905D01*
X128024095Y-109878810D01*
X128071714Y-109783571D01*
X128119333Y-109735952D01*
X128214571Y-109688333D01*
X128405048Y-109688333D01*
X128500286Y-109735952D01*
X128547905Y-109783571D01*
X128595524Y-109878810D01*
X129928857Y-112847381D02*
X130262191Y-112371190D01*
X130500286Y-112847381D02*
X130500286Y-111847381D01*
X130119333Y-111847381D01*
X130024095Y-111895000D01*
X129976476Y-111942619D01*
X129928857Y-112037857D01*
X129928857Y-112180714D01*
X129976476Y-112275952D01*
X130024095Y-112323571D01*
X130119333Y-112371190D01*
X130500286Y-112371190D01*
X129547905Y-111942619D02*
X129500286Y-111895000D01*
X129405048Y-111847381D01*
X129166952Y-111847381D01*
X129071714Y-111895000D01*
X129024095Y-111942619D01*
X128976476Y-112037857D01*
X128976476Y-112133095D01*
X129024095Y-112275952D01*
X129595524Y-112847381D01*
X128976476Y-112847381D01*
X128643143Y-111847381D02*
X127976476Y-111847381D01*
X128405048Y-112847381D01*
X129928857Y-115387381D02*
X130262191Y-114911190D01*
X130500286Y-115387381D02*
X130500286Y-114387381D01*
X130119333Y-114387381D01*
X130024095Y-114435000D01*
X129976476Y-114482619D01*
X129928857Y-114577857D01*
X129928857Y-114720714D01*
X129976476Y-114815952D01*
X130024095Y-114863571D01*
X130119333Y-114911190D01*
X130500286Y-114911190D01*
X129547905Y-114482619D02*
X129500286Y-114435000D01*
X129405048Y-114387381D01*
X129166952Y-114387381D01*
X129071714Y-114435000D01*
X129024095Y-114482619D01*
X128976476Y-114577857D01*
X128976476Y-114673095D01*
X129024095Y-114815952D01*
X129595524Y-115387381D01*
X128976476Y-115387381D01*
X128405048Y-114815952D02*
X128500286Y-114768333D01*
X128547905Y-114720714D01*
X128595524Y-114625476D01*
X128595524Y-114577857D01*
X128547905Y-114482619D01*
X128500286Y-114435000D01*
X128405048Y-114387381D01*
X128214571Y-114387381D01*
X128119333Y-114435000D01*
X128071714Y-114482619D01*
X128024095Y-114577857D01*
X128024095Y-114625476D01*
X128071714Y-114720714D01*
X128119333Y-114768333D01*
X128214571Y-114815952D01*
X128405048Y-114815952D01*
X128500286Y-114863571D01*
X128547905Y-114911190D01*
X128595524Y-115006429D01*
X128595524Y-115196905D01*
X128547905Y-115292143D01*
X128500286Y-115339762D01*
X128405048Y-115387381D01*
X128214571Y-115387381D01*
X128119333Y-115339762D01*
X128071714Y-115292143D01*
X128024095Y-115196905D01*
X128024095Y-115006429D01*
X128071714Y-114911190D01*
X128119333Y-114863571D01*
X128214571Y-114815952D01*
X129928857Y-117927381D02*
X130262191Y-117451190D01*
X130500286Y-117927381D02*
X130500286Y-116927381D01*
X130119333Y-116927381D01*
X130024095Y-116975000D01*
X129976476Y-117022619D01*
X129928857Y-117117857D01*
X129928857Y-117260714D01*
X129976476Y-117355952D01*
X130024095Y-117403571D01*
X130119333Y-117451190D01*
X130500286Y-117451190D01*
X129547905Y-117022619D02*
X129500286Y-116975000D01*
X129405048Y-116927381D01*
X129166952Y-116927381D01*
X129071714Y-116975000D01*
X129024095Y-117022619D01*
X128976476Y-117117857D01*
X128976476Y-117213095D01*
X129024095Y-117355952D01*
X129595524Y-117927381D01*
X128976476Y-117927381D01*
X128500286Y-117927381D02*
X128309810Y-117927381D01*
X128214571Y-117879762D01*
X128166952Y-117832143D01*
X128071714Y-117689286D01*
X128024095Y-117498810D01*
X128024095Y-117117857D01*
X128071714Y-117022619D01*
X128119333Y-116975000D01*
X128214571Y-116927381D01*
X128405048Y-116927381D01*
X128500286Y-116975000D01*
X128547905Y-117022619D01*
X128595524Y-117117857D01*
X128595524Y-117355952D01*
X128547905Y-117451190D01*
X128500286Y-117498810D01*
X128405048Y-117546429D01*
X128214571Y-117546429D01*
X128119333Y-117498810D01*
X128071714Y-117451190D01*
X128024095Y-117355952D01*
X129928857Y-120467381D02*
X130262191Y-119991190D01*
X130500286Y-120467381D02*
X130500286Y-119467381D01*
X130119333Y-119467381D01*
X130024095Y-119515000D01*
X129976476Y-119562619D01*
X129928857Y-119657857D01*
X129928857Y-119800714D01*
X129976476Y-119895952D01*
X130024095Y-119943571D01*
X130119333Y-119991190D01*
X130500286Y-119991190D01*
X129595524Y-119467381D02*
X128976476Y-119467381D01*
X129309810Y-119848333D01*
X129166952Y-119848333D01*
X129071714Y-119895952D01*
X129024095Y-119943571D01*
X128976476Y-120038810D01*
X128976476Y-120276905D01*
X129024095Y-120372143D01*
X129071714Y-120419762D01*
X129166952Y-120467381D01*
X129452667Y-120467381D01*
X129547905Y-120419762D01*
X129595524Y-120372143D01*
X128357429Y-119467381D02*
X128262190Y-119467381D01*
X128166952Y-119515000D01*
X128119333Y-119562619D01*
X128071714Y-119657857D01*
X128024095Y-119848333D01*
X128024095Y-120086429D01*
X128071714Y-120276905D01*
X128119333Y-120372143D01*
X128166952Y-120419762D01*
X128262190Y-120467381D01*
X128357429Y-120467381D01*
X128452667Y-120419762D01*
X128500286Y-120372143D01*
X128547905Y-120276905D01*
X128595524Y-120086429D01*
X128595524Y-119848333D01*
X128547905Y-119657857D01*
X128500286Y-119562619D01*
X128452667Y-119515000D01*
X128357429Y-119467381D01*
X129928857Y-123007381D02*
X130262191Y-122531190D01*
X130500286Y-123007381D02*
X130500286Y-122007381D01*
X130119333Y-122007381D01*
X130024095Y-122055000D01*
X129976476Y-122102619D01*
X129928857Y-122197857D01*
X129928857Y-122340714D01*
X129976476Y-122435952D01*
X130024095Y-122483571D01*
X130119333Y-122531190D01*
X130500286Y-122531190D01*
X129595524Y-122007381D02*
X128976476Y-122007381D01*
X129309810Y-122388333D01*
X129166952Y-122388333D01*
X129071714Y-122435952D01*
X129024095Y-122483571D01*
X128976476Y-122578810D01*
X128976476Y-122816905D01*
X129024095Y-122912143D01*
X129071714Y-122959762D01*
X129166952Y-123007381D01*
X129452667Y-123007381D01*
X129547905Y-122959762D01*
X129595524Y-122912143D01*
X128024095Y-123007381D02*
X128595524Y-123007381D01*
X128309810Y-123007381D02*
X128309810Y-122007381D01*
X128405048Y-122150238D01*
X128500286Y-122245476D01*
X128595524Y-122293095D01*
X139072857Y-105227381D02*
X139406191Y-104751190D01*
X139644286Y-105227381D02*
X139644286Y-104227381D01*
X139263333Y-104227381D01*
X139168095Y-104275000D01*
X139120476Y-104322619D01*
X139072857Y-104417857D01*
X139072857Y-104560714D01*
X139120476Y-104655952D01*
X139168095Y-104703571D01*
X139263333Y-104751190D01*
X139644286Y-104751190D01*
X138739524Y-104227381D02*
X138120476Y-104227381D01*
X138453810Y-104608333D01*
X138310952Y-104608333D01*
X138215714Y-104655952D01*
X138168095Y-104703571D01*
X138120476Y-104798810D01*
X138120476Y-105036905D01*
X138168095Y-105132143D01*
X138215714Y-105179762D01*
X138310952Y-105227381D01*
X138596667Y-105227381D01*
X138691905Y-105179762D01*
X138739524Y-105132143D01*
X137739524Y-104322619D02*
X137691905Y-104275000D01*
X137596667Y-104227381D01*
X137358571Y-104227381D01*
X137263333Y-104275000D01*
X137215714Y-104322619D01*
X137168095Y-104417857D01*
X137168095Y-104513095D01*
X137215714Y-104655952D01*
X137787143Y-105227381D01*
X137168095Y-105227381D01*
X139072857Y-107767381D02*
X139406191Y-107291190D01*
X139644286Y-107767381D02*
X139644286Y-106767381D01*
X139263333Y-106767381D01*
X139168095Y-106815000D01*
X139120476Y-106862619D01*
X139072857Y-106957857D01*
X139072857Y-107100714D01*
X139120476Y-107195952D01*
X139168095Y-107243571D01*
X139263333Y-107291190D01*
X139644286Y-107291190D01*
X138739524Y-106767381D02*
X138120476Y-106767381D01*
X138453810Y-107148333D01*
X138310952Y-107148333D01*
X138215714Y-107195952D01*
X138168095Y-107243571D01*
X138120476Y-107338810D01*
X138120476Y-107576905D01*
X138168095Y-107672143D01*
X138215714Y-107719762D01*
X138310952Y-107767381D01*
X138596667Y-107767381D01*
X138691905Y-107719762D01*
X138739524Y-107672143D01*
X137787143Y-106767381D02*
X137168095Y-106767381D01*
X137501429Y-107148333D01*
X137358571Y-107148333D01*
X137263333Y-107195952D01*
X137215714Y-107243571D01*
X137168095Y-107338810D01*
X137168095Y-107576905D01*
X137215714Y-107672143D01*
X137263333Y-107719762D01*
X137358571Y-107767381D01*
X137644286Y-107767381D01*
X137739524Y-107719762D01*
X137787143Y-107672143D01*
X139072857Y-110307381D02*
X139406191Y-109831190D01*
X139644286Y-110307381D02*
X139644286Y-109307381D01*
X139263333Y-109307381D01*
X139168095Y-109355000D01*
X139120476Y-109402619D01*
X139072857Y-109497857D01*
X139072857Y-109640714D01*
X139120476Y-109735952D01*
X139168095Y-109783571D01*
X139263333Y-109831190D01*
X139644286Y-109831190D01*
X138739524Y-109307381D02*
X138120476Y-109307381D01*
X138453810Y-109688333D01*
X138310952Y-109688333D01*
X138215714Y-109735952D01*
X138168095Y-109783571D01*
X138120476Y-109878810D01*
X138120476Y-110116905D01*
X138168095Y-110212143D01*
X138215714Y-110259762D01*
X138310952Y-110307381D01*
X138596667Y-110307381D01*
X138691905Y-110259762D01*
X138739524Y-110212143D01*
X137263333Y-109640714D02*
X137263333Y-110307381D01*
X137501429Y-109259762D02*
X137739524Y-109974048D01*
X137120476Y-109974048D01*
X139072857Y-112847381D02*
X139406191Y-112371190D01*
X139644286Y-112847381D02*
X139644286Y-111847381D01*
X139263333Y-111847381D01*
X139168095Y-111895000D01*
X139120476Y-111942619D01*
X139072857Y-112037857D01*
X139072857Y-112180714D01*
X139120476Y-112275952D01*
X139168095Y-112323571D01*
X139263333Y-112371190D01*
X139644286Y-112371190D01*
X138739524Y-111847381D02*
X138120476Y-111847381D01*
X138453810Y-112228333D01*
X138310952Y-112228333D01*
X138215714Y-112275952D01*
X138168095Y-112323571D01*
X138120476Y-112418810D01*
X138120476Y-112656905D01*
X138168095Y-112752143D01*
X138215714Y-112799762D01*
X138310952Y-112847381D01*
X138596667Y-112847381D01*
X138691905Y-112799762D01*
X138739524Y-112752143D01*
X137215714Y-111847381D02*
X137691905Y-111847381D01*
X137739524Y-112323571D01*
X137691905Y-112275952D01*
X137596667Y-112228333D01*
X137358571Y-112228333D01*
X137263333Y-112275952D01*
X137215714Y-112323571D01*
X137168095Y-112418810D01*
X137168095Y-112656905D01*
X137215714Y-112752143D01*
X137263333Y-112799762D01*
X137358571Y-112847381D01*
X137596667Y-112847381D01*
X137691905Y-112799762D01*
X137739524Y-112752143D01*
X139072857Y-115387381D02*
X139406191Y-114911190D01*
X139644286Y-115387381D02*
X139644286Y-114387381D01*
X139263333Y-114387381D01*
X139168095Y-114435000D01*
X139120476Y-114482619D01*
X139072857Y-114577857D01*
X139072857Y-114720714D01*
X139120476Y-114815952D01*
X139168095Y-114863571D01*
X139263333Y-114911190D01*
X139644286Y-114911190D01*
X138739524Y-114387381D02*
X138120476Y-114387381D01*
X138453810Y-114768333D01*
X138310952Y-114768333D01*
X138215714Y-114815952D01*
X138168095Y-114863571D01*
X138120476Y-114958810D01*
X138120476Y-115196905D01*
X138168095Y-115292143D01*
X138215714Y-115339762D01*
X138310952Y-115387381D01*
X138596667Y-115387381D01*
X138691905Y-115339762D01*
X138739524Y-115292143D01*
X137263333Y-114387381D02*
X137453810Y-114387381D01*
X137549048Y-114435000D01*
X137596667Y-114482619D01*
X137691905Y-114625476D01*
X137739524Y-114815952D01*
X137739524Y-115196905D01*
X137691905Y-115292143D01*
X137644286Y-115339762D01*
X137549048Y-115387381D01*
X137358571Y-115387381D01*
X137263333Y-115339762D01*
X137215714Y-115292143D01*
X137168095Y-115196905D01*
X137168095Y-114958810D01*
X137215714Y-114863571D01*
X137263333Y-114815952D01*
X137358571Y-114768333D01*
X137549048Y-114768333D01*
X137644286Y-114815952D01*
X137691905Y-114863571D01*
X137739524Y-114958810D01*
X139072857Y-117927381D02*
X139406191Y-117451190D01*
X139644286Y-117927381D02*
X139644286Y-116927381D01*
X139263333Y-116927381D01*
X139168095Y-116975000D01*
X139120476Y-117022619D01*
X139072857Y-117117857D01*
X139072857Y-117260714D01*
X139120476Y-117355952D01*
X139168095Y-117403571D01*
X139263333Y-117451190D01*
X139644286Y-117451190D01*
X138739524Y-116927381D02*
X138120476Y-116927381D01*
X138453810Y-117308333D01*
X138310952Y-117308333D01*
X138215714Y-117355952D01*
X138168095Y-117403571D01*
X138120476Y-117498810D01*
X138120476Y-117736905D01*
X138168095Y-117832143D01*
X138215714Y-117879762D01*
X138310952Y-117927381D01*
X138596667Y-117927381D01*
X138691905Y-117879762D01*
X138739524Y-117832143D01*
X137787143Y-116927381D02*
X137120476Y-116927381D01*
X137549048Y-117927381D01*
X139072857Y-120467381D02*
X139406191Y-119991190D01*
X139644286Y-120467381D02*
X139644286Y-119467381D01*
X139263333Y-119467381D01*
X139168095Y-119515000D01*
X139120476Y-119562619D01*
X139072857Y-119657857D01*
X139072857Y-119800714D01*
X139120476Y-119895952D01*
X139168095Y-119943571D01*
X139263333Y-119991190D01*
X139644286Y-119991190D01*
X138739524Y-119467381D02*
X138120476Y-119467381D01*
X138453810Y-119848333D01*
X138310952Y-119848333D01*
X138215714Y-119895952D01*
X138168095Y-119943571D01*
X138120476Y-120038810D01*
X138120476Y-120276905D01*
X138168095Y-120372143D01*
X138215714Y-120419762D01*
X138310952Y-120467381D01*
X138596667Y-120467381D01*
X138691905Y-120419762D01*
X138739524Y-120372143D01*
X137549048Y-119895952D02*
X137644286Y-119848333D01*
X137691905Y-119800714D01*
X137739524Y-119705476D01*
X137739524Y-119657857D01*
X137691905Y-119562619D01*
X137644286Y-119515000D01*
X137549048Y-119467381D01*
X137358571Y-119467381D01*
X137263333Y-119515000D01*
X137215714Y-119562619D01*
X137168095Y-119657857D01*
X137168095Y-119705476D01*
X137215714Y-119800714D01*
X137263333Y-119848333D01*
X137358571Y-119895952D01*
X137549048Y-119895952D01*
X137644286Y-119943571D01*
X137691905Y-119991190D01*
X137739524Y-120086429D01*
X137739524Y-120276905D01*
X137691905Y-120372143D01*
X137644286Y-120419762D01*
X137549048Y-120467381D01*
X137358571Y-120467381D01*
X137263333Y-120419762D01*
X137215714Y-120372143D01*
X137168095Y-120276905D01*
X137168095Y-120086429D01*
X137215714Y-119991190D01*
X137263333Y-119943571D01*
X137358571Y-119895952D01*
X139072857Y-123007381D02*
X139406191Y-122531190D01*
X139644286Y-123007381D02*
X139644286Y-122007381D01*
X139263333Y-122007381D01*
X139168095Y-122055000D01*
X139120476Y-122102619D01*
X139072857Y-122197857D01*
X139072857Y-122340714D01*
X139120476Y-122435952D01*
X139168095Y-122483571D01*
X139263333Y-122531190D01*
X139644286Y-122531190D01*
X138739524Y-122007381D02*
X138120476Y-122007381D01*
X138453810Y-122388333D01*
X138310952Y-122388333D01*
X138215714Y-122435952D01*
X138168095Y-122483571D01*
X138120476Y-122578810D01*
X138120476Y-122816905D01*
X138168095Y-122912143D01*
X138215714Y-122959762D01*
X138310952Y-123007381D01*
X138596667Y-123007381D01*
X138691905Y-122959762D01*
X138739524Y-122912143D01*
X137644286Y-123007381D02*
X137453810Y-123007381D01*
X137358571Y-122959762D01*
X137310952Y-122912143D01*
X137215714Y-122769286D01*
X137168095Y-122578810D01*
X137168095Y-122197857D01*
X137215714Y-122102619D01*
X137263333Y-122055000D01*
X137358571Y-122007381D01*
X137549048Y-122007381D01*
X137644286Y-122055000D01*
X137691905Y-122102619D01*
X137739524Y-122197857D01*
X137739524Y-122435952D01*
X137691905Y-122531190D01*
X137644286Y-122578810D01*
X137549048Y-122626429D01*
X137358571Y-122626429D01*
X137263333Y-122578810D01*
X137215714Y-122531190D01*
X137168095Y-122435952D01*
X150052381Y-65557143D02*
X149576190Y-65223809D01*
X150052381Y-64985714D02*
X149052381Y-64985714D01*
X149052381Y-65366667D01*
X149100000Y-65461905D01*
X149147619Y-65509524D01*
X149242857Y-65557143D01*
X149385714Y-65557143D01*
X149480952Y-65509524D01*
X149528571Y-65461905D01*
X149576190Y-65366667D01*
X149576190Y-64985714D01*
X149385714Y-66414286D02*
X150052381Y-66414286D01*
X149004762Y-66176190D02*
X149719048Y-65938095D01*
X149719048Y-66557143D01*
X149052381Y-67128571D02*
X149052381Y-67223810D01*
X149100000Y-67319048D01*
X149147619Y-67366667D01*
X149242857Y-67414286D01*
X149433333Y-67461905D01*
X149671429Y-67461905D01*
X149861905Y-67414286D01*
X149957143Y-67366667D01*
X150004762Y-67319048D01*
X150052381Y-67223810D01*
X150052381Y-67128571D01*
X150004762Y-67033333D01*
X149957143Y-66985714D01*
X149861905Y-66938095D01*
X149671429Y-66890476D01*
X149433333Y-66890476D01*
X149242857Y-66938095D01*
X149147619Y-66985714D01*
X149100000Y-67033333D01*
X149052381Y-67128571D01*
X113002381Y-66157143D02*
X112526190Y-65823809D01*
X113002381Y-65585714D02*
X112002381Y-65585714D01*
X112002381Y-65966667D01*
X112050000Y-66061905D01*
X112097619Y-66109524D01*
X112192857Y-66157143D01*
X112335714Y-66157143D01*
X112430952Y-66109524D01*
X112478571Y-66061905D01*
X112526190Y-65966667D01*
X112526190Y-65585714D01*
X112335714Y-67014286D02*
X113002381Y-67014286D01*
X111954762Y-66776190D02*
X112669048Y-66538095D01*
X112669048Y-67157143D01*
X113002381Y-68061905D02*
X113002381Y-67490476D01*
X113002381Y-67776190D02*
X112002381Y-67776190D01*
X112145238Y-67680952D01*
X112240476Y-67585714D01*
X112288095Y-67490476D01*
X118457143Y-72757143D02*
X118504762Y-72709524D01*
X118552381Y-72566667D01*
X118552381Y-72471429D01*
X118504762Y-72328571D01*
X118409524Y-72233333D01*
X118314286Y-72185714D01*
X118123810Y-72138095D01*
X117980952Y-72138095D01*
X117790476Y-72185714D01*
X117695238Y-72233333D01*
X117600000Y-72328571D01*
X117552381Y-72471429D01*
X117552381Y-72566667D01*
X117600000Y-72709524D01*
X117647619Y-72757143D01*
X117552381Y-73090476D02*
X117552381Y-73709524D01*
X117933333Y-73376190D01*
X117933333Y-73519048D01*
X117980952Y-73614286D01*
X118028571Y-73661905D01*
X118123810Y-73709524D01*
X118361905Y-73709524D01*
X118457143Y-73661905D01*
X118504762Y-73614286D01*
X118552381Y-73519048D01*
X118552381Y-73233333D01*
X118504762Y-73138095D01*
X118457143Y-73090476D01*
X117552381Y-74042857D02*
X117552381Y-74661905D01*
X117933333Y-74328571D01*
X117933333Y-74471429D01*
X117980952Y-74566667D01*
X118028571Y-74614286D01*
X118123810Y-74661905D01*
X118361905Y-74661905D01*
X118457143Y-74614286D01*
X118504762Y-74566667D01*
X118552381Y-74471429D01*
X118552381Y-74185714D01*
X118504762Y-74090476D01*
X118457143Y-74042857D01*
X158052381Y-63157143D02*
X157576190Y-62823809D01*
X158052381Y-62585714D02*
X157052381Y-62585714D01*
X157052381Y-62966667D01*
X157100000Y-63061905D01*
X157147619Y-63109524D01*
X157242857Y-63157143D01*
X157385714Y-63157143D01*
X157480952Y-63109524D01*
X157528571Y-63061905D01*
X157576190Y-62966667D01*
X157576190Y-62585714D01*
X157385714Y-64014286D02*
X158052381Y-64014286D01*
X157004762Y-63776190D02*
X157719048Y-63538095D01*
X157719048Y-64157143D01*
X157052381Y-64442857D02*
X157052381Y-65061905D01*
X157433333Y-64728571D01*
X157433333Y-64871429D01*
X157480952Y-64966667D01*
X157528571Y-65014286D01*
X157623810Y-65061905D01*
X157861905Y-65061905D01*
X157957143Y-65014286D01*
X158004762Y-64966667D01*
X158052381Y-64871429D01*
X158052381Y-64585714D01*
X158004762Y-64490476D01*
X157957143Y-64442857D01*
X155452381Y-63157143D02*
X154976190Y-62823809D01*
X155452381Y-62585714D02*
X154452381Y-62585714D01*
X154452381Y-62966667D01*
X154500000Y-63061905D01*
X154547619Y-63109524D01*
X154642857Y-63157143D01*
X154785714Y-63157143D01*
X154880952Y-63109524D01*
X154928571Y-63061905D01*
X154976190Y-62966667D01*
X154976190Y-62585714D01*
X154785714Y-64014286D02*
X155452381Y-64014286D01*
X154404762Y-63776190D02*
X155119048Y-63538095D01*
X155119048Y-64157143D01*
X154785714Y-64966667D02*
X155452381Y-64966667D01*
X154404762Y-64728571D02*
X155119048Y-64490476D01*
X155119048Y-65109524D01*
X156542857Y-87052381D02*
X156876191Y-86576190D01*
X157114286Y-87052381D02*
X157114286Y-86052381D01*
X156733333Y-86052381D01*
X156638095Y-86100000D01*
X156590476Y-86147619D01*
X156542857Y-86242857D01*
X156542857Y-86385714D01*
X156590476Y-86480952D01*
X156638095Y-86528571D01*
X156733333Y-86576190D01*
X157114286Y-86576190D01*
X155685714Y-86385714D02*
X155685714Y-87052381D01*
X155923810Y-86004762D02*
X156161905Y-86719048D01*
X155542857Y-86719048D01*
X154685714Y-86052381D02*
X155161905Y-86052381D01*
X155209524Y-86528571D01*
X155161905Y-86480952D01*
X155066667Y-86433333D01*
X154828571Y-86433333D01*
X154733333Y-86480952D01*
X154685714Y-86528571D01*
X154638095Y-86623810D01*
X154638095Y-86861905D01*
X154685714Y-86957143D01*
X154733333Y-87004762D01*
X154828571Y-87052381D01*
X155066667Y-87052381D01*
X155161905Y-87004762D01*
X155209524Y-86957143D01*
M02*
