G04 #@! TF.FileFunction,Soldermask,Top*
%FSLAX46Y46*%
G04 Gerber Fmt 4.6, Leading zero omitted, Abs format (unit mm)*
G04 Created by KiCad (PCBNEW 4.0.6) date 04/07/17 01:25:25*
%MOMM*%
%LPD*%
G01*
G04 APERTURE LIST*
%ADD10C,0.100000*%
%ADD11R,2.000000X2.800000*%
%ADD12O,2.000000X2.800000*%
%ADD13R,2.100000X2.100000*%
%ADD14O,2.100000X2.100000*%
%ADD15C,4.200000*%
%ADD16C,1.800000*%
%ADD17C,2.400000*%
%ADD18C,1.900000*%
%ADD19R,1.800000X1.800000*%
%ADD20R,1.150000X1.200000*%
%ADD21R,1.200000X1.150000*%
%ADD22R,1.200000X1.200000*%
%ADD23R,0.900000X1.300000*%
%ADD24R,1.300000X0.900000*%
%ADD25R,1.250000X0.700000*%
%ADD26R,0.700000X1.250000*%
%ADD27R,2.237500X2.237500*%
%ADD28R,1.600000X1.800000*%
%ADD29R,1.670000X1.370000*%
%ADD30R,1.650000X1.400000*%
G04 APERTURE END LIST*
D10*
D11*
X146920000Y-88920000D03*
D12*
X154540000Y-81300000D03*
X149460000Y-88920000D03*
X152000000Y-81300000D03*
X152000000Y-88920000D03*
X149460000Y-81300000D03*
X154540000Y-88920000D03*
X146920000Y-81300000D03*
D13*
X132080000Y-125095000D03*
D14*
X134620000Y-125095000D03*
X132080000Y-122555000D03*
X134620000Y-122555000D03*
X132080000Y-120015000D03*
X134620000Y-120015000D03*
X132080000Y-117475000D03*
X134620000Y-117475000D03*
X132080000Y-114935000D03*
X134620000Y-114935000D03*
X132080000Y-112395000D03*
X134620000Y-112395000D03*
X132080000Y-109855000D03*
X134620000Y-109855000D03*
X132080000Y-107315000D03*
X134620000Y-107315000D03*
X132080000Y-104775000D03*
X134620000Y-104775000D03*
X132080000Y-102235000D03*
X134620000Y-102235000D03*
D15*
X128270000Y-57150000D03*
X116840000Y-57150000D03*
D16*
X118110000Y-66040000D03*
X119380000Y-63500000D03*
X120650000Y-66040000D03*
X121920000Y-63500000D03*
X123190000Y-66040000D03*
X124460000Y-63500000D03*
X125730000Y-66040000D03*
D17*
X114681000Y-60198000D03*
D18*
X116230400Y-53771800D03*
X126339600Y-53771800D03*
X118770400Y-52247800D03*
X128879600Y-52247800D03*
D19*
X127000000Y-63500000D03*
D17*
X130429000Y-60198000D03*
D13*
X101600000Y-81280000D03*
D14*
X104140000Y-81280000D03*
X101600000Y-83820000D03*
X104140000Y-83820000D03*
X101600000Y-86360000D03*
X104140000Y-86360000D03*
X101600000Y-88900000D03*
X104140000Y-88900000D03*
X101600000Y-91440000D03*
X104140000Y-91440000D03*
X101600000Y-93980000D03*
X104140000Y-93980000D03*
X101600000Y-96520000D03*
X104140000Y-96520000D03*
X101600000Y-99060000D03*
X104140000Y-99060000D03*
X101600000Y-101600000D03*
X104140000Y-101600000D03*
X101600000Y-104140000D03*
X104140000Y-104140000D03*
X101600000Y-106680000D03*
X104140000Y-106680000D03*
X101600000Y-109220000D03*
X104140000Y-109220000D03*
X101600000Y-111760000D03*
X104140000Y-111760000D03*
X101600000Y-114300000D03*
X104140000Y-114300000D03*
X101600000Y-116840000D03*
X104140000Y-116840000D03*
X101600000Y-119380000D03*
X104140000Y-119380000D03*
X101600000Y-121920000D03*
X104140000Y-121920000D03*
X101600000Y-124460000D03*
X104140000Y-124460000D03*
X101600000Y-127000000D03*
X104140000Y-127000000D03*
D13*
X162560000Y-81280000D03*
D14*
X165100000Y-81280000D03*
X162560000Y-83820000D03*
X165100000Y-83820000D03*
X162560000Y-86360000D03*
X165100000Y-86360000D03*
X162560000Y-88900000D03*
X165100000Y-88900000D03*
X162560000Y-91440000D03*
X165100000Y-91440000D03*
X162560000Y-93980000D03*
X165100000Y-93980000D03*
X162560000Y-96520000D03*
X165100000Y-96520000D03*
X162560000Y-99060000D03*
X165100000Y-99060000D03*
X162560000Y-101600000D03*
X165100000Y-101600000D03*
X162560000Y-104140000D03*
X165100000Y-104140000D03*
X162560000Y-106680000D03*
X165100000Y-106680000D03*
X162560000Y-109220000D03*
X165100000Y-109220000D03*
X162560000Y-111760000D03*
X165100000Y-111760000D03*
X162560000Y-114300000D03*
X165100000Y-114300000D03*
X162560000Y-116840000D03*
X165100000Y-116840000D03*
X162560000Y-119380000D03*
X165100000Y-119380000D03*
X162560000Y-121920000D03*
X165100000Y-121920000D03*
X162560000Y-124460000D03*
X165100000Y-124460000D03*
X162560000Y-127000000D03*
X165100000Y-127000000D03*
D20*
X121900000Y-84550000D03*
X121900000Y-83050000D03*
X145300000Y-69300000D03*
X145300000Y-70800000D03*
X121400000Y-69300000D03*
X121400000Y-70800000D03*
X126000000Y-87550000D03*
X126000000Y-89050000D03*
X126500000Y-82950000D03*
X126500000Y-81450000D03*
X121100000Y-76000000D03*
X121100000Y-77500000D03*
X121100000Y-80500000D03*
X121100000Y-79000000D03*
D21*
X142450000Y-69300000D03*
X143950000Y-69300000D03*
X141150000Y-69300000D03*
X139650000Y-69300000D03*
X136850000Y-69300000D03*
X138350000Y-69300000D03*
X135550000Y-69300000D03*
X134050000Y-69300000D03*
D20*
X146900000Y-78850000D03*
X146900000Y-77350000D03*
D21*
X124250000Y-69300000D03*
X122750000Y-69300000D03*
X125550000Y-69300000D03*
X127050000Y-69300000D03*
X129850000Y-69300000D03*
X128350000Y-69300000D03*
X131150000Y-69300000D03*
X132650000Y-69300000D03*
D22*
X111400000Y-123550000D03*
X109800000Y-123550000D03*
X111400000Y-126350000D03*
X109800000Y-126350000D03*
D23*
X114350000Y-123550000D03*
X112850000Y-123550000D03*
X114350000Y-126350000D03*
X112850000Y-126350000D03*
D24*
X120400000Y-83050000D03*
X120400000Y-84550000D03*
X140150000Y-74850000D03*
X140150000Y-73350000D03*
X138200000Y-74850000D03*
X138200000Y-73350000D03*
X136250000Y-74850000D03*
X136250000Y-73350000D03*
X134300000Y-74850000D03*
X134300000Y-73350000D03*
X125000000Y-84550000D03*
X125000000Y-83050000D03*
X126550000Y-74850000D03*
X126550000Y-73350000D03*
X128500000Y-74850000D03*
X128500000Y-73350000D03*
X130450000Y-74850000D03*
X130450000Y-73350000D03*
X132400000Y-74850000D03*
X132400000Y-73350000D03*
X150500000Y-77450000D03*
X150500000Y-78950000D03*
X152200000Y-77450000D03*
X152200000Y-78950000D03*
X123400000Y-84550000D03*
X123400000Y-83050000D03*
D25*
X128900000Y-80700000D03*
X128900000Y-81200000D03*
X128900000Y-81700000D03*
X128900000Y-82200000D03*
X128900000Y-82700000D03*
X128900000Y-83200000D03*
X128900000Y-83700000D03*
X128900000Y-84200000D03*
X128900000Y-84700000D03*
X128900000Y-85200000D03*
X128900000Y-85700000D03*
X128900000Y-86200000D03*
X128900000Y-86700000D03*
X128900000Y-87200000D03*
X128900000Y-87700000D03*
X128900000Y-88200000D03*
D26*
X129600000Y-88900000D03*
X130100000Y-88900000D03*
X130600000Y-88900000D03*
X131100000Y-88900000D03*
X131600000Y-88900000D03*
X132100000Y-88900000D03*
X132600000Y-88900000D03*
X133100000Y-88900000D03*
X133600000Y-88900000D03*
X134100000Y-88900000D03*
X134600000Y-88900000D03*
X135100000Y-88900000D03*
X135600000Y-88900000D03*
X136100000Y-88900000D03*
X136600000Y-88900000D03*
X137100000Y-88900000D03*
D25*
X137800000Y-88200000D03*
X137800000Y-87700000D03*
X137800000Y-87200000D03*
X137800000Y-86700000D03*
X137800000Y-86200000D03*
X137800000Y-85700000D03*
X137800000Y-85200000D03*
X137800000Y-84700000D03*
X137800000Y-84200000D03*
X137800000Y-83700000D03*
X137800000Y-83200000D03*
X137800000Y-82700000D03*
X137800000Y-82200000D03*
X137800000Y-81700000D03*
X137800000Y-81200000D03*
X137800000Y-80700000D03*
D26*
X137100000Y-80000000D03*
X136600000Y-80000000D03*
X136100000Y-80000000D03*
X135600000Y-80000000D03*
X135100000Y-80000000D03*
X134600000Y-80000000D03*
X134100000Y-80000000D03*
X133600000Y-80000000D03*
X133100000Y-80000000D03*
X132600000Y-80000000D03*
X132100000Y-80000000D03*
X131600000Y-80000000D03*
X131100000Y-80000000D03*
X130600000Y-80000000D03*
X130100000Y-80000000D03*
X129600000Y-80000000D03*
D27*
X136106250Y-87206250D03*
X136106250Y-85368750D03*
X136106250Y-83531250D03*
X136106250Y-81693750D03*
X134268750Y-87206250D03*
X134268750Y-85368750D03*
X134268750Y-83531250D03*
X134268750Y-81693750D03*
X132431250Y-87206250D03*
X132431250Y-85368750D03*
X132431250Y-83531250D03*
X132431250Y-81693750D03*
X130593750Y-87206250D03*
X130593750Y-85368750D03*
X130593750Y-83531250D03*
X130593750Y-81693750D03*
D28*
X122750000Y-77150000D03*
X122750000Y-79350000D03*
X124450000Y-79350000D03*
X124450000Y-77150000D03*
D15*
X149860000Y-57150000D03*
X138430000Y-57150000D03*
D16*
X139700000Y-66040000D03*
X140970000Y-63500000D03*
X142240000Y-66040000D03*
X143510000Y-63500000D03*
X144780000Y-66040000D03*
X146050000Y-63500000D03*
X147320000Y-66040000D03*
D17*
X136271000Y-60198000D03*
D18*
X137820400Y-53771800D03*
X147929600Y-53771800D03*
X140360400Y-52247800D03*
X150469600Y-52247800D03*
D19*
X148590000Y-63500000D03*
D17*
X152019000Y-60198000D03*
D22*
X122720000Y-104755000D03*
X121120000Y-104755000D03*
X122720000Y-107315000D03*
X121120000Y-107315000D03*
X122720000Y-109855000D03*
X121120000Y-109855000D03*
X122720000Y-112395000D03*
X121120000Y-112395000D03*
X122720000Y-114935000D03*
X121120000Y-114935000D03*
X122720000Y-117475000D03*
X121120000Y-117475000D03*
X122720000Y-120015000D03*
X121120000Y-120015000D03*
X122720000Y-122555000D03*
X121120000Y-122555000D03*
X143980000Y-104775000D03*
X145580000Y-104775000D03*
X143980000Y-107315000D03*
X145580000Y-107315000D03*
X143980000Y-109855000D03*
X145580000Y-109855000D03*
X143980000Y-112395000D03*
X145580000Y-112395000D03*
X143980000Y-114935000D03*
X145580000Y-114935000D03*
X143980000Y-117475000D03*
X145580000Y-117475000D03*
X143980000Y-120015000D03*
X145580000Y-120015000D03*
X143980000Y-122555000D03*
X145580000Y-122555000D03*
D29*
X109500000Y-81230000D03*
X109500000Y-82500000D03*
X109500000Y-83770000D03*
D30*
X134700000Y-127800000D03*
X134700000Y-129800000D03*
X132100000Y-127800000D03*
X132100000Y-129800000D03*
D10*
G36*
X109485445Y-89118719D02*
X108318719Y-90285445D01*
X107328769Y-89295495D01*
X108495495Y-88128769D01*
X109485445Y-89118719D01*
X109485445Y-89118719D01*
G37*
G36*
X108071231Y-87704505D02*
X106904505Y-88871231D01*
X105914555Y-87881281D01*
X107081281Y-86714555D01*
X108071231Y-87704505D01*
X108071231Y-87704505D01*
G37*
D23*
X157550000Y-71200000D03*
X156050000Y-71200000D03*
M02*
