G04 #@! TF.FileFunction,Soldermask,Bot*
%FSLAX46Y46*%
G04 Gerber Fmt 4.6, Leading zero omitted, Abs format (unit mm)*
G04 Created by KiCad (PCBNEW 4.0.6) date 04/07/17 01:25:25*
%MOMM*%
%LPD*%
G01*
G04 APERTURE LIST*
%ADD10C,0.100000*%
%ADD11R,2.000000X2.800000*%
%ADD12O,2.000000X2.800000*%
%ADD13R,2.100000X2.100000*%
%ADD14O,2.100000X2.100000*%
%ADD15R,1.150000X1.200000*%
%ADD16R,1.200000X1.150000*%
%ADD17C,4.200000*%
%ADD18C,1.800000*%
%ADD19C,2.400000*%
%ADD20C,1.900000*%
%ADD21R,1.800000X1.800000*%
%ADD22R,1.300000X0.900000*%
%ADD23R,0.900000X1.300000*%
%ADD24R,1.670000X1.370000*%
%ADD25R,1.370000X1.670000*%
%ADD26R,2.900000X1.300000*%
%ADD27R,1.650000X1.400000*%
G04 APERTURE END LIST*
D10*
D11*
X146920000Y-88920000D03*
D12*
X154540000Y-81300000D03*
X149460000Y-88920000D03*
X152000000Y-81300000D03*
X152000000Y-88920000D03*
X149460000Y-81300000D03*
X154540000Y-88920000D03*
X146920000Y-81300000D03*
D13*
X132080000Y-125095000D03*
D14*
X134620000Y-125095000D03*
X132080000Y-122555000D03*
X134620000Y-122555000D03*
X132080000Y-120015000D03*
X134620000Y-120015000D03*
X132080000Y-117475000D03*
X134620000Y-117475000D03*
X132080000Y-114935000D03*
X134620000Y-114935000D03*
X132080000Y-112395000D03*
X134620000Y-112395000D03*
X132080000Y-109855000D03*
X134620000Y-109855000D03*
X132080000Y-107315000D03*
X134620000Y-107315000D03*
X132080000Y-104775000D03*
X134620000Y-104775000D03*
X132080000Y-102235000D03*
X134620000Y-102235000D03*
D15*
X138000000Y-89650000D03*
X138000000Y-88150000D03*
D16*
X138850000Y-81400000D03*
X137350000Y-81400000D03*
D15*
X130750000Y-76500000D03*
X130750000Y-78000000D03*
D17*
X128270000Y-57150000D03*
X116840000Y-57150000D03*
D18*
X118110000Y-66040000D03*
X119380000Y-63500000D03*
X120650000Y-66040000D03*
X121920000Y-63500000D03*
X123190000Y-66040000D03*
X124460000Y-63500000D03*
X125730000Y-66040000D03*
D19*
X114681000Y-60198000D03*
D20*
X116230400Y-53771800D03*
X126339600Y-53771800D03*
X118770400Y-52247800D03*
X128879600Y-52247800D03*
D21*
X127000000Y-63500000D03*
D19*
X130429000Y-60198000D03*
D13*
X101600000Y-81280000D03*
D14*
X104140000Y-81280000D03*
X101600000Y-83820000D03*
X104140000Y-83820000D03*
X101600000Y-86360000D03*
X104140000Y-86360000D03*
X101600000Y-88900000D03*
X104140000Y-88900000D03*
X101600000Y-91440000D03*
X104140000Y-91440000D03*
X101600000Y-93980000D03*
X104140000Y-93980000D03*
X101600000Y-96520000D03*
X104140000Y-96520000D03*
X101600000Y-99060000D03*
X104140000Y-99060000D03*
X101600000Y-101600000D03*
X104140000Y-101600000D03*
X101600000Y-104140000D03*
X104140000Y-104140000D03*
X101600000Y-106680000D03*
X104140000Y-106680000D03*
X101600000Y-109220000D03*
X104140000Y-109220000D03*
X101600000Y-111760000D03*
X104140000Y-111760000D03*
X101600000Y-114300000D03*
X104140000Y-114300000D03*
X101600000Y-116840000D03*
X104140000Y-116840000D03*
X101600000Y-119380000D03*
X104140000Y-119380000D03*
X101600000Y-121920000D03*
X104140000Y-121920000D03*
X101600000Y-124460000D03*
X104140000Y-124460000D03*
X101600000Y-127000000D03*
X104140000Y-127000000D03*
D13*
X162560000Y-81280000D03*
D14*
X165100000Y-81280000D03*
X162560000Y-83820000D03*
X165100000Y-83820000D03*
X162560000Y-86360000D03*
X165100000Y-86360000D03*
X162560000Y-88900000D03*
X165100000Y-88900000D03*
X162560000Y-91440000D03*
X165100000Y-91440000D03*
X162560000Y-93980000D03*
X165100000Y-93980000D03*
X162560000Y-96520000D03*
X165100000Y-96520000D03*
X162560000Y-99060000D03*
X165100000Y-99060000D03*
X162560000Y-101600000D03*
X165100000Y-101600000D03*
X162560000Y-104140000D03*
X165100000Y-104140000D03*
X162560000Y-106680000D03*
X165100000Y-106680000D03*
X162560000Y-109220000D03*
X165100000Y-109220000D03*
X162560000Y-111760000D03*
X165100000Y-111760000D03*
X162560000Y-114300000D03*
X165100000Y-114300000D03*
X162560000Y-116840000D03*
X165100000Y-116840000D03*
X162560000Y-119380000D03*
X165100000Y-119380000D03*
X162560000Y-121920000D03*
X165100000Y-121920000D03*
X162560000Y-124460000D03*
X165100000Y-124460000D03*
X162560000Y-127000000D03*
X165100000Y-127000000D03*
D15*
X143300000Y-73250000D03*
X143300000Y-71750000D03*
D16*
X138850000Y-86650000D03*
X137350000Y-86650000D03*
D15*
X131100000Y-90150000D03*
X131100000Y-88650000D03*
X123400000Y-73250000D03*
X123400000Y-71750000D03*
X129900000Y-82950000D03*
X129900000Y-81450000D03*
X132600000Y-90150000D03*
X132600000Y-88650000D03*
X128500000Y-82950000D03*
X128500000Y-81450000D03*
D16*
X138850000Y-85250000D03*
X137350000Y-85250000D03*
D15*
X133600000Y-80050000D03*
X133600000Y-81550000D03*
X132150000Y-78000000D03*
X132150000Y-76500000D03*
X132100000Y-80050000D03*
X132100000Y-81550000D03*
X141900000Y-74850000D03*
X141900000Y-73350000D03*
X124800000Y-74850000D03*
X124800000Y-73350000D03*
X135050000Y-76500000D03*
X135050000Y-78000000D03*
D22*
X145300000Y-69350000D03*
X145300000Y-70850000D03*
D23*
X153750000Y-52250000D03*
X152250000Y-52250000D03*
D22*
X121400000Y-70850000D03*
X121400000Y-69350000D03*
D23*
X132250000Y-52250000D03*
X130750000Y-52250000D03*
D22*
X133600000Y-78000000D03*
X133600000Y-76500000D03*
D23*
X127350000Y-84400000D03*
X128850000Y-84400000D03*
X143650000Y-52200000D03*
X142150000Y-52200000D03*
X122000000Y-52200000D03*
X120500000Y-52200000D03*
D17*
X149860000Y-57150000D03*
X138430000Y-57150000D03*
D18*
X139700000Y-66040000D03*
X140970000Y-63500000D03*
X142240000Y-66040000D03*
X143510000Y-63500000D03*
X144780000Y-66040000D03*
X146050000Y-63500000D03*
X147320000Y-66040000D03*
D19*
X136271000Y-60198000D03*
D20*
X137820400Y-53771800D03*
X147929600Y-53771800D03*
X140360400Y-52247800D03*
X150469600Y-52247800D03*
D21*
X148590000Y-63500000D03*
D19*
X152019000Y-60198000D03*
D24*
X159000000Y-100430000D03*
X159000000Y-101700000D03*
X159000000Y-102970000D03*
X159000000Y-107830000D03*
X159000000Y-109100000D03*
X159000000Y-110370000D03*
D25*
X153270000Y-94700000D03*
X152000000Y-94700000D03*
X150730000Y-94700000D03*
X146760000Y-94300000D03*
X148040000Y-94300000D03*
X146820000Y-96700000D03*
X148100000Y-96700000D03*
D23*
X125615000Y-104775000D03*
X127115000Y-104775000D03*
X125615000Y-107315000D03*
X127115000Y-107315000D03*
X125500000Y-109855000D03*
X127000000Y-109855000D03*
X125615000Y-112395000D03*
X127115000Y-112395000D03*
X125615000Y-114935000D03*
X127115000Y-114935000D03*
X125615000Y-117475000D03*
X127115000Y-117475000D03*
X125500000Y-120015000D03*
X127000000Y-120015000D03*
X125615000Y-122555000D03*
X127115000Y-122555000D03*
X142228000Y-104775000D03*
X140728000Y-104775000D03*
X142216000Y-107315000D03*
X140716000Y-107315000D03*
X142228000Y-109855000D03*
X140728000Y-109855000D03*
X142216000Y-112395000D03*
X140716000Y-112395000D03*
X142228000Y-114935000D03*
X140728000Y-114935000D03*
X142228000Y-117475000D03*
X140728000Y-117475000D03*
X142228000Y-120015000D03*
X140728000Y-120015000D03*
X142228000Y-122555000D03*
X140728000Y-122555000D03*
D26*
X151900000Y-65350000D03*
X151900000Y-68250000D03*
X114800000Y-65350000D03*
X114800000Y-68250000D03*
D27*
X119800000Y-74400000D03*
X119800000Y-72400000D03*
D22*
X157600000Y-67450000D03*
X157600000Y-65950000D03*
X155000000Y-67450000D03*
X155000000Y-65950000D03*
D23*
X152450000Y-86600000D03*
X153950000Y-86600000D03*
M02*
