G04 #@! TF.FileFunction,Legend,Top*
%FSLAX46Y46*%
G04 Gerber Fmt 4.6, Leading zero omitted, Abs format (unit mm)*
G04 Created by KiCad (PCBNEW 4.0.6) date 04/07/17 00:55:34*
%MOMM*%
%LPD*%
G01*
G04 APERTURE LIST*
%ADD10C,0.100000*%
%ADD11C,0.300000*%
%ADD12C,0.200000*%
%ADD13C,0.150000*%
%ADD14C,0.400000*%
%ADD15C,0.120000*%
%ADD16C,0.010000*%
G04 APERTURE END LIST*
D10*
D11*
X147057143Y-85092857D02*
X147557143Y-85092857D01*
X147771429Y-85878571D02*
X147057143Y-85878571D01*
X147057143Y-84378571D01*
X147771429Y-84378571D01*
X148414286Y-85092857D02*
X148914286Y-85092857D01*
X149128572Y-85878571D02*
X148414286Y-85878571D01*
X148414286Y-84378571D01*
X149128572Y-84378571D01*
X149771429Y-85878571D02*
X149771429Y-84378571D01*
X150342857Y-84378571D01*
X150485715Y-84450000D01*
X150557143Y-84521429D01*
X150628572Y-84664286D01*
X150628572Y-84878571D01*
X150557143Y-85021429D01*
X150485715Y-85092857D01*
X150342857Y-85164286D01*
X149771429Y-85164286D01*
X152128572Y-85878571D02*
X151628572Y-85164286D01*
X151271429Y-85878571D02*
X151271429Y-84378571D01*
X151842857Y-84378571D01*
X151985715Y-84450000D01*
X152057143Y-84521429D01*
X152128572Y-84664286D01*
X152128572Y-84878571D01*
X152057143Y-85021429D01*
X151985715Y-85092857D01*
X151842857Y-85164286D01*
X151271429Y-85164286D01*
X153057143Y-84378571D02*
X153342857Y-84378571D01*
X153485715Y-84450000D01*
X153628572Y-84592857D01*
X153700000Y-84878571D01*
X153700000Y-85378571D01*
X153628572Y-85664286D01*
X153485715Y-85807143D01*
X153342857Y-85878571D01*
X153057143Y-85878571D01*
X152914286Y-85807143D01*
X152771429Y-85664286D01*
X152700000Y-85378571D01*
X152700000Y-84878571D01*
X152771429Y-84592857D01*
X152914286Y-84450000D01*
X153057143Y-84378571D01*
X154342858Y-85878571D02*
X154342858Y-84378571D01*
X154842858Y-85450000D01*
X155342858Y-84378571D01*
X155342858Y-85878571D01*
D12*
X111457143Y-84342857D02*
X110885714Y-84342857D01*
X110885714Y-83142857D01*
X112371429Y-83542857D02*
X112371429Y-84342857D01*
X112085715Y-83085714D02*
X111800000Y-83942857D01*
X112542858Y-83942857D01*
X112885715Y-83142857D02*
X113685715Y-83142857D01*
X113171429Y-84342857D01*
X114657143Y-83142857D02*
X114428572Y-83142857D01*
X114314286Y-83200000D01*
X114257143Y-83257143D01*
X114142857Y-83428571D01*
X114085714Y-83657143D01*
X114085714Y-84114286D01*
X114142857Y-84228571D01*
X114200000Y-84285714D01*
X114314286Y-84342857D01*
X114542857Y-84342857D01*
X114657143Y-84285714D01*
X114714286Y-84228571D01*
X114771429Y-84114286D01*
X114771429Y-83828571D01*
X114714286Y-83714286D01*
X114657143Y-83657143D01*
X114542857Y-83600000D01*
X114314286Y-83600000D01*
X114200000Y-83657143D01*
X114142857Y-83714286D01*
X114085714Y-83828571D01*
X111257143Y-81114286D02*
X110857143Y-81114286D01*
X110857143Y-81742857D02*
X110857143Y-80542857D01*
X111428572Y-80542857D01*
X112400000Y-80942857D02*
X112400000Y-81742857D01*
X112114286Y-80485714D02*
X111828571Y-81342857D01*
X112571429Y-81342857D01*
X113542857Y-80942857D02*
X113542857Y-81742857D01*
X113257143Y-80485714D02*
X112971428Y-81342857D01*
X113714286Y-81342857D01*
X114685714Y-80542857D02*
X114457143Y-80542857D01*
X114342857Y-80600000D01*
X114285714Y-80657143D01*
X114171428Y-80828571D01*
X114114285Y-81057143D01*
X114114285Y-81514286D01*
X114171428Y-81628571D01*
X114228571Y-81685714D01*
X114342857Y-81742857D01*
X114571428Y-81742857D01*
X114685714Y-81685714D01*
X114742857Y-81628571D01*
X114800000Y-81514286D01*
X114800000Y-81228571D01*
X114742857Y-81114286D01*
X114685714Y-81057143D01*
X114571428Y-81000000D01*
X114342857Y-81000000D01*
X114228571Y-81057143D01*
X114171428Y-81114286D01*
X114114285Y-81228571D01*
D11*
X109878571Y-116921428D02*
X108378571Y-116921428D01*
X109878571Y-116064285D01*
X108378571Y-116064285D01*
X108878571Y-114707142D02*
X109878571Y-114707142D01*
X108878571Y-115349999D02*
X109664286Y-115349999D01*
X109807143Y-115278571D01*
X109878571Y-115135713D01*
X109878571Y-114921428D01*
X109807143Y-114778571D01*
X109735714Y-114707142D01*
X109807143Y-113349999D02*
X109878571Y-113492856D01*
X109878571Y-113778570D01*
X109807143Y-113921428D01*
X109735714Y-113992856D01*
X109592857Y-114064285D01*
X109164286Y-114064285D01*
X109021429Y-113992856D01*
X108950000Y-113921428D01*
X108878571Y-113778570D01*
X108878571Y-113492856D01*
X108950000Y-113349999D01*
X109878571Y-112492856D02*
X109807143Y-112635714D01*
X109664286Y-112707142D01*
X108378571Y-112707142D01*
X109807143Y-111350000D02*
X109878571Y-111492857D01*
X109878571Y-111778571D01*
X109807143Y-111921428D01*
X109664286Y-111992857D01*
X109092857Y-111992857D01*
X108950000Y-111921428D01*
X108878571Y-111778571D01*
X108878571Y-111492857D01*
X108950000Y-111350000D01*
X109092857Y-111278571D01*
X109235714Y-111278571D01*
X109378571Y-111992857D01*
X109878571Y-110421428D02*
X109807143Y-110564286D01*
X109735714Y-110635714D01*
X109592857Y-110707143D01*
X109164286Y-110707143D01*
X109021429Y-110635714D01*
X108950000Y-110564286D01*
X108878571Y-110421428D01*
X108878571Y-110207143D01*
X108950000Y-110064286D01*
X109021429Y-109992857D01*
X109164286Y-109921428D01*
X109592857Y-109921428D01*
X109735714Y-109992857D01*
X109807143Y-110064286D01*
X109878571Y-110207143D01*
X109878571Y-110421428D01*
X109307143Y-109278571D02*
X109307143Y-108135714D01*
X108378571Y-106778571D02*
X108378571Y-107064285D01*
X108450000Y-107207142D01*
X108521429Y-107278571D01*
X108735714Y-107421428D01*
X109021429Y-107492857D01*
X109592857Y-107492857D01*
X109735714Y-107421428D01*
X109807143Y-107350000D01*
X109878571Y-107207142D01*
X109878571Y-106921428D01*
X109807143Y-106778571D01*
X109735714Y-106707142D01*
X109592857Y-106635714D01*
X109235714Y-106635714D01*
X109092857Y-106707142D01*
X109021429Y-106778571D01*
X108950000Y-106921428D01*
X108950000Y-107207142D01*
X109021429Y-107350000D01*
X109092857Y-107421428D01*
X109235714Y-107492857D01*
X108878571Y-105350000D02*
X109878571Y-105350000D01*
X108307143Y-105707143D02*
X109378571Y-106064286D01*
X109378571Y-105135714D01*
X115164286Y-116035714D02*
X115092857Y-116107142D01*
X115021429Y-116249999D01*
X115021429Y-116392857D01*
X115092857Y-116535714D01*
X115164286Y-116607142D01*
X115307143Y-116678571D01*
X115450000Y-116678571D01*
X115592857Y-116607142D01*
X115664286Y-116535714D01*
X115735714Y-116392857D01*
X115735714Y-116249999D01*
X115664286Y-116107142D01*
X115592857Y-116035714D01*
X115021429Y-116035714D02*
X115592857Y-116035714D01*
X115664286Y-115964285D01*
X115664286Y-115892857D01*
X115592857Y-115749999D01*
X115450000Y-115678571D01*
X115092857Y-115678571D01*
X114878571Y-115821428D01*
X114735714Y-116035714D01*
X114664286Y-116321428D01*
X114735714Y-116607142D01*
X114878571Y-116821428D01*
X115092857Y-116964285D01*
X115378571Y-117035714D01*
X115664286Y-116964285D01*
X115878571Y-116821428D01*
X116021429Y-116607142D01*
X116092857Y-116321428D01*
X116021429Y-116035714D01*
X115878571Y-115821428D01*
X114878571Y-115178571D02*
X115878571Y-114821428D01*
X114878571Y-114464286D02*
X115878571Y-114821428D01*
X116235714Y-114964286D01*
X116307143Y-115035714D01*
X116378571Y-115178571D01*
X114878571Y-113250000D02*
X115878571Y-113250000D01*
X114878571Y-113892857D02*
X115664286Y-113892857D01*
X115807143Y-113821429D01*
X115878571Y-113678571D01*
X115878571Y-113464286D01*
X115807143Y-113321429D01*
X115735714Y-113250000D01*
X114878571Y-111892857D02*
X116378571Y-111892857D01*
X115807143Y-111892857D02*
X115878571Y-112035714D01*
X115878571Y-112321428D01*
X115807143Y-112464286D01*
X115735714Y-112535714D01*
X115592857Y-112607143D01*
X115164286Y-112607143D01*
X115021429Y-112535714D01*
X114950000Y-112464286D01*
X114878571Y-112321428D01*
X114878571Y-112035714D01*
X114950000Y-111892857D01*
X115878571Y-110964285D02*
X115807143Y-111107143D01*
X115664286Y-111178571D01*
X114378571Y-111178571D01*
X115878571Y-110392857D02*
X114878571Y-110392857D01*
X114378571Y-110392857D02*
X114450000Y-110464286D01*
X114521429Y-110392857D01*
X114450000Y-110321429D01*
X114378571Y-110392857D01*
X114521429Y-110392857D01*
X115878571Y-109035714D02*
X114378571Y-109035714D01*
X115807143Y-109035714D02*
X115878571Y-109178571D01*
X115878571Y-109464285D01*
X115807143Y-109607143D01*
X115735714Y-109678571D01*
X115592857Y-109750000D01*
X115164286Y-109750000D01*
X115021429Y-109678571D01*
X114950000Y-109607143D01*
X114878571Y-109464285D01*
X114878571Y-109178571D01*
X114950000Y-109035714D01*
X112092857Y-116957141D02*
X112092857Y-116457141D01*
X112878571Y-116242855D02*
X112878571Y-116957141D01*
X111378571Y-116957141D01*
X111378571Y-116242855D01*
X111878571Y-115814284D02*
X111878571Y-115242855D01*
X111378571Y-115599998D02*
X112664286Y-115599998D01*
X112807143Y-115528570D01*
X112878571Y-115385712D01*
X112878571Y-115242855D01*
X112878571Y-114742855D02*
X111378571Y-114742855D01*
X112878571Y-114099998D02*
X112092857Y-114099998D01*
X111950000Y-114171427D01*
X111878571Y-114314284D01*
X111878571Y-114528569D01*
X111950000Y-114671427D01*
X112021429Y-114742855D01*
X112807143Y-112814284D02*
X112878571Y-112957141D01*
X112878571Y-113242855D01*
X112807143Y-113385712D01*
X112664286Y-113457141D01*
X112092857Y-113457141D01*
X111950000Y-113385712D01*
X111878571Y-113242855D01*
X111878571Y-112957141D01*
X111950000Y-112814284D01*
X112092857Y-112742855D01*
X112235714Y-112742855D01*
X112378571Y-113457141D01*
X112878571Y-112099998D02*
X111878571Y-112099998D01*
X112164286Y-112099998D02*
X112021429Y-112028570D01*
X111950000Y-111957141D01*
X111878571Y-111814284D01*
X111878571Y-111671427D01*
X112735714Y-110314284D02*
X112807143Y-110385713D01*
X112878571Y-110599999D01*
X112878571Y-110742856D01*
X112807143Y-110957141D01*
X112664286Y-111099999D01*
X112521429Y-111171427D01*
X112235714Y-111242856D01*
X112021429Y-111242856D01*
X111735714Y-111171427D01*
X111592857Y-111099999D01*
X111450000Y-110957141D01*
X111378571Y-110742856D01*
X111378571Y-110599999D01*
X111450000Y-110385713D01*
X111521429Y-110314284D01*
X112450000Y-109742856D02*
X112450000Y-109028570D01*
X112878571Y-109885713D02*
X111378571Y-109385713D01*
X112878571Y-108885713D01*
X111378571Y-108599999D02*
X111378571Y-107742856D01*
X112878571Y-108171427D02*
X111378571Y-108171427D01*
X113021429Y-107599999D02*
X113021429Y-106457142D01*
X112092857Y-105599999D02*
X112164286Y-105385713D01*
X112235714Y-105314285D01*
X112378571Y-105242856D01*
X112592857Y-105242856D01*
X112735714Y-105314285D01*
X112807143Y-105385713D01*
X112878571Y-105528571D01*
X112878571Y-106099999D01*
X111378571Y-106099999D01*
X111378571Y-105599999D01*
X111450000Y-105457142D01*
X111521429Y-105385713D01*
X111664286Y-105314285D01*
X111807143Y-105314285D01*
X111950000Y-105385713D01*
X112021429Y-105457142D01*
X112092857Y-105599999D01*
X112092857Y-106099999D01*
X112878571Y-104385713D02*
X112807143Y-104528571D01*
X112735714Y-104599999D01*
X112592857Y-104671428D01*
X112164286Y-104671428D01*
X112021429Y-104599999D01*
X111950000Y-104528571D01*
X111878571Y-104385713D01*
X111878571Y-104171428D01*
X111950000Y-104028571D01*
X112021429Y-103957142D01*
X112164286Y-103885713D01*
X112592857Y-103885713D01*
X112735714Y-103957142D01*
X112807143Y-104028571D01*
X112878571Y-104171428D01*
X112878571Y-104385713D01*
X112878571Y-102599999D02*
X112092857Y-102599999D01*
X111950000Y-102671428D01*
X111878571Y-102814285D01*
X111878571Y-103099999D01*
X111950000Y-103242856D01*
X112807143Y-102599999D02*
X112878571Y-102742856D01*
X112878571Y-103099999D01*
X112807143Y-103242856D01*
X112664286Y-103314285D01*
X112521429Y-103314285D01*
X112378571Y-103242856D01*
X112307143Y-103099999D01*
X112307143Y-102742856D01*
X112235714Y-102599999D01*
X112878571Y-101885713D02*
X111878571Y-101885713D01*
X112164286Y-101885713D02*
X112021429Y-101814285D01*
X111950000Y-101742856D01*
X111878571Y-101599999D01*
X111878571Y-101457142D01*
X112878571Y-100314285D02*
X111378571Y-100314285D01*
X112807143Y-100314285D02*
X112878571Y-100457142D01*
X112878571Y-100742856D01*
X112807143Y-100885714D01*
X112735714Y-100957142D01*
X112592857Y-101028571D01*
X112164286Y-101028571D01*
X112021429Y-100957142D01*
X111950000Y-100885714D01*
X111878571Y-100742856D01*
X111878571Y-100457142D01*
X111950000Y-100314285D01*
X111878571Y-98599999D02*
X112878571Y-98242856D01*
X111878571Y-97885714D01*
X112807143Y-96742857D02*
X112878571Y-96885714D01*
X112878571Y-97171428D01*
X112807143Y-97314285D01*
X112664286Y-97385714D01*
X112092857Y-97385714D01*
X111950000Y-97314285D01*
X111878571Y-97171428D01*
X111878571Y-96885714D01*
X111950000Y-96742857D01*
X112092857Y-96671428D01*
X112235714Y-96671428D01*
X112378571Y-97385714D01*
X112878571Y-96028571D02*
X111878571Y-96028571D01*
X112164286Y-96028571D02*
X112021429Y-95957143D01*
X111950000Y-95885714D01*
X111878571Y-95742857D01*
X111878571Y-95600000D01*
X112878571Y-94314286D02*
X112878571Y-95171429D01*
X112878571Y-94742857D02*
X111378571Y-94742857D01*
X111592857Y-94885714D01*
X111735714Y-95028572D01*
X111807143Y-95171429D01*
X112735714Y-93671429D02*
X112807143Y-93600001D01*
X112878571Y-93671429D01*
X112807143Y-93742858D01*
X112735714Y-93671429D01*
X112878571Y-93671429D01*
X111378571Y-92671429D02*
X111378571Y-92528572D01*
X111450000Y-92385715D01*
X111521429Y-92314286D01*
X111664286Y-92242857D01*
X111950000Y-92171429D01*
X112307143Y-92171429D01*
X112592857Y-92242857D01*
X112735714Y-92314286D01*
X112807143Y-92385715D01*
X112878571Y-92528572D01*
X112878571Y-92671429D01*
X112807143Y-92814286D01*
X112735714Y-92885715D01*
X112592857Y-92957143D01*
X112307143Y-93028572D01*
X111950000Y-93028572D01*
X111664286Y-92957143D01*
X111521429Y-92885715D01*
X111450000Y-92814286D01*
X111378571Y-92671429D01*
X109471429Y-128507143D02*
X110614286Y-128507143D01*
X110042857Y-129078571D02*
X110042857Y-127935714D01*
X112042858Y-127578571D02*
X111328572Y-127578571D01*
X111257143Y-128292857D01*
X111328572Y-128221429D01*
X111471429Y-128150000D01*
X111828572Y-128150000D01*
X111971429Y-128221429D01*
X112042858Y-128292857D01*
X112114286Y-128435714D01*
X112114286Y-128792857D01*
X112042858Y-128935714D01*
X111971429Y-129007143D01*
X111828572Y-129078571D01*
X111471429Y-129078571D01*
X111328572Y-129007143D01*
X111257143Y-128935714D01*
X112542857Y-127578571D02*
X113042857Y-129078571D01*
X113542857Y-127578571D01*
D13*
X124809524Y-125166429D02*
X125571429Y-125166429D01*
X125190477Y-125547381D02*
X125190477Y-124785476D01*
X125952381Y-124547381D02*
X126571429Y-124547381D01*
X126238095Y-124928333D01*
X126380953Y-124928333D01*
X126476191Y-124975952D01*
X126523810Y-125023571D01*
X126571429Y-125118810D01*
X126571429Y-125356905D01*
X126523810Y-125452143D01*
X126476191Y-125499762D01*
X126380953Y-125547381D01*
X126095238Y-125547381D01*
X126000000Y-125499762D01*
X125952381Y-125452143D01*
X126857143Y-124547381D02*
X127190476Y-125547381D01*
X127523810Y-124547381D01*
X127761905Y-124547381D02*
X128380953Y-124547381D01*
X128047619Y-124928333D01*
X128190477Y-124928333D01*
X128285715Y-124975952D01*
X128333334Y-125023571D01*
X128380953Y-125118810D01*
X128380953Y-125356905D01*
X128333334Y-125452143D01*
X128285715Y-125499762D01*
X128190477Y-125547381D01*
X127904762Y-125547381D01*
X127809524Y-125499762D01*
X127761905Y-125452143D01*
X128666667Y-124547381D02*
X129000000Y-125547381D01*
X129333334Y-124547381D01*
X137144286Y-125166429D02*
X137906191Y-125166429D01*
X137525239Y-125547381D02*
X137525239Y-124785476D01*
X138858572Y-124547381D02*
X138382381Y-124547381D01*
X138334762Y-125023571D01*
X138382381Y-124975952D01*
X138477619Y-124928333D01*
X138715715Y-124928333D01*
X138810953Y-124975952D01*
X138858572Y-125023571D01*
X138906191Y-125118810D01*
X138906191Y-125356905D01*
X138858572Y-125452143D01*
X138810953Y-125499762D01*
X138715715Y-125547381D01*
X138477619Y-125547381D01*
X138382381Y-125499762D01*
X138334762Y-125452143D01*
X139191905Y-124547381D02*
X139525238Y-125547381D01*
X139858572Y-124547381D01*
X125523810Y-122055000D02*
X125428572Y-122007381D01*
X125285715Y-122007381D01*
X125142857Y-122055000D01*
X125047619Y-122150238D01*
X125000000Y-122245476D01*
X124952381Y-122435952D01*
X124952381Y-122578810D01*
X125000000Y-122769286D01*
X125047619Y-122864524D01*
X125142857Y-122959762D01*
X125285715Y-123007381D01*
X125380953Y-123007381D01*
X125523810Y-122959762D01*
X125571429Y-122912143D01*
X125571429Y-122578810D01*
X125380953Y-122578810D01*
X126000000Y-123007381D02*
X126000000Y-122007381D01*
X126380953Y-122007381D01*
X126476191Y-122055000D01*
X126523810Y-122102619D01*
X126571429Y-122197857D01*
X126571429Y-122340714D01*
X126523810Y-122435952D01*
X126476191Y-122483571D01*
X126380953Y-122531190D01*
X126000000Y-122531190D01*
X127000000Y-123007381D02*
X127000000Y-122007381D01*
X127666666Y-122007381D02*
X127857143Y-122007381D01*
X127952381Y-122055000D01*
X128047619Y-122150238D01*
X128095238Y-122340714D01*
X128095238Y-122674048D01*
X128047619Y-122864524D01*
X127952381Y-122959762D01*
X127857143Y-123007381D01*
X127666666Y-123007381D01*
X127571428Y-122959762D01*
X127476190Y-122864524D01*
X127428571Y-122674048D01*
X127428571Y-122340714D01*
X127476190Y-122150238D01*
X127571428Y-122055000D01*
X127666666Y-122007381D01*
X128428571Y-122007381D02*
X129095238Y-122007381D01*
X128666666Y-123007381D01*
X125523810Y-119515000D02*
X125428572Y-119467381D01*
X125285715Y-119467381D01*
X125142857Y-119515000D01*
X125047619Y-119610238D01*
X125000000Y-119705476D01*
X124952381Y-119895952D01*
X124952381Y-120038810D01*
X125000000Y-120229286D01*
X125047619Y-120324524D01*
X125142857Y-120419762D01*
X125285715Y-120467381D01*
X125380953Y-120467381D01*
X125523810Y-120419762D01*
X125571429Y-120372143D01*
X125571429Y-120038810D01*
X125380953Y-120038810D01*
X126000000Y-120467381D02*
X126000000Y-119467381D01*
X126380953Y-119467381D01*
X126476191Y-119515000D01*
X126523810Y-119562619D01*
X126571429Y-119657857D01*
X126571429Y-119800714D01*
X126523810Y-119895952D01*
X126476191Y-119943571D01*
X126380953Y-119991190D01*
X126000000Y-119991190D01*
X127000000Y-120467381D02*
X127000000Y-119467381D01*
X127666666Y-119467381D02*
X127857143Y-119467381D01*
X127952381Y-119515000D01*
X128047619Y-119610238D01*
X128095238Y-119800714D01*
X128095238Y-120134048D01*
X128047619Y-120324524D01*
X127952381Y-120419762D01*
X127857143Y-120467381D01*
X127666666Y-120467381D01*
X127571428Y-120419762D01*
X127476190Y-120324524D01*
X127428571Y-120134048D01*
X127428571Y-119800714D01*
X127476190Y-119610238D01*
X127571428Y-119515000D01*
X127666666Y-119467381D01*
X128952381Y-119467381D02*
X128761904Y-119467381D01*
X128666666Y-119515000D01*
X128619047Y-119562619D01*
X128523809Y-119705476D01*
X128476190Y-119895952D01*
X128476190Y-120276905D01*
X128523809Y-120372143D01*
X128571428Y-120419762D01*
X128666666Y-120467381D01*
X128857143Y-120467381D01*
X128952381Y-120419762D01*
X129000000Y-120372143D01*
X129047619Y-120276905D01*
X129047619Y-120038810D01*
X129000000Y-119943571D01*
X128952381Y-119895952D01*
X128857143Y-119848333D01*
X128666666Y-119848333D01*
X128571428Y-119895952D01*
X128523809Y-119943571D01*
X128476190Y-120038810D01*
X125523810Y-116975000D02*
X125428572Y-116927381D01*
X125285715Y-116927381D01*
X125142857Y-116975000D01*
X125047619Y-117070238D01*
X125000000Y-117165476D01*
X124952381Y-117355952D01*
X124952381Y-117498810D01*
X125000000Y-117689286D01*
X125047619Y-117784524D01*
X125142857Y-117879762D01*
X125285715Y-117927381D01*
X125380953Y-117927381D01*
X125523810Y-117879762D01*
X125571429Y-117832143D01*
X125571429Y-117498810D01*
X125380953Y-117498810D01*
X126000000Y-117927381D02*
X126000000Y-116927381D01*
X126380953Y-116927381D01*
X126476191Y-116975000D01*
X126523810Y-117022619D01*
X126571429Y-117117857D01*
X126571429Y-117260714D01*
X126523810Y-117355952D01*
X126476191Y-117403571D01*
X126380953Y-117451190D01*
X126000000Y-117451190D01*
X127000000Y-117927381D02*
X127000000Y-116927381D01*
X127666666Y-116927381D02*
X127857143Y-116927381D01*
X127952381Y-116975000D01*
X128047619Y-117070238D01*
X128095238Y-117260714D01*
X128095238Y-117594048D01*
X128047619Y-117784524D01*
X127952381Y-117879762D01*
X127857143Y-117927381D01*
X127666666Y-117927381D01*
X127571428Y-117879762D01*
X127476190Y-117784524D01*
X127428571Y-117594048D01*
X127428571Y-117260714D01*
X127476190Y-117070238D01*
X127571428Y-116975000D01*
X127666666Y-116927381D01*
X129000000Y-116927381D02*
X128523809Y-116927381D01*
X128476190Y-117403571D01*
X128523809Y-117355952D01*
X128619047Y-117308333D01*
X128857143Y-117308333D01*
X128952381Y-117355952D01*
X129000000Y-117403571D01*
X129047619Y-117498810D01*
X129047619Y-117736905D01*
X129000000Y-117832143D01*
X128952381Y-117879762D01*
X128857143Y-117927381D01*
X128619047Y-117927381D01*
X128523809Y-117879762D01*
X128476190Y-117832143D01*
X125523810Y-114435000D02*
X125428572Y-114387381D01*
X125285715Y-114387381D01*
X125142857Y-114435000D01*
X125047619Y-114530238D01*
X125000000Y-114625476D01*
X124952381Y-114815952D01*
X124952381Y-114958810D01*
X125000000Y-115149286D01*
X125047619Y-115244524D01*
X125142857Y-115339762D01*
X125285715Y-115387381D01*
X125380953Y-115387381D01*
X125523810Y-115339762D01*
X125571429Y-115292143D01*
X125571429Y-114958810D01*
X125380953Y-114958810D01*
X126000000Y-115387381D02*
X126000000Y-114387381D01*
X126380953Y-114387381D01*
X126476191Y-114435000D01*
X126523810Y-114482619D01*
X126571429Y-114577857D01*
X126571429Y-114720714D01*
X126523810Y-114815952D01*
X126476191Y-114863571D01*
X126380953Y-114911190D01*
X126000000Y-114911190D01*
X127000000Y-115387381D02*
X127000000Y-114387381D01*
X127666666Y-114387381D02*
X127857143Y-114387381D01*
X127952381Y-114435000D01*
X128047619Y-114530238D01*
X128095238Y-114720714D01*
X128095238Y-115054048D01*
X128047619Y-115244524D01*
X127952381Y-115339762D01*
X127857143Y-115387381D01*
X127666666Y-115387381D01*
X127571428Y-115339762D01*
X127476190Y-115244524D01*
X127428571Y-115054048D01*
X127428571Y-114720714D01*
X127476190Y-114530238D01*
X127571428Y-114435000D01*
X127666666Y-114387381D01*
X128952381Y-114720714D02*
X128952381Y-115387381D01*
X128714285Y-114339762D02*
X128476190Y-115054048D01*
X129095238Y-115054048D01*
X125523810Y-111895000D02*
X125428572Y-111847381D01*
X125285715Y-111847381D01*
X125142857Y-111895000D01*
X125047619Y-111990238D01*
X125000000Y-112085476D01*
X124952381Y-112275952D01*
X124952381Y-112418810D01*
X125000000Y-112609286D01*
X125047619Y-112704524D01*
X125142857Y-112799762D01*
X125285715Y-112847381D01*
X125380953Y-112847381D01*
X125523810Y-112799762D01*
X125571429Y-112752143D01*
X125571429Y-112418810D01*
X125380953Y-112418810D01*
X126000000Y-112847381D02*
X126000000Y-111847381D01*
X126380953Y-111847381D01*
X126476191Y-111895000D01*
X126523810Y-111942619D01*
X126571429Y-112037857D01*
X126571429Y-112180714D01*
X126523810Y-112275952D01*
X126476191Y-112323571D01*
X126380953Y-112371190D01*
X126000000Y-112371190D01*
X127000000Y-112847381D02*
X127000000Y-111847381D01*
X127666666Y-111847381D02*
X127857143Y-111847381D01*
X127952381Y-111895000D01*
X128047619Y-111990238D01*
X128095238Y-112180714D01*
X128095238Y-112514048D01*
X128047619Y-112704524D01*
X127952381Y-112799762D01*
X127857143Y-112847381D01*
X127666666Y-112847381D01*
X127571428Y-112799762D01*
X127476190Y-112704524D01*
X127428571Y-112514048D01*
X127428571Y-112180714D01*
X127476190Y-111990238D01*
X127571428Y-111895000D01*
X127666666Y-111847381D01*
X128428571Y-111847381D02*
X129047619Y-111847381D01*
X128714285Y-112228333D01*
X128857143Y-112228333D01*
X128952381Y-112275952D01*
X129000000Y-112323571D01*
X129047619Y-112418810D01*
X129047619Y-112656905D01*
X129000000Y-112752143D01*
X128952381Y-112799762D01*
X128857143Y-112847381D01*
X128571428Y-112847381D01*
X128476190Y-112799762D01*
X128428571Y-112752143D01*
X125523810Y-109355000D02*
X125428572Y-109307381D01*
X125285715Y-109307381D01*
X125142857Y-109355000D01*
X125047619Y-109450238D01*
X125000000Y-109545476D01*
X124952381Y-109735952D01*
X124952381Y-109878810D01*
X125000000Y-110069286D01*
X125047619Y-110164524D01*
X125142857Y-110259762D01*
X125285715Y-110307381D01*
X125380953Y-110307381D01*
X125523810Y-110259762D01*
X125571429Y-110212143D01*
X125571429Y-109878810D01*
X125380953Y-109878810D01*
X126000000Y-110307381D02*
X126000000Y-109307381D01*
X126380953Y-109307381D01*
X126476191Y-109355000D01*
X126523810Y-109402619D01*
X126571429Y-109497857D01*
X126571429Y-109640714D01*
X126523810Y-109735952D01*
X126476191Y-109783571D01*
X126380953Y-109831190D01*
X126000000Y-109831190D01*
X127000000Y-110307381D02*
X127000000Y-109307381D01*
X127666666Y-109307381D02*
X127857143Y-109307381D01*
X127952381Y-109355000D01*
X128047619Y-109450238D01*
X128095238Y-109640714D01*
X128095238Y-109974048D01*
X128047619Y-110164524D01*
X127952381Y-110259762D01*
X127857143Y-110307381D01*
X127666666Y-110307381D01*
X127571428Y-110259762D01*
X127476190Y-110164524D01*
X127428571Y-109974048D01*
X127428571Y-109640714D01*
X127476190Y-109450238D01*
X127571428Y-109355000D01*
X127666666Y-109307381D01*
X128476190Y-109402619D02*
X128523809Y-109355000D01*
X128619047Y-109307381D01*
X128857143Y-109307381D01*
X128952381Y-109355000D01*
X129000000Y-109402619D01*
X129047619Y-109497857D01*
X129047619Y-109593095D01*
X129000000Y-109735952D01*
X128428571Y-110307381D01*
X129047619Y-110307381D01*
X125523810Y-106815000D02*
X125428572Y-106767381D01*
X125285715Y-106767381D01*
X125142857Y-106815000D01*
X125047619Y-106910238D01*
X125000000Y-107005476D01*
X124952381Y-107195952D01*
X124952381Y-107338810D01*
X125000000Y-107529286D01*
X125047619Y-107624524D01*
X125142857Y-107719762D01*
X125285715Y-107767381D01*
X125380953Y-107767381D01*
X125523810Y-107719762D01*
X125571429Y-107672143D01*
X125571429Y-107338810D01*
X125380953Y-107338810D01*
X126000000Y-107767381D02*
X126000000Y-106767381D01*
X126380953Y-106767381D01*
X126476191Y-106815000D01*
X126523810Y-106862619D01*
X126571429Y-106957857D01*
X126571429Y-107100714D01*
X126523810Y-107195952D01*
X126476191Y-107243571D01*
X126380953Y-107291190D01*
X126000000Y-107291190D01*
X127000000Y-107767381D02*
X127000000Y-106767381D01*
X127666666Y-106767381D02*
X127857143Y-106767381D01*
X127952381Y-106815000D01*
X128047619Y-106910238D01*
X128095238Y-107100714D01*
X128095238Y-107434048D01*
X128047619Y-107624524D01*
X127952381Y-107719762D01*
X127857143Y-107767381D01*
X127666666Y-107767381D01*
X127571428Y-107719762D01*
X127476190Y-107624524D01*
X127428571Y-107434048D01*
X127428571Y-107100714D01*
X127476190Y-106910238D01*
X127571428Y-106815000D01*
X127666666Y-106767381D01*
X129047619Y-107767381D02*
X128476190Y-107767381D01*
X128761904Y-107767381D02*
X128761904Y-106767381D01*
X128666666Y-106910238D01*
X128571428Y-107005476D01*
X128476190Y-107053095D01*
X125523810Y-104275000D02*
X125428572Y-104227381D01*
X125285715Y-104227381D01*
X125142857Y-104275000D01*
X125047619Y-104370238D01*
X125000000Y-104465476D01*
X124952381Y-104655952D01*
X124952381Y-104798810D01*
X125000000Y-104989286D01*
X125047619Y-105084524D01*
X125142857Y-105179762D01*
X125285715Y-105227381D01*
X125380953Y-105227381D01*
X125523810Y-105179762D01*
X125571429Y-105132143D01*
X125571429Y-104798810D01*
X125380953Y-104798810D01*
X126000000Y-105227381D02*
X126000000Y-104227381D01*
X126380953Y-104227381D01*
X126476191Y-104275000D01*
X126523810Y-104322619D01*
X126571429Y-104417857D01*
X126571429Y-104560714D01*
X126523810Y-104655952D01*
X126476191Y-104703571D01*
X126380953Y-104751190D01*
X126000000Y-104751190D01*
X127000000Y-105227381D02*
X127000000Y-104227381D01*
X127666666Y-104227381D02*
X127857143Y-104227381D01*
X127952381Y-104275000D01*
X128047619Y-104370238D01*
X128095238Y-104560714D01*
X128095238Y-104894048D01*
X128047619Y-105084524D01*
X127952381Y-105179762D01*
X127857143Y-105227381D01*
X127666666Y-105227381D01*
X127571428Y-105179762D01*
X127476190Y-105084524D01*
X127428571Y-104894048D01*
X127428571Y-104560714D01*
X127476190Y-104370238D01*
X127571428Y-104275000D01*
X127666666Y-104227381D01*
X128714285Y-104227381D02*
X128809524Y-104227381D01*
X128904762Y-104275000D01*
X128952381Y-104322619D01*
X129000000Y-104417857D01*
X129047619Y-104608333D01*
X129047619Y-104846429D01*
X129000000Y-105036905D01*
X128952381Y-105132143D01*
X128904762Y-105179762D01*
X128809524Y-105227381D01*
X128714285Y-105227381D01*
X128619047Y-105179762D01*
X128571428Y-105132143D01*
X128523809Y-105036905D01*
X128476190Y-104846429D01*
X128476190Y-104608333D01*
X128523809Y-104417857D01*
X128571428Y-104322619D01*
X128619047Y-104275000D01*
X128714285Y-104227381D01*
X126238096Y-101735000D02*
X126142858Y-101687381D01*
X126000001Y-101687381D01*
X125857143Y-101735000D01*
X125761905Y-101830238D01*
X125714286Y-101925476D01*
X125666667Y-102115952D01*
X125666667Y-102258810D01*
X125714286Y-102449286D01*
X125761905Y-102544524D01*
X125857143Y-102639762D01*
X126000001Y-102687381D01*
X126095239Y-102687381D01*
X126238096Y-102639762D01*
X126285715Y-102592143D01*
X126285715Y-102258810D01*
X126095239Y-102258810D01*
X126714286Y-102687381D02*
X126714286Y-101687381D01*
X127285715Y-102687381D01*
X127285715Y-101687381D01*
X127761905Y-102687381D02*
X127761905Y-101687381D01*
X128000000Y-101687381D01*
X128142858Y-101735000D01*
X128238096Y-101830238D01*
X128285715Y-101925476D01*
X128333334Y-102115952D01*
X128333334Y-102258810D01*
X128285715Y-102449286D01*
X128238096Y-102544524D01*
X128142858Y-102639762D01*
X128000000Y-102687381D01*
X127761905Y-102687381D01*
X138938096Y-101735000D02*
X138842858Y-101687381D01*
X138700001Y-101687381D01*
X138557143Y-101735000D01*
X138461905Y-101830238D01*
X138414286Y-101925476D01*
X138366667Y-102115952D01*
X138366667Y-102258810D01*
X138414286Y-102449286D01*
X138461905Y-102544524D01*
X138557143Y-102639762D01*
X138700001Y-102687381D01*
X138795239Y-102687381D01*
X138938096Y-102639762D01*
X138985715Y-102592143D01*
X138985715Y-102258810D01*
X138795239Y-102258810D01*
X139414286Y-102687381D02*
X139414286Y-101687381D01*
X139985715Y-102687381D01*
X139985715Y-101687381D01*
X140461905Y-102687381D02*
X140461905Y-101687381D01*
X140700000Y-101687381D01*
X140842858Y-101735000D01*
X140938096Y-101830238D01*
X140985715Y-101925476D01*
X141033334Y-102115952D01*
X141033334Y-102258810D01*
X140985715Y-102449286D01*
X140938096Y-102544524D01*
X140842858Y-102639762D01*
X140700000Y-102687381D01*
X140461905Y-102687381D01*
X138223810Y-104275000D02*
X138128572Y-104227381D01*
X137985715Y-104227381D01*
X137842857Y-104275000D01*
X137747619Y-104370238D01*
X137700000Y-104465476D01*
X137652381Y-104655952D01*
X137652381Y-104798810D01*
X137700000Y-104989286D01*
X137747619Y-105084524D01*
X137842857Y-105179762D01*
X137985715Y-105227381D01*
X138080953Y-105227381D01*
X138223810Y-105179762D01*
X138271429Y-105132143D01*
X138271429Y-104798810D01*
X138080953Y-104798810D01*
X138700000Y-105227381D02*
X138700000Y-104227381D01*
X139080953Y-104227381D01*
X139176191Y-104275000D01*
X139223810Y-104322619D01*
X139271429Y-104417857D01*
X139271429Y-104560714D01*
X139223810Y-104655952D01*
X139176191Y-104703571D01*
X139080953Y-104751190D01*
X138700000Y-104751190D01*
X139700000Y-105227381D02*
X139700000Y-104227381D01*
X140366666Y-104227381D02*
X140557143Y-104227381D01*
X140652381Y-104275000D01*
X140747619Y-104370238D01*
X140795238Y-104560714D01*
X140795238Y-104894048D01*
X140747619Y-105084524D01*
X140652381Y-105179762D01*
X140557143Y-105227381D01*
X140366666Y-105227381D01*
X140271428Y-105179762D01*
X140176190Y-105084524D01*
X140128571Y-104894048D01*
X140128571Y-104560714D01*
X140176190Y-104370238D01*
X140271428Y-104275000D01*
X140366666Y-104227381D01*
X141366666Y-104655952D02*
X141271428Y-104608333D01*
X141223809Y-104560714D01*
X141176190Y-104465476D01*
X141176190Y-104417857D01*
X141223809Y-104322619D01*
X141271428Y-104275000D01*
X141366666Y-104227381D01*
X141557143Y-104227381D01*
X141652381Y-104275000D01*
X141700000Y-104322619D01*
X141747619Y-104417857D01*
X141747619Y-104465476D01*
X141700000Y-104560714D01*
X141652381Y-104608333D01*
X141557143Y-104655952D01*
X141366666Y-104655952D01*
X141271428Y-104703571D01*
X141223809Y-104751190D01*
X141176190Y-104846429D01*
X141176190Y-105036905D01*
X141223809Y-105132143D01*
X141271428Y-105179762D01*
X141366666Y-105227381D01*
X141557143Y-105227381D01*
X141652381Y-105179762D01*
X141700000Y-105132143D01*
X141747619Y-105036905D01*
X141747619Y-104846429D01*
X141700000Y-104751190D01*
X141652381Y-104703571D01*
X141557143Y-104655952D01*
X138223810Y-106815000D02*
X138128572Y-106767381D01*
X137985715Y-106767381D01*
X137842857Y-106815000D01*
X137747619Y-106910238D01*
X137700000Y-107005476D01*
X137652381Y-107195952D01*
X137652381Y-107338810D01*
X137700000Y-107529286D01*
X137747619Y-107624524D01*
X137842857Y-107719762D01*
X137985715Y-107767381D01*
X138080953Y-107767381D01*
X138223810Y-107719762D01*
X138271429Y-107672143D01*
X138271429Y-107338810D01*
X138080953Y-107338810D01*
X138700000Y-107767381D02*
X138700000Y-106767381D01*
X139080953Y-106767381D01*
X139176191Y-106815000D01*
X139223810Y-106862619D01*
X139271429Y-106957857D01*
X139271429Y-107100714D01*
X139223810Y-107195952D01*
X139176191Y-107243571D01*
X139080953Y-107291190D01*
X138700000Y-107291190D01*
X139700000Y-107767381D02*
X139700000Y-106767381D01*
X140366666Y-106767381D02*
X140557143Y-106767381D01*
X140652381Y-106815000D01*
X140747619Y-106910238D01*
X140795238Y-107100714D01*
X140795238Y-107434048D01*
X140747619Y-107624524D01*
X140652381Y-107719762D01*
X140557143Y-107767381D01*
X140366666Y-107767381D01*
X140271428Y-107719762D01*
X140176190Y-107624524D01*
X140128571Y-107434048D01*
X140128571Y-107100714D01*
X140176190Y-106910238D01*
X140271428Y-106815000D01*
X140366666Y-106767381D01*
X141271428Y-107767381D02*
X141461904Y-107767381D01*
X141557143Y-107719762D01*
X141604762Y-107672143D01*
X141700000Y-107529286D01*
X141747619Y-107338810D01*
X141747619Y-106957857D01*
X141700000Y-106862619D01*
X141652381Y-106815000D01*
X141557143Y-106767381D01*
X141366666Y-106767381D01*
X141271428Y-106815000D01*
X141223809Y-106862619D01*
X141176190Y-106957857D01*
X141176190Y-107195952D01*
X141223809Y-107291190D01*
X141271428Y-107338810D01*
X141366666Y-107386429D01*
X141557143Y-107386429D01*
X141652381Y-107338810D01*
X141700000Y-107291190D01*
X141747619Y-107195952D01*
X137747620Y-109355000D02*
X137652382Y-109307381D01*
X137509525Y-109307381D01*
X137366667Y-109355000D01*
X137271429Y-109450238D01*
X137223810Y-109545476D01*
X137176191Y-109735952D01*
X137176191Y-109878810D01*
X137223810Y-110069286D01*
X137271429Y-110164524D01*
X137366667Y-110259762D01*
X137509525Y-110307381D01*
X137604763Y-110307381D01*
X137747620Y-110259762D01*
X137795239Y-110212143D01*
X137795239Y-109878810D01*
X137604763Y-109878810D01*
X138223810Y-110307381D02*
X138223810Y-109307381D01*
X138604763Y-109307381D01*
X138700001Y-109355000D01*
X138747620Y-109402619D01*
X138795239Y-109497857D01*
X138795239Y-109640714D01*
X138747620Y-109735952D01*
X138700001Y-109783571D01*
X138604763Y-109831190D01*
X138223810Y-109831190D01*
X139223810Y-110307381D02*
X139223810Y-109307381D01*
X139890476Y-109307381D02*
X140080953Y-109307381D01*
X140176191Y-109355000D01*
X140271429Y-109450238D01*
X140319048Y-109640714D01*
X140319048Y-109974048D01*
X140271429Y-110164524D01*
X140176191Y-110259762D01*
X140080953Y-110307381D01*
X139890476Y-110307381D01*
X139795238Y-110259762D01*
X139700000Y-110164524D01*
X139652381Y-109974048D01*
X139652381Y-109640714D01*
X139700000Y-109450238D01*
X139795238Y-109355000D01*
X139890476Y-109307381D01*
X141271429Y-110307381D02*
X140700000Y-110307381D01*
X140985714Y-110307381D02*
X140985714Y-109307381D01*
X140890476Y-109450238D01*
X140795238Y-109545476D01*
X140700000Y-109593095D01*
X141890476Y-109307381D02*
X141985715Y-109307381D01*
X142080953Y-109355000D01*
X142128572Y-109402619D01*
X142176191Y-109497857D01*
X142223810Y-109688333D01*
X142223810Y-109926429D01*
X142176191Y-110116905D01*
X142128572Y-110212143D01*
X142080953Y-110259762D01*
X141985715Y-110307381D01*
X141890476Y-110307381D01*
X141795238Y-110259762D01*
X141747619Y-110212143D01*
X141700000Y-110116905D01*
X141652381Y-109926429D01*
X141652381Y-109688333D01*
X141700000Y-109497857D01*
X141747619Y-109402619D01*
X141795238Y-109355000D01*
X141890476Y-109307381D01*
X137747620Y-111895000D02*
X137652382Y-111847381D01*
X137509525Y-111847381D01*
X137366667Y-111895000D01*
X137271429Y-111990238D01*
X137223810Y-112085476D01*
X137176191Y-112275952D01*
X137176191Y-112418810D01*
X137223810Y-112609286D01*
X137271429Y-112704524D01*
X137366667Y-112799762D01*
X137509525Y-112847381D01*
X137604763Y-112847381D01*
X137747620Y-112799762D01*
X137795239Y-112752143D01*
X137795239Y-112418810D01*
X137604763Y-112418810D01*
X138223810Y-112847381D02*
X138223810Y-111847381D01*
X138604763Y-111847381D01*
X138700001Y-111895000D01*
X138747620Y-111942619D01*
X138795239Y-112037857D01*
X138795239Y-112180714D01*
X138747620Y-112275952D01*
X138700001Y-112323571D01*
X138604763Y-112371190D01*
X138223810Y-112371190D01*
X139223810Y-112847381D02*
X139223810Y-111847381D01*
X139890476Y-111847381D02*
X140080953Y-111847381D01*
X140176191Y-111895000D01*
X140271429Y-111990238D01*
X140319048Y-112180714D01*
X140319048Y-112514048D01*
X140271429Y-112704524D01*
X140176191Y-112799762D01*
X140080953Y-112847381D01*
X139890476Y-112847381D01*
X139795238Y-112799762D01*
X139700000Y-112704524D01*
X139652381Y-112514048D01*
X139652381Y-112180714D01*
X139700000Y-111990238D01*
X139795238Y-111895000D01*
X139890476Y-111847381D01*
X141271429Y-112847381D02*
X140700000Y-112847381D01*
X140985714Y-112847381D02*
X140985714Y-111847381D01*
X140890476Y-111990238D01*
X140795238Y-112085476D01*
X140700000Y-112133095D01*
X142223810Y-112847381D02*
X141652381Y-112847381D01*
X141938095Y-112847381D02*
X141938095Y-111847381D01*
X141842857Y-111990238D01*
X141747619Y-112085476D01*
X141652381Y-112133095D01*
X137747620Y-114435000D02*
X137652382Y-114387381D01*
X137509525Y-114387381D01*
X137366667Y-114435000D01*
X137271429Y-114530238D01*
X137223810Y-114625476D01*
X137176191Y-114815952D01*
X137176191Y-114958810D01*
X137223810Y-115149286D01*
X137271429Y-115244524D01*
X137366667Y-115339762D01*
X137509525Y-115387381D01*
X137604763Y-115387381D01*
X137747620Y-115339762D01*
X137795239Y-115292143D01*
X137795239Y-114958810D01*
X137604763Y-114958810D01*
X138223810Y-115387381D02*
X138223810Y-114387381D01*
X138604763Y-114387381D01*
X138700001Y-114435000D01*
X138747620Y-114482619D01*
X138795239Y-114577857D01*
X138795239Y-114720714D01*
X138747620Y-114815952D01*
X138700001Y-114863571D01*
X138604763Y-114911190D01*
X138223810Y-114911190D01*
X139223810Y-115387381D02*
X139223810Y-114387381D01*
X139890476Y-114387381D02*
X140080953Y-114387381D01*
X140176191Y-114435000D01*
X140271429Y-114530238D01*
X140319048Y-114720714D01*
X140319048Y-115054048D01*
X140271429Y-115244524D01*
X140176191Y-115339762D01*
X140080953Y-115387381D01*
X139890476Y-115387381D01*
X139795238Y-115339762D01*
X139700000Y-115244524D01*
X139652381Y-115054048D01*
X139652381Y-114720714D01*
X139700000Y-114530238D01*
X139795238Y-114435000D01*
X139890476Y-114387381D01*
X141271429Y-115387381D02*
X140700000Y-115387381D01*
X140985714Y-115387381D02*
X140985714Y-114387381D01*
X140890476Y-114530238D01*
X140795238Y-114625476D01*
X140700000Y-114673095D01*
X141652381Y-114482619D02*
X141700000Y-114435000D01*
X141795238Y-114387381D01*
X142033334Y-114387381D01*
X142128572Y-114435000D01*
X142176191Y-114482619D01*
X142223810Y-114577857D01*
X142223810Y-114673095D01*
X142176191Y-114815952D01*
X141604762Y-115387381D01*
X142223810Y-115387381D01*
X137747620Y-116975000D02*
X137652382Y-116927381D01*
X137509525Y-116927381D01*
X137366667Y-116975000D01*
X137271429Y-117070238D01*
X137223810Y-117165476D01*
X137176191Y-117355952D01*
X137176191Y-117498810D01*
X137223810Y-117689286D01*
X137271429Y-117784524D01*
X137366667Y-117879762D01*
X137509525Y-117927381D01*
X137604763Y-117927381D01*
X137747620Y-117879762D01*
X137795239Y-117832143D01*
X137795239Y-117498810D01*
X137604763Y-117498810D01*
X138223810Y-117927381D02*
X138223810Y-116927381D01*
X138604763Y-116927381D01*
X138700001Y-116975000D01*
X138747620Y-117022619D01*
X138795239Y-117117857D01*
X138795239Y-117260714D01*
X138747620Y-117355952D01*
X138700001Y-117403571D01*
X138604763Y-117451190D01*
X138223810Y-117451190D01*
X139223810Y-117927381D02*
X139223810Y-116927381D01*
X139890476Y-116927381D02*
X140080953Y-116927381D01*
X140176191Y-116975000D01*
X140271429Y-117070238D01*
X140319048Y-117260714D01*
X140319048Y-117594048D01*
X140271429Y-117784524D01*
X140176191Y-117879762D01*
X140080953Y-117927381D01*
X139890476Y-117927381D01*
X139795238Y-117879762D01*
X139700000Y-117784524D01*
X139652381Y-117594048D01*
X139652381Y-117260714D01*
X139700000Y-117070238D01*
X139795238Y-116975000D01*
X139890476Y-116927381D01*
X141271429Y-117927381D02*
X140700000Y-117927381D01*
X140985714Y-117927381D02*
X140985714Y-116927381D01*
X140890476Y-117070238D01*
X140795238Y-117165476D01*
X140700000Y-117213095D01*
X141604762Y-116927381D02*
X142223810Y-116927381D01*
X141890476Y-117308333D01*
X142033334Y-117308333D01*
X142128572Y-117355952D01*
X142176191Y-117403571D01*
X142223810Y-117498810D01*
X142223810Y-117736905D01*
X142176191Y-117832143D01*
X142128572Y-117879762D01*
X142033334Y-117927381D01*
X141747619Y-117927381D01*
X141652381Y-117879762D01*
X141604762Y-117832143D01*
X137747620Y-119515000D02*
X137652382Y-119467381D01*
X137509525Y-119467381D01*
X137366667Y-119515000D01*
X137271429Y-119610238D01*
X137223810Y-119705476D01*
X137176191Y-119895952D01*
X137176191Y-120038810D01*
X137223810Y-120229286D01*
X137271429Y-120324524D01*
X137366667Y-120419762D01*
X137509525Y-120467381D01*
X137604763Y-120467381D01*
X137747620Y-120419762D01*
X137795239Y-120372143D01*
X137795239Y-120038810D01*
X137604763Y-120038810D01*
X138223810Y-120467381D02*
X138223810Y-119467381D01*
X138604763Y-119467381D01*
X138700001Y-119515000D01*
X138747620Y-119562619D01*
X138795239Y-119657857D01*
X138795239Y-119800714D01*
X138747620Y-119895952D01*
X138700001Y-119943571D01*
X138604763Y-119991190D01*
X138223810Y-119991190D01*
X139223810Y-120467381D02*
X139223810Y-119467381D01*
X139890476Y-119467381D02*
X140080953Y-119467381D01*
X140176191Y-119515000D01*
X140271429Y-119610238D01*
X140319048Y-119800714D01*
X140319048Y-120134048D01*
X140271429Y-120324524D01*
X140176191Y-120419762D01*
X140080953Y-120467381D01*
X139890476Y-120467381D01*
X139795238Y-120419762D01*
X139700000Y-120324524D01*
X139652381Y-120134048D01*
X139652381Y-119800714D01*
X139700000Y-119610238D01*
X139795238Y-119515000D01*
X139890476Y-119467381D01*
X141271429Y-120467381D02*
X140700000Y-120467381D01*
X140985714Y-120467381D02*
X140985714Y-119467381D01*
X140890476Y-119610238D01*
X140795238Y-119705476D01*
X140700000Y-119753095D01*
X142128572Y-119800714D02*
X142128572Y-120467381D01*
X141890476Y-119419762D02*
X141652381Y-120134048D01*
X142271429Y-120134048D01*
X137747620Y-122055000D02*
X137652382Y-122007381D01*
X137509525Y-122007381D01*
X137366667Y-122055000D01*
X137271429Y-122150238D01*
X137223810Y-122245476D01*
X137176191Y-122435952D01*
X137176191Y-122578810D01*
X137223810Y-122769286D01*
X137271429Y-122864524D01*
X137366667Y-122959762D01*
X137509525Y-123007381D01*
X137604763Y-123007381D01*
X137747620Y-122959762D01*
X137795239Y-122912143D01*
X137795239Y-122578810D01*
X137604763Y-122578810D01*
X138223810Y-123007381D02*
X138223810Y-122007381D01*
X138604763Y-122007381D01*
X138700001Y-122055000D01*
X138747620Y-122102619D01*
X138795239Y-122197857D01*
X138795239Y-122340714D01*
X138747620Y-122435952D01*
X138700001Y-122483571D01*
X138604763Y-122531190D01*
X138223810Y-122531190D01*
X139223810Y-123007381D02*
X139223810Y-122007381D01*
X139890476Y-122007381D02*
X140080953Y-122007381D01*
X140176191Y-122055000D01*
X140271429Y-122150238D01*
X140319048Y-122340714D01*
X140319048Y-122674048D01*
X140271429Y-122864524D01*
X140176191Y-122959762D01*
X140080953Y-123007381D01*
X139890476Y-123007381D01*
X139795238Y-122959762D01*
X139700000Y-122864524D01*
X139652381Y-122674048D01*
X139652381Y-122340714D01*
X139700000Y-122150238D01*
X139795238Y-122055000D01*
X139890476Y-122007381D01*
X141271429Y-123007381D02*
X140700000Y-123007381D01*
X140985714Y-123007381D02*
X140985714Y-122007381D01*
X140890476Y-122150238D01*
X140795238Y-122245476D01*
X140700000Y-122293095D01*
X142176191Y-122007381D02*
X141700000Y-122007381D01*
X141652381Y-122483571D01*
X141700000Y-122435952D01*
X141795238Y-122388333D01*
X142033334Y-122388333D01*
X142128572Y-122435952D01*
X142176191Y-122483571D01*
X142223810Y-122578810D01*
X142223810Y-122816905D01*
X142176191Y-122912143D01*
X142128572Y-122959762D01*
X142033334Y-123007381D01*
X141795238Y-123007381D01*
X141700000Y-122959762D01*
X141652381Y-122912143D01*
D14*
X111000000Y-64000000D02*
X111000000Y-52000000D01*
X112500000Y-62000000D02*
X111000000Y-64000000D01*
X111000000Y-64000000D02*
X109500000Y-62000000D01*
X156000000Y-52000000D02*
X157500000Y-54000000D01*
X154500000Y-54000000D02*
X156000000Y-52000000D01*
X156000000Y-52000000D02*
X156000000Y-64000000D01*
D11*
X159678571Y-61142857D02*
X159678571Y-61857143D01*
X158178571Y-61857143D01*
X159678571Y-60642857D02*
X158178571Y-60642857D01*
X159678571Y-59928571D02*
X158178571Y-59928571D01*
X159678571Y-59071428D01*
X158178571Y-59071428D01*
X159678571Y-58357142D02*
X158178571Y-58357142D01*
X159678571Y-57499999D02*
X158821429Y-58142856D01*
X158178571Y-57499999D02*
X159035714Y-58357142D01*
X159821429Y-57214285D02*
X159821429Y-56071428D01*
X158178571Y-55428571D02*
X158178571Y-55142857D01*
X158250000Y-54999999D01*
X158392857Y-54857142D01*
X158678571Y-54785714D01*
X159178571Y-54785714D01*
X159464286Y-54857142D01*
X159607143Y-54999999D01*
X159678571Y-55142857D01*
X159678571Y-55428571D01*
X159607143Y-55571428D01*
X159464286Y-55714285D01*
X159178571Y-55785714D01*
X158678571Y-55785714D01*
X158392857Y-55714285D01*
X158250000Y-55571428D01*
X158178571Y-55428571D01*
X158178571Y-54142856D02*
X159392857Y-54142856D01*
X159535714Y-54071428D01*
X159607143Y-53999999D01*
X159678571Y-53857142D01*
X159678571Y-53571428D01*
X159607143Y-53428570D01*
X159535714Y-53357142D01*
X159392857Y-53285713D01*
X158178571Y-53285713D01*
X158178571Y-52785713D02*
X158178571Y-51928570D01*
X159678571Y-52357141D02*
X158178571Y-52357141D01*
X108678571Y-59142857D02*
X108678571Y-59857143D01*
X107178571Y-59857143D01*
X108678571Y-58642857D02*
X107178571Y-58642857D01*
X108678571Y-57928571D02*
X107178571Y-57928571D01*
X108678571Y-57071428D01*
X107178571Y-57071428D01*
X108678571Y-56357142D02*
X107178571Y-56357142D01*
X108678571Y-55499999D02*
X107821429Y-56142856D01*
X107178571Y-55499999D02*
X108035714Y-56357142D01*
X108821429Y-55214285D02*
X108821429Y-54071428D01*
X108678571Y-53714285D02*
X107178571Y-53714285D01*
X108678571Y-52999999D02*
X107178571Y-52999999D01*
X108678571Y-52142856D01*
X107178571Y-52142856D01*
X109357144Y-121707143D02*
X110500001Y-121707143D01*
X109928572Y-122278571D02*
X109928572Y-121135714D01*
X111071430Y-120778571D02*
X112000001Y-120778571D01*
X111500001Y-121350000D01*
X111714287Y-121350000D01*
X111857144Y-121421429D01*
X111928573Y-121492857D01*
X112000001Y-121635714D01*
X112000001Y-121992857D01*
X111928573Y-122135714D01*
X111857144Y-122207143D01*
X111714287Y-122278571D01*
X111285715Y-122278571D01*
X111142858Y-122207143D01*
X111071430Y-122135714D01*
X112428572Y-120778571D02*
X112928572Y-122278571D01*
X113428572Y-120778571D01*
X113785715Y-120778571D02*
X114714286Y-120778571D01*
X114214286Y-121350000D01*
X114428572Y-121350000D01*
X114571429Y-121421429D01*
X114642858Y-121492857D01*
X114714286Y-121635714D01*
X114714286Y-121992857D01*
X114642858Y-122135714D01*
X114571429Y-122207143D01*
X114428572Y-122278571D01*
X114000000Y-122278571D01*
X113857143Y-122207143D01*
X113785715Y-122135714D01*
D15*
X145530000Y-84110000D02*
G75*
G02X145530000Y-86110000I0J-1000000D01*
G01*
X145530000Y-86110000D02*
X145530000Y-87480000D01*
X145530000Y-87480000D02*
X155930000Y-87480000D01*
X155930000Y-87480000D02*
X155930000Y-82740000D01*
X155930000Y-82740000D02*
X145530000Y-82740000D01*
X145530000Y-82740000D02*
X145530000Y-84110000D01*
X145530000Y-90310000D02*
X155930000Y-90310000D01*
X155930000Y-90310000D02*
X155930000Y-79910000D01*
X155930000Y-79910000D02*
X145530000Y-79910000D01*
X145530000Y-79910000D02*
X145530000Y-90310000D01*
X130750000Y-123825000D02*
X130750000Y-100905000D01*
X130750000Y-100905000D02*
X135950000Y-100905000D01*
X135950000Y-100905000D02*
X135950000Y-126425000D01*
X135950000Y-126425000D02*
X133350000Y-126425000D01*
X133350000Y-126425000D02*
X133350000Y-123825000D01*
X133350000Y-123825000D02*
X130750000Y-123825000D01*
X130750000Y-125095000D02*
X130750000Y-126425000D01*
X130750000Y-126425000D02*
X132020000Y-126425000D01*
X130683000Y-46355000D02*
X130683000Y-58928000D01*
X114427000Y-61468000D02*
X114427000Y-67945000D01*
X114427000Y-67945000D02*
X130683000Y-67945000D01*
X114427000Y-46355000D02*
X130683000Y-46355000D01*
X130683000Y-61468000D02*
X130683000Y-67945000D01*
X114427000Y-46355000D02*
X114427000Y-58928000D01*
X100270000Y-82550000D02*
X100270000Y-128330000D01*
X100270000Y-128330000D02*
X105470000Y-128330000D01*
X105470000Y-128330000D02*
X105470000Y-79950000D01*
X105470000Y-79950000D02*
X102870000Y-79950000D01*
X102870000Y-79950000D02*
X102870000Y-82550000D01*
X102870000Y-82550000D02*
X100270000Y-82550000D01*
X100270000Y-81280000D02*
X100270000Y-79950000D01*
X100270000Y-79950000D02*
X101600000Y-79950000D01*
X161230000Y-82550000D02*
X161230000Y-128330000D01*
X161230000Y-128330000D02*
X166430000Y-128330000D01*
X166430000Y-128330000D02*
X166430000Y-79950000D01*
X166430000Y-79950000D02*
X163830000Y-79950000D01*
X163830000Y-79950000D02*
X163830000Y-82550000D01*
X163830000Y-82550000D02*
X161230000Y-82550000D01*
X161230000Y-81280000D02*
X161230000Y-79950000D01*
X161230000Y-79950000D02*
X162560000Y-79950000D01*
X121300000Y-84150000D02*
X121300000Y-83450000D01*
X122500000Y-83450000D02*
X122500000Y-84150000D01*
X145900000Y-69700000D02*
X145900000Y-70400000D01*
X144700000Y-70400000D02*
X144700000Y-69700000D01*
X122000000Y-69700000D02*
X122000000Y-70400000D01*
X120800000Y-70400000D02*
X120800000Y-69700000D01*
X126600000Y-87950000D02*
X126600000Y-88650000D01*
X125400000Y-88650000D02*
X125400000Y-87950000D01*
X125900000Y-82550000D02*
X125900000Y-81850000D01*
X127100000Y-81850000D02*
X127100000Y-82550000D01*
X121700000Y-76400000D02*
X121700000Y-77100000D01*
X120500000Y-77100000D02*
X120500000Y-76400000D01*
X120500000Y-80100000D02*
X120500000Y-79400000D01*
X121700000Y-79400000D02*
X121700000Y-80100000D01*
X142850000Y-68700000D02*
X143550000Y-68700000D01*
X143550000Y-69900000D02*
X142850000Y-69900000D01*
X140750000Y-69900000D02*
X140050000Y-69900000D01*
X140050000Y-68700000D02*
X140750000Y-68700000D01*
X137250000Y-68700000D02*
X137950000Y-68700000D01*
X137950000Y-69900000D02*
X137250000Y-69900000D01*
X135150000Y-69900000D02*
X134450000Y-69900000D01*
X134450000Y-68700000D02*
X135150000Y-68700000D01*
X146300000Y-78450000D02*
X146300000Y-77750000D01*
X147500000Y-77750000D02*
X147500000Y-78450000D01*
X123850000Y-69900000D02*
X123150000Y-69900000D01*
X123150000Y-68700000D02*
X123850000Y-68700000D01*
X125950000Y-68700000D02*
X126650000Y-68700000D01*
X126650000Y-69900000D02*
X125950000Y-69900000D01*
X129450000Y-69900000D02*
X128750000Y-69900000D01*
X128750000Y-68700000D02*
X129450000Y-68700000D01*
X131550000Y-68700000D02*
X132250000Y-68700000D01*
X132250000Y-69900000D02*
X131550000Y-69900000D01*
X109300000Y-123050000D02*
X109300000Y-124050000D01*
X109300000Y-124050000D02*
X111400000Y-124050000D01*
X109300000Y-123050000D02*
X111400000Y-123050000D01*
X109300000Y-125850000D02*
X109300000Y-126850000D01*
X109300000Y-126850000D02*
X111400000Y-126850000D01*
X109300000Y-125850000D02*
X111400000Y-125850000D01*
X113100000Y-122870000D02*
X114100000Y-122870000D01*
X114100000Y-124230000D02*
X113100000Y-124230000D01*
X113100000Y-125670000D02*
X114100000Y-125670000D01*
X114100000Y-127030000D02*
X113100000Y-127030000D01*
X119720000Y-84300000D02*
X119720000Y-83300000D01*
X121080000Y-83300000D02*
X121080000Y-84300000D01*
X140830000Y-73600000D02*
X140830000Y-74600000D01*
X139470000Y-74600000D02*
X139470000Y-73600000D01*
X138880000Y-73600000D02*
X138880000Y-74600000D01*
X137520000Y-74600000D02*
X137520000Y-73600000D01*
X136930000Y-73600000D02*
X136930000Y-74600000D01*
X135570000Y-74600000D02*
X135570000Y-73600000D01*
X134980000Y-73600000D02*
X134980000Y-74600000D01*
X133620000Y-74600000D02*
X133620000Y-73600000D01*
X125680000Y-83300000D02*
X125680000Y-84300000D01*
X124320000Y-84300000D02*
X124320000Y-83300000D01*
X127230000Y-73600000D02*
X127230000Y-74600000D01*
X125870000Y-74600000D02*
X125870000Y-73600000D01*
X129180000Y-73600000D02*
X129180000Y-74600000D01*
X127820000Y-74600000D02*
X127820000Y-73600000D01*
X131130000Y-73600000D02*
X131130000Y-74600000D01*
X129770000Y-74600000D02*
X129770000Y-73600000D01*
X133080000Y-73600000D02*
X133080000Y-74600000D01*
X131720000Y-74600000D02*
X131720000Y-73600000D01*
X149820000Y-78700000D02*
X149820000Y-77700000D01*
X151180000Y-77700000D02*
X151180000Y-78700000D01*
X151520000Y-78700000D02*
X151520000Y-77700000D01*
X152880000Y-77700000D02*
X152880000Y-78700000D01*
X124080000Y-83300000D02*
X124080000Y-84300000D01*
X122720000Y-84300000D02*
X122720000Y-83300000D01*
D13*
X138050000Y-79750000D02*
X138050000Y-80325000D01*
X128650000Y-89150000D02*
X128650000Y-88575000D01*
X138050000Y-89150000D02*
X138050000Y-88575000D01*
X128650000Y-79750000D02*
X129225000Y-79750000D01*
X128650000Y-89150000D02*
X129225000Y-89150000D01*
X138050000Y-89150000D02*
X137475000Y-89150000D01*
X138050000Y-79750000D02*
X137475000Y-79750000D01*
D15*
X125250000Y-76250000D02*
X121950000Y-76250000D01*
X121950000Y-76250000D02*
X121950000Y-80250000D01*
X152273000Y-46355000D02*
X152273000Y-58928000D01*
X136017000Y-61468000D02*
X136017000Y-67945000D01*
X136017000Y-67945000D02*
X152273000Y-67945000D01*
X136017000Y-46355000D02*
X152273000Y-46355000D01*
X152273000Y-61468000D02*
X152273000Y-67945000D01*
X136017000Y-46355000D02*
X136017000Y-58928000D01*
D16*
G36*
X151843025Y-117450587D02*
X151853186Y-117309149D01*
X151868156Y-117170482D01*
X151885409Y-117056222D01*
X151893761Y-117016388D01*
X151929916Y-116868222D01*
X152320180Y-116868222D01*
X152461214Y-116869660D01*
X152579515Y-116873609D01*
X152664934Y-116879516D01*
X152707321Y-116886831D01*
X152710138Y-116889388D01*
X152702354Y-116926585D01*
X152682798Y-116998343D01*
X152667805Y-117049096D01*
X152627492Y-117254713D01*
X152629313Y-117455039D01*
X152670882Y-117640160D01*
X152749811Y-117800160D01*
X152863714Y-117925126D01*
X152882049Y-117939068D01*
X153017235Y-118018581D01*
X153163004Y-118063837D01*
X153335230Y-118078684D01*
X153444222Y-118075448D01*
X153659085Y-118041081D01*
X153835702Y-117965980D01*
X153973354Y-117850594D01*
X154071318Y-117695372D01*
X154077725Y-117680517D01*
X154106799Y-117567885D01*
X154119556Y-117422086D01*
X154115936Y-117264007D01*
X154095877Y-117114535D01*
X154079527Y-117049096D01*
X154055475Y-116966754D01*
X154040120Y-116908323D01*
X154037194Y-116892591D01*
X154062505Y-116894286D01*
X154132650Y-116910547D01*
X154238621Y-116938998D01*
X154371412Y-116977262D01*
X154467097Y-117006042D01*
X154628521Y-117055781D01*
X154744015Y-117093305D01*
X154821740Y-117122537D01*
X154869854Y-117147401D01*
X154896517Y-117171819D01*
X154909888Y-117199714D01*
X154915314Y-117221561D01*
X154928906Y-117329087D01*
X154934538Y-117472844D01*
X154932733Y-117633259D01*
X154924012Y-117790761D01*
X154908899Y-117925777D01*
X154894613Y-117997111D01*
X154793874Y-118275899D01*
X154652548Y-118515906D01*
X154472120Y-118715979D01*
X154254078Y-118874961D01*
X153999909Y-118991696D01*
X153711100Y-119065030D01*
X153487882Y-119089996D01*
X153167344Y-119085226D01*
X152875134Y-119032802D01*
X152613840Y-118935301D01*
X152386048Y-118795301D01*
X152194343Y-118615381D01*
X152041313Y-118398117D01*
X151929545Y-118146088D01*
X151861624Y-117861872D01*
X151840137Y-117548047D01*
X151843025Y-117450587D01*
X151843025Y-117450587D01*
G37*
X151843025Y-117450587D02*
X151853186Y-117309149D01*
X151868156Y-117170482D01*
X151885409Y-117056222D01*
X151893761Y-117016388D01*
X151929916Y-116868222D01*
X152320180Y-116868222D01*
X152461214Y-116869660D01*
X152579515Y-116873609D01*
X152664934Y-116879516D01*
X152707321Y-116886831D01*
X152710138Y-116889388D01*
X152702354Y-116926585D01*
X152682798Y-116998343D01*
X152667805Y-117049096D01*
X152627492Y-117254713D01*
X152629313Y-117455039D01*
X152670882Y-117640160D01*
X152749811Y-117800160D01*
X152863714Y-117925126D01*
X152882049Y-117939068D01*
X153017235Y-118018581D01*
X153163004Y-118063837D01*
X153335230Y-118078684D01*
X153444222Y-118075448D01*
X153659085Y-118041081D01*
X153835702Y-117965980D01*
X153973354Y-117850594D01*
X154071318Y-117695372D01*
X154077725Y-117680517D01*
X154106799Y-117567885D01*
X154119556Y-117422086D01*
X154115936Y-117264007D01*
X154095877Y-117114535D01*
X154079527Y-117049096D01*
X154055475Y-116966754D01*
X154040120Y-116908323D01*
X154037194Y-116892591D01*
X154062505Y-116894286D01*
X154132650Y-116910547D01*
X154238621Y-116938998D01*
X154371412Y-116977262D01*
X154467097Y-117006042D01*
X154628521Y-117055781D01*
X154744015Y-117093305D01*
X154821740Y-117122537D01*
X154869854Y-117147401D01*
X154896517Y-117171819D01*
X154909888Y-117199714D01*
X154915314Y-117221561D01*
X154928906Y-117329087D01*
X154934538Y-117472844D01*
X154932733Y-117633259D01*
X154924012Y-117790761D01*
X154908899Y-117925777D01*
X154894613Y-117997111D01*
X154793874Y-118275899D01*
X154652548Y-118515906D01*
X154472120Y-118715979D01*
X154254078Y-118874961D01*
X153999909Y-118991696D01*
X153711100Y-119065030D01*
X153487882Y-119089996D01*
X153167344Y-119085226D01*
X152875134Y-119032802D01*
X152613840Y-118935301D01*
X152386048Y-118795301D01*
X152194343Y-118615381D01*
X152041313Y-118398117D01*
X151929545Y-118146088D01*
X151861624Y-117861872D01*
X151840137Y-117548047D01*
X151843025Y-117450587D01*
G36*
X154044350Y-111001565D02*
X154047926Y-110986086D01*
X154097192Y-110883981D01*
X154183375Y-110786888D01*
X154288388Y-110712479D01*
X154355851Y-110685261D01*
X154500296Y-110671410D01*
X154633418Y-110703732D01*
X154748445Y-110773604D01*
X154838604Y-110872405D01*
X154897121Y-110991511D01*
X154917225Y-111122301D01*
X154892142Y-111256152D01*
X154858411Y-111325058D01*
X154753924Y-111450187D01*
X154627822Y-111527826D01*
X154489486Y-111556841D01*
X154416694Y-111546146D01*
X154416694Y-111434535D01*
X154540638Y-111432490D01*
X154610264Y-111411205D01*
X154702846Y-111349822D01*
X154778165Y-111259384D01*
X154821676Y-111159662D01*
X154827005Y-111116543D01*
X154814069Y-111044601D01*
X154784938Y-110970089D01*
X154714446Y-110873835D01*
X154618807Y-110819328D01*
X154486977Y-110800582D01*
X154471859Y-110800444D01*
X154331089Y-110819842D01*
X154227368Y-110880012D01*
X154155831Y-110983924D01*
X154150368Y-110996573D01*
X154126619Y-111116971D01*
X154150345Y-111229051D01*
X154212579Y-111324729D01*
X154304351Y-111395919D01*
X154416694Y-111434535D01*
X154416694Y-111546146D01*
X154348300Y-111536097D01*
X154213645Y-111464459D01*
X154152837Y-111410379D01*
X154075353Y-111292646D01*
X154037597Y-111149928D01*
X154044350Y-111001565D01*
X154044350Y-111001565D01*
G37*
X154044350Y-111001565D02*
X154047926Y-110986086D01*
X154097192Y-110883981D01*
X154183375Y-110786888D01*
X154288388Y-110712479D01*
X154355851Y-110685261D01*
X154500296Y-110671410D01*
X154633418Y-110703732D01*
X154748445Y-110773604D01*
X154838604Y-110872405D01*
X154897121Y-110991511D01*
X154917225Y-111122301D01*
X154892142Y-111256152D01*
X154858411Y-111325058D01*
X154753924Y-111450187D01*
X154627822Y-111527826D01*
X154489486Y-111556841D01*
X154416694Y-111546146D01*
X154416694Y-111434535D01*
X154540638Y-111432490D01*
X154610264Y-111411205D01*
X154702846Y-111349822D01*
X154778165Y-111259384D01*
X154821676Y-111159662D01*
X154827005Y-111116543D01*
X154814069Y-111044601D01*
X154784938Y-110970089D01*
X154714446Y-110873835D01*
X154618807Y-110819328D01*
X154486977Y-110800582D01*
X154471859Y-110800444D01*
X154331089Y-110819842D01*
X154227368Y-110880012D01*
X154155831Y-110983924D01*
X154150368Y-110996573D01*
X154126619Y-111116971D01*
X154150345Y-111229051D01*
X154212579Y-111324729D01*
X154304351Y-111395919D01*
X154416694Y-111434535D01*
X154416694Y-111546146D01*
X154348300Y-111536097D01*
X154213645Y-111464459D01*
X154152837Y-111410379D01*
X154075353Y-111292646D01*
X154037597Y-111149928D01*
X154044350Y-111001565D01*
G36*
X152473404Y-121483302D02*
X152527373Y-121319574D01*
X152622984Y-121178731D01*
X152678556Y-121121826D01*
X152809801Y-121017589D01*
X152954627Y-120942259D01*
X153124523Y-120891929D01*
X153330975Y-120862689D01*
X153465388Y-120854133D01*
X153782888Y-120840452D01*
X153782888Y-122180503D01*
X153945166Y-122160533D01*
X154119833Y-122124617D01*
X154276101Y-122065197D01*
X154399132Y-121988711D01*
X154446020Y-121943183D01*
X154524763Y-121807693D01*
X154563072Y-121643576D01*
X154560638Y-121461902D01*
X154517152Y-121273741D01*
X154467993Y-121155749D01*
X154388089Y-120994539D01*
X154555384Y-120975612D01*
X154659936Y-120967929D01*
X154720821Y-120975018D01*
X154746779Y-120993842D01*
X154789771Y-121089747D01*
X154825918Y-121225471D01*
X154853198Y-121384599D01*
X154869591Y-121550711D01*
X154873078Y-121707391D01*
X154861637Y-121838221D01*
X154854722Y-121871049D01*
X154775738Y-122078491D01*
X154653040Y-122250467D01*
X154486999Y-122386760D01*
X154277988Y-122487153D01*
X154026378Y-122551428D01*
X153732541Y-122579367D01*
X153641777Y-122580648D01*
X153472444Y-122569462D01*
X153472444Y-122180409D01*
X153472444Y-121242666D01*
X153375055Y-121242666D01*
X153174288Y-121262337D01*
X153004478Y-121319639D01*
X152873205Y-121412009D01*
X152872722Y-121412491D01*
X152814144Y-121475194D01*
X152782439Y-121528512D01*
X152769418Y-121594330D01*
X152766888Y-121694533D01*
X152766888Y-121695271D01*
X152769221Y-121795147D01*
X152781729Y-121860050D01*
X152812677Y-121911418D01*
X152870331Y-121970692D01*
X152874657Y-121974813D01*
X152972706Y-122051170D01*
X153089199Y-122105815D01*
X153238959Y-122144704D01*
X153338388Y-122161180D01*
X153472444Y-122180409D01*
X153472444Y-122569462D01*
X153351240Y-122561454D01*
X153097775Y-122506140D01*
X152883429Y-122416258D01*
X152710248Y-122293361D01*
X152580280Y-122139002D01*
X152495571Y-121954732D01*
X152458168Y-121742105D01*
X152456444Y-121681590D01*
X152473404Y-121483302D01*
X152473404Y-121483302D01*
G37*
X152473404Y-121483302D02*
X152527373Y-121319574D01*
X152622984Y-121178731D01*
X152678556Y-121121826D01*
X152809801Y-121017589D01*
X152954627Y-120942259D01*
X153124523Y-120891929D01*
X153330975Y-120862689D01*
X153465388Y-120854133D01*
X153782888Y-120840452D01*
X153782888Y-122180503D01*
X153945166Y-122160533D01*
X154119833Y-122124617D01*
X154276101Y-122065197D01*
X154399132Y-121988711D01*
X154446020Y-121943183D01*
X154524763Y-121807693D01*
X154563072Y-121643576D01*
X154560638Y-121461902D01*
X154517152Y-121273741D01*
X154467993Y-121155749D01*
X154388089Y-120994539D01*
X154555384Y-120975612D01*
X154659936Y-120967929D01*
X154720821Y-120975018D01*
X154746779Y-120993842D01*
X154789771Y-121089747D01*
X154825918Y-121225471D01*
X154853198Y-121384599D01*
X154869591Y-121550711D01*
X154873078Y-121707391D01*
X154861637Y-121838221D01*
X154854722Y-121871049D01*
X154775738Y-122078491D01*
X154653040Y-122250467D01*
X154486999Y-122386760D01*
X154277988Y-122487153D01*
X154026378Y-122551428D01*
X153732541Y-122579367D01*
X153641777Y-122580648D01*
X153472444Y-122569462D01*
X153472444Y-122180409D01*
X153472444Y-121242666D01*
X153375055Y-121242666D01*
X153174288Y-121262337D01*
X153004478Y-121319639D01*
X152873205Y-121412009D01*
X152872722Y-121412491D01*
X152814144Y-121475194D01*
X152782439Y-121528512D01*
X152769418Y-121594330D01*
X152766888Y-121694533D01*
X152766888Y-121695271D01*
X152769221Y-121795147D01*
X152781729Y-121860050D01*
X152812677Y-121911418D01*
X152870331Y-121970692D01*
X152874657Y-121974813D01*
X152972706Y-122051170D01*
X153089199Y-122105815D01*
X153238959Y-122144704D01*
X153338388Y-122161180D01*
X153472444Y-122180409D01*
X153472444Y-122569462D01*
X153351240Y-122561454D01*
X153097775Y-122506140D01*
X152883429Y-122416258D01*
X152710248Y-122293361D01*
X152580280Y-122139002D01*
X152495571Y-121954732D01*
X152458168Y-121742105D01*
X152456444Y-121681590D01*
X152473404Y-121483302D01*
G36*
X151898559Y-115280941D02*
X151906111Y-114601638D01*
X153373666Y-114155678D01*
X153650324Y-114071701D01*
X153910730Y-113992839D01*
X154149885Y-113920593D01*
X154362794Y-113856463D01*
X154544459Y-113801950D01*
X154689883Y-113758555D01*
X154794069Y-113727780D01*
X154852021Y-113711125D01*
X154862388Y-113708526D01*
X154869097Y-113734883D01*
X154874930Y-113808877D01*
X154879525Y-113921699D01*
X154882520Y-114064546D01*
X154883555Y-114223630D01*
X154883555Y-114739927D01*
X154558262Y-114819264D01*
X154232969Y-114898602D01*
X154240762Y-115308697D01*
X154248555Y-115718793D01*
X154559000Y-115793285D01*
X154869444Y-115867777D01*
X154877166Y-116353888D01*
X154878744Y-116558817D01*
X154876065Y-116707774D01*
X154869115Y-116801071D01*
X154857880Y-116839021D01*
X154855278Y-116840000D01*
X154824291Y-116832223D01*
X154745390Y-116810107D01*
X154624744Y-116775476D01*
X154468522Y-116730152D01*
X154282891Y-116675959D01*
X154074020Y-116614720D01*
X153848077Y-116548257D01*
X153611230Y-116478394D01*
X153484357Y-116440876D01*
X153484357Y-115570000D01*
X153491343Y-115543816D01*
X153496833Y-115473406D01*
X153500090Y-115370985D01*
X153500666Y-115299987D01*
X153499743Y-115175044D01*
X153495728Y-115096875D01*
X153486750Y-115055820D01*
X153470940Y-115042223D01*
X153451277Y-115044875D01*
X153407563Y-115057513D01*
X153320478Y-115082271D01*
X153201001Y-115116041D01*
X153060114Y-115155717D01*
X152994700Y-115174095D01*
X152851737Y-115214743D01*
X152729193Y-115250554D01*
X152636830Y-115278601D01*
X152584409Y-115295953D01*
X152576296Y-115299630D01*
X152589147Y-115315305D01*
X152616595Y-115326019D01*
X152731470Y-115359506D01*
X152865673Y-115398086D01*
X153008627Y-115438785D01*
X153149758Y-115478629D01*
X153278488Y-115514644D01*
X153384241Y-115543858D01*
X153456443Y-115563296D01*
X153484357Y-115570000D01*
X153484357Y-116440876D01*
X153369647Y-116406954D01*
X153129497Y-116335760D01*
X152896947Y-116266634D01*
X152678165Y-116201401D01*
X152479321Y-116141883D01*
X152306582Y-116089902D01*
X152166116Y-116047283D01*
X152064092Y-116015848D01*
X152025559Y-116003652D01*
X151891007Y-115960245D01*
X151898559Y-115280941D01*
X151898559Y-115280941D01*
G37*
X151898559Y-115280941D02*
X151906111Y-114601638D01*
X153373666Y-114155678D01*
X153650324Y-114071701D01*
X153910730Y-113992839D01*
X154149885Y-113920593D01*
X154362794Y-113856463D01*
X154544459Y-113801950D01*
X154689883Y-113758555D01*
X154794069Y-113727780D01*
X154852021Y-113711125D01*
X154862388Y-113708526D01*
X154869097Y-113734883D01*
X154874930Y-113808877D01*
X154879525Y-113921699D01*
X154882520Y-114064546D01*
X154883555Y-114223630D01*
X154883555Y-114739927D01*
X154558262Y-114819264D01*
X154232969Y-114898602D01*
X154240762Y-115308697D01*
X154248555Y-115718793D01*
X154559000Y-115793285D01*
X154869444Y-115867777D01*
X154877166Y-116353888D01*
X154878744Y-116558817D01*
X154876065Y-116707774D01*
X154869115Y-116801071D01*
X154857880Y-116839021D01*
X154855278Y-116840000D01*
X154824291Y-116832223D01*
X154745390Y-116810107D01*
X154624744Y-116775476D01*
X154468522Y-116730152D01*
X154282891Y-116675959D01*
X154074020Y-116614720D01*
X153848077Y-116548257D01*
X153611230Y-116478394D01*
X153484357Y-116440876D01*
X153484357Y-115570000D01*
X153491343Y-115543816D01*
X153496833Y-115473406D01*
X153500090Y-115370985D01*
X153500666Y-115299987D01*
X153499743Y-115175044D01*
X153495728Y-115096875D01*
X153486750Y-115055820D01*
X153470940Y-115042223D01*
X153451277Y-115044875D01*
X153407563Y-115057513D01*
X153320478Y-115082271D01*
X153201001Y-115116041D01*
X153060114Y-115155717D01*
X152994700Y-115174095D01*
X152851737Y-115214743D01*
X152729193Y-115250554D01*
X152636830Y-115278601D01*
X152584409Y-115295953D01*
X152576296Y-115299630D01*
X152589147Y-115315305D01*
X152616595Y-115326019D01*
X152731470Y-115359506D01*
X152865673Y-115398086D01*
X153008627Y-115438785D01*
X153149758Y-115478629D01*
X153278488Y-115514644D01*
X153384241Y-115543858D01*
X153456443Y-115563296D01*
X153484357Y-115570000D01*
X153484357Y-116440876D01*
X153369647Y-116406954D01*
X153129497Y-116335760D01*
X152896947Y-116266634D01*
X152678165Y-116201401D01*
X152479321Y-116141883D01*
X152306582Y-116089902D01*
X152166116Y-116047283D01*
X152064092Y-116015848D01*
X152025559Y-116003652D01*
X151891007Y-115960245D01*
X151898559Y-115280941D01*
G36*
X152766888Y-110828666D02*
X152766888Y-111929333D01*
X154883555Y-111929333D01*
X154883555Y-112917111D01*
X152766888Y-112917111D01*
X152766888Y-114019211D01*
X152322388Y-114011438D01*
X151877888Y-114003666D01*
X151870598Y-112416166D01*
X151863307Y-110828666D01*
X152766888Y-110828666D01*
X152766888Y-110828666D01*
G37*
X152766888Y-110828666D02*
X152766888Y-111929333D01*
X154883555Y-111929333D01*
X154883555Y-112917111D01*
X152766888Y-112917111D01*
X152766888Y-114019211D01*
X152322388Y-114011438D01*
X151877888Y-114003666D01*
X151870598Y-112416166D01*
X151863307Y-110828666D01*
X152766888Y-110828666D01*
G36*
X151786166Y-126610597D02*
X151962555Y-126619000D01*
X151970220Y-127162277D01*
X151977885Y-127705555D01*
X152992666Y-127705555D01*
X152992666Y-126658640D01*
X153345444Y-126675444D01*
X153353136Y-127190500D01*
X153360828Y-127705555D01*
X154488444Y-127705555D01*
X154488444Y-126545751D01*
X154841222Y-126562555D01*
X154848724Y-127345722D01*
X154856226Y-128128888D01*
X151609777Y-128128888D01*
X151609777Y-126602195D01*
X151786166Y-126610597D01*
X151786166Y-126610597D01*
G37*
X151786166Y-126610597D02*
X151962555Y-126619000D01*
X151970220Y-127162277D01*
X151977885Y-127705555D01*
X152992666Y-127705555D01*
X152992666Y-126658640D01*
X153345444Y-126675444D01*
X153353136Y-127190500D01*
X153360828Y-127705555D01*
X154488444Y-127705555D01*
X154488444Y-126545751D01*
X154841222Y-126562555D01*
X154848724Y-127345722D01*
X154856226Y-128128888D01*
X151609777Y-128128888D01*
X151609777Y-126602195D01*
X151786166Y-126610597D01*
G36*
X152456444Y-125504222D02*
X152456444Y-125024444D01*
X152766888Y-125024444D01*
X152766888Y-125504222D01*
X153524677Y-125504222D01*
X153779170Y-125503437D01*
X153983210Y-125500613D01*
X154142772Y-125495044D01*
X154263830Y-125486021D01*
X154352362Y-125472840D01*
X154414341Y-125454794D01*
X154455743Y-125431176D01*
X154482543Y-125401281D01*
X154489040Y-125390220D01*
X154511151Y-125310077D01*
X154514888Y-125207189D01*
X154500405Y-125112125D01*
X154487451Y-125079033D01*
X154475454Y-125048788D01*
X154487936Y-125032425D01*
X154535640Y-125025719D01*
X154626223Y-125024444D01*
X154794211Y-125024444D01*
X154824772Y-125166944D01*
X154848588Y-125316370D01*
X154847349Y-125444288D01*
X154827931Y-125552904D01*
X154768037Y-125699086D01*
X154667443Y-125806659D01*
X154622234Y-125835246D01*
X154591052Y-125849466D01*
X154550857Y-125860905D01*
X154495265Y-125869946D01*
X154417892Y-125876972D01*
X154312351Y-125882368D01*
X154172259Y-125886517D01*
X153991231Y-125889803D01*
X153762883Y-125892611D01*
X153648833Y-125893763D01*
X152766888Y-125902305D01*
X152766888Y-126266222D01*
X152456444Y-126266222D01*
X152456444Y-125899333D01*
X151609777Y-125899333D01*
X151609777Y-125504222D01*
X152456444Y-125504222D01*
X152456444Y-125504222D01*
G37*
X152456444Y-125504222D02*
X152456444Y-125024444D01*
X152766888Y-125024444D01*
X152766888Y-125504222D01*
X153524677Y-125504222D01*
X153779170Y-125503437D01*
X153983210Y-125500613D01*
X154142772Y-125495044D01*
X154263830Y-125486021D01*
X154352362Y-125472840D01*
X154414341Y-125454794D01*
X154455743Y-125431176D01*
X154482543Y-125401281D01*
X154489040Y-125390220D01*
X154511151Y-125310077D01*
X154514888Y-125207189D01*
X154500405Y-125112125D01*
X154487451Y-125079033D01*
X154475454Y-125048788D01*
X154487936Y-125032425D01*
X154535640Y-125025719D01*
X154626223Y-125024444D01*
X154794211Y-125024444D01*
X154824772Y-125166944D01*
X154848588Y-125316370D01*
X154847349Y-125444288D01*
X154827931Y-125552904D01*
X154768037Y-125699086D01*
X154667443Y-125806659D01*
X154622234Y-125835246D01*
X154591052Y-125849466D01*
X154550857Y-125860905D01*
X154495265Y-125869946D01*
X154417892Y-125876972D01*
X154312351Y-125882368D01*
X154172259Y-125886517D01*
X153991231Y-125889803D01*
X153762883Y-125892611D01*
X153648833Y-125893763D01*
X152766888Y-125902305D01*
X152766888Y-126266222D01*
X152456444Y-126266222D01*
X152456444Y-125899333D01*
X151609777Y-125899333D01*
X151609777Y-125504222D01*
X152456444Y-125504222D01*
G36*
X152195704Y-124297136D02*
X152767519Y-124289496D01*
X152663996Y-124198601D01*
X152551663Y-124070266D01*
X152484271Y-123918291D01*
X152458250Y-123734017D01*
X152457684Y-123698000D01*
X152476938Y-123506955D01*
X152537015Y-123349788D01*
X152641386Y-123218057D01*
X152663283Y-123198025D01*
X152718900Y-123152498D01*
X152775936Y-123115447D01*
X152840683Y-123086011D01*
X152919433Y-123063326D01*
X153018479Y-123046529D01*
X153144115Y-123034759D01*
X153302633Y-123027153D01*
X153500326Y-123022849D01*
X153743487Y-123020984D01*
X153957344Y-123020666D01*
X154855333Y-123020666D01*
X154855333Y-123412148D01*
X153973388Y-123421018D01*
X153723644Y-123423791D01*
X153523796Y-123426814D01*
X153367295Y-123430498D01*
X153247593Y-123435254D01*
X153158141Y-123441493D01*
X153092392Y-123449626D01*
X153043795Y-123460063D01*
X153005804Y-123473217D01*
X152984367Y-123483083D01*
X152877903Y-123560312D01*
X152816810Y-123666197D01*
X152798606Y-123805750D01*
X152801006Y-123853369D01*
X152837186Y-124011568D01*
X152917188Y-124134556D01*
X153041499Y-124223687D01*
X153077280Y-124239039D01*
X153120662Y-124251408D01*
X153178335Y-124261265D01*
X153256989Y-124269080D01*
X153363315Y-124275323D01*
X153504002Y-124280464D01*
X153685741Y-124284973D01*
X153915220Y-124289320D01*
X153994555Y-124290666D01*
X154841222Y-124304777D01*
X154849576Y-124495665D01*
X154850604Y-124610023D01*
X154840684Y-124676145D01*
X154821353Y-124700550D01*
X154787041Y-124703022D01*
X154701491Y-124705098D01*
X154569909Y-124706756D01*
X154397502Y-124707975D01*
X154189476Y-124708733D01*
X153951036Y-124709009D01*
X153687388Y-124708782D01*
X153403738Y-124708030D01*
X153204333Y-124707218D01*
X151623888Y-124699888D01*
X151623888Y-124304777D01*
X152195704Y-124297136D01*
X152195704Y-124297136D01*
G37*
X152195704Y-124297136D02*
X152767519Y-124289496D01*
X152663996Y-124198601D01*
X152551663Y-124070266D01*
X152484271Y-123918291D01*
X152458250Y-123734017D01*
X152457684Y-123698000D01*
X152476938Y-123506955D01*
X152537015Y-123349788D01*
X152641386Y-123218057D01*
X152663283Y-123198025D01*
X152718900Y-123152498D01*
X152775936Y-123115447D01*
X152840683Y-123086011D01*
X152919433Y-123063326D01*
X153018479Y-123046529D01*
X153144115Y-123034759D01*
X153302633Y-123027153D01*
X153500326Y-123022849D01*
X153743487Y-123020984D01*
X153957344Y-123020666D01*
X154855333Y-123020666D01*
X154855333Y-123412148D01*
X153973388Y-123421018D01*
X153723644Y-123423791D01*
X153523796Y-123426814D01*
X153367295Y-123430498D01*
X153247593Y-123435254D01*
X153158141Y-123441493D01*
X153092392Y-123449626D01*
X153043795Y-123460063D01*
X153005804Y-123473217D01*
X152984367Y-123483083D01*
X152877903Y-123560312D01*
X152816810Y-123666197D01*
X152798606Y-123805750D01*
X152801006Y-123853369D01*
X152837186Y-124011568D01*
X152917188Y-124134556D01*
X153041499Y-124223687D01*
X153077280Y-124239039D01*
X153120662Y-124251408D01*
X153178335Y-124261265D01*
X153256989Y-124269080D01*
X153363315Y-124275323D01*
X153504002Y-124280464D01*
X153685741Y-124284973D01*
X153915220Y-124289320D01*
X153994555Y-124290666D01*
X154841222Y-124304777D01*
X154849576Y-124495665D01*
X154850604Y-124610023D01*
X154840684Y-124676145D01*
X154821353Y-124700550D01*
X154787041Y-124703022D01*
X154701491Y-124705098D01*
X154569909Y-124706756D01*
X154397502Y-124707975D01*
X154189476Y-124708733D01*
X153951036Y-124709009D01*
X153687388Y-124708782D01*
X153403738Y-124708030D01*
X153204333Y-124707218D01*
X151623888Y-124699888D01*
X151623888Y-124304777D01*
X152195704Y-124297136D01*
G36*
X152823333Y-119351777D02*
X152823333Y-119472797D01*
X152848314Y-119630773D01*
X152918287Y-119769915D01*
X153025790Y-119877443D01*
X153077759Y-119908804D01*
X153158236Y-119944501D01*
X153248070Y-119972692D01*
X153354653Y-119994167D01*
X153485375Y-120009718D01*
X153647627Y-120020139D01*
X153848801Y-120026219D01*
X154096288Y-120028751D01*
X154199166Y-120028947D01*
X154855333Y-120029111D01*
X154855333Y-120423016D01*
X153669990Y-120430675D01*
X152484648Y-120438333D01*
X152484666Y-120057333D01*
X152576388Y-120056948D01*
X152662878Y-120051339D01*
X152731383Y-120039604D01*
X152766091Y-120026993D01*
X152766888Y-120009085D01*
X152728921Y-119975532D01*
X152686766Y-119944492D01*
X152570443Y-119825992D01*
X152494525Y-119669457D01*
X152462033Y-119499944D01*
X152449454Y-119351777D01*
X152823333Y-119351777D01*
X152823333Y-119351777D01*
G37*
X152823333Y-119351777D02*
X152823333Y-119472797D01*
X152848314Y-119630773D01*
X152918287Y-119769915D01*
X153025790Y-119877443D01*
X153077759Y-119908804D01*
X153158236Y-119944501D01*
X153248070Y-119972692D01*
X153354653Y-119994167D01*
X153485375Y-120009718D01*
X153647627Y-120020139D01*
X153848801Y-120026219D01*
X154096288Y-120028751D01*
X154199166Y-120028947D01*
X154855333Y-120029111D01*
X154855333Y-120423016D01*
X153669990Y-120430675D01*
X152484648Y-120438333D01*
X152484666Y-120057333D01*
X152576388Y-120056948D01*
X152662878Y-120051339D01*
X152731383Y-120039604D01*
X152766091Y-120026993D01*
X152766888Y-120009085D01*
X152728921Y-119975532D01*
X152686766Y-119944492D01*
X152570443Y-119825992D01*
X152494525Y-119669457D01*
X152462033Y-119499944D01*
X152449454Y-119351777D01*
X152823333Y-119351777D01*
G36*
X152766888Y-105551111D02*
X152766888Y-108175777D01*
X153162000Y-108175777D01*
X153303960Y-108177199D01*
X153423243Y-108181102D01*
X153509765Y-108186947D01*
X153553439Y-108194193D01*
X153556737Y-108196944D01*
X153539609Y-108222652D01*
X153490687Y-108288004D01*
X153413433Y-108388565D01*
X153311309Y-108519901D01*
X153187777Y-108677576D01*
X153046299Y-108857155D01*
X152890336Y-109054204D01*
X152736145Y-109248222D01*
X152569237Y-109457355D01*
X152412628Y-109652649D01*
X152269894Y-109829709D01*
X152144612Y-109984143D01*
X152040358Y-110111558D01*
X151960709Y-110207560D01*
X151909241Y-110267758D01*
X151889851Y-110287740D01*
X151885265Y-110261665D01*
X151881042Y-110181720D01*
X151877212Y-110050481D01*
X151873803Y-109870522D01*
X151870844Y-109644417D01*
X151868362Y-109374742D01*
X151866385Y-109064070D01*
X151864944Y-108714975D01*
X151864065Y-108330033D01*
X151863777Y-107924129D01*
X151863777Y-105551111D01*
X152766888Y-105551111D01*
X152766888Y-105551111D01*
G37*
X152766888Y-105551111D02*
X152766888Y-108175777D01*
X153162000Y-108175777D01*
X153303960Y-108177199D01*
X153423243Y-108181102D01*
X153509765Y-108186947D01*
X153553439Y-108194193D01*
X153556737Y-108196944D01*
X153539609Y-108222652D01*
X153490687Y-108288004D01*
X153413433Y-108388565D01*
X153311309Y-108519901D01*
X153187777Y-108677576D01*
X153046299Y-108857155D01*
X152890336Y-109054204D01*
X152736145Y-109248222D01*
X152569237Y-109457355D01*
X152412628Y-109652649D01*
X152269894Y-109829709D01*
X152144612Y-109984143D01*
X152040358Y-110111558D01*
X151960709Y-110207560D01*
X151909241Y-110267758D01*
X151889851Y-110287740D01*
X151885265Y-110261665D01*
X151881042Y-110181720D01*
X151877212Y-110050481D01*
X151873803Y-109870522D01*
X151870844Y-109644417D01*
X151868362Y-109374742D01*
X151866385Y-109064070D01*
X151864944Y-108714975D01*
X151864065Y-108330033D01*
X151863777Y-107924129D01*
X151863777Y-105551111D01*
X152766888Y-105551111D01*
G36*
X150662449Y-106659938D02*
X150827037Y-106453657D01*
X150981605Y-106260320D01*
X151122440Y-106084546D01*
X151245826Y-105930951D01*
X151348051Y-105804155D01*
X151425400Y-105708773D01*
X151474159Y-105649425D01*
X151489833Y-105631238D01*
X151494767Y-105636112D01*
X151499248Y-105662495D01*
X151503294Y-105712659D01*
X151506925Y-105788873D01*
X151510159Y-105893410D01*
X151513017Y-106028541D01*
X151515517Y-106196536D01*
X151517679Y-106399668D01*
X151519521Y-106640207D01*
X151521063Y-106920424D01*
X151522325Y-107242590D01*
X151523326Y-107608978D01*
X151524084Y-108021857D01*
X151524620Y-108483500D01*
X151524951Y-108996176D01*
X151525099Y-109562158D01*
X151525111Y-109792911D01*
X151525111Y-113989555D01*
X150650222Y-113989555D01*
X150650222Y-107669327D01*
X150260282Y-107661497D01*
X149870342Y-107653666D01*
X150662449Y-106659938D01*
X150662449Y-106659938D01*
G37*
X150662449Y-106659938D02*
X150827037Y-106453657D01*
X150981605Y-106260320D01*
X151122440Y-106084546D01*
X151245826Y-105930951D01*
X151348051Y-105804155D01*
X151425400Y-105708773D01*
X151474159Y-105649425D01*
X151489833Y-105631238D01*
X151494767Y-105636112D01*
X151499248Y-105662495D01*
X151503294Y-105712659D01*
X151506925Y-105788873D01*
X151510159Y-105893410D01*
X151513017Y-106028541D01*
X151515517Y-106196536D01*
X151517679Y-106399668D01*
X151519521Y-106640207D01*
X151521063Y-106920424D01*
X151522325Y-107242590D01*
X151523326Y-107608978D01*
X151524084Y-108021857D01*
X151524620Y-108483500D01*
X151524951Y-108996176D01*
X151525099Y-109562158D01*
X151525111Y-109792911D01*
X151525111Y-113989555D01*
X150650222Y-113989555D01*
X150650222Y-107669327D01*
X150260282Y-107661497D01*
X149870342Y-107653666D01*
X150662449Y-106659938D01*
G36*
X154223249Y-111034974D02*
X154272814Y-110952469D01*
X154352640Y-110915216D01*
X154379798Y-110913333D01*
X154449316Y-110926276D01*
X154480267Y-110969777D01*
X154494129Y-111010586D01*
X154516123Y-111021673D01*
X154560465Y-111002804D01*
X154619168Y-110967476D01*
X154680157Y-110931326D01*
X154707153Y-110924711D01*
X154714013Y-110947225D01*
X154714222Y-110964688D01*
X154688986Y-111019375D01*
X154621133Y-111075504D01*
X154615444Y-111078927D01*
X154553242Y-111122180D01*
X154518982Y-111158740D01*
X154516666Y-111166381D01*
X154541473Y-111185663D01*
X154602471Y-111195303D01*
X154615444Y-111195555D01*
X154688502Y-111204735D01*
X154714043Y-111234033D01*
X154714222Y-111237888D01*
X154704323Y-111258541D01*
X154668198Y-111271406D01*
X154596198Y-111278089D01*
X154478680Y-111280200D01*
X154460222Y-111280222D01*
X154361444Y-111280222D01*
X154361444Y-111195555D01*
X154414385Y-111187687D01*
X154429171Y-111152292D01*
X154426819Y-111117944D01*
X154406264Y-111057413D01*
X154361444Y-111040333D01*
X154315271Y-111059019D01*
X154296069Y-111117944D01*
X154297131Y-111174186D01*
X154328752Y-111193884D01*
X154361444Y-111195555D01*
X154361444Y-111280222D01*
X154206222Y-111280222D01*
X154206222Y-111159501D01*
X154223249Y-111034974D01*
X154223249Y-111034974D01*
G37*
X154223249Y-111034974D02*
X154272814Y-110952469D01*
X154352640Y-110915216D01*
X154379798Y-110913333D01*
X154449316Y-110926276D01*
X154480267Y-110969777D01*
X154494129Y-111010586D01*
X154516123Y-111021673D01*
X154560465Y-111002804D01*
X154619168Y-110967476D01*
X154680157Y-110931326D01*
X154707153Y-110924711D01*
X154714013Y-110947225D01*
X154714222Y-110964688D01*
X154688986Y-111019375D01*
X154621133Y-111075504D01*
X154615444Y-111078927D01*
X154553242Y-111122180D01*
X154518982Y-111158740D01*
X154516666Y-111166381D01*
X154541473Y-111185663D01*
X154602471Y-111195303D01*
X154615444Y-111195555D01*
X154688502Y-111204735D01*
X154714043Y-111234033D01*
X154714222Y-111237888D01*
X154704323Y-111258541D01*
X154668198Y-111271406D01*
X154596198Y-111278089D01*
X154478680Y-111280200D01*
X154460222Y-111280222D01*
X154361444Y-111280222D01*
X154361444Y-111195555D01*
X154414385Y-111187687D01*
X154429171Y-111152292D01*
X154426819Y-111117944D01*
X154406264Y-111057413D01*
X154361444Y-111040333D01*
X154315271Y-111059019D01*
X154296069Y-111117944D01*
X154297131Y-111174186D01*
X154328752Y-111193884D01*
X154361444Y-111195555D01*
X154361444Y-111280222D01*
X154206222Y-111280222D01*
X154206222Y-111159501D01*
X154223249Y-111034974D01*
D15*
X120620000Y-104255000D02*
X120620000Y-105255000D01*
X120620000Y-105255000D02*
X122720000Y-105255000D01*
X120620000Y-104255000D02*
X122720000Y-104255000D01*
X120620000Y-106815000D02*
X120620000Y-107815000D01*
X120620000Y-107815000D02*
X122720000Y-107815000D01*
X120620000Y-106815000D02*
X122720000Y-106815000D01*
X120620000Y-109355000D02*
X120620000Y-110355000D01*
X120620000Y-110355000D02*
X122720000Y-110355000D01*
X120620000Y-109355000D02*
X122720000Y-109355000D01*
X120620000Y-111895000D02*
X120620000Y-112895000D01*
X120620000Y-112895000D02*
X122720000Y-112895000D01*
X120620000Y-111895000D02*
X122720000Y-111895000D01*
X120620000Y-114435000D02*
X120620000Y-115435000D01*
X120620000Y-115435000D02*
X122720000Y-115435000D01*
X120620000Y-114435000D02*
X122720000Y-114435000D01*
X120620000Y-116975000D02*
X120620000Y-117975000D01*
X120620000Y-117975000D02*
X122720000Y-117975000D01*
X120620000Y-116975000D02*
X122720000Y-116975000D01*
X120620000Y-119515000D02*
X120620000Y-120515000D01*
X120620000Y-120515000D02*
X122720000Y-120515000D01*
X120620000Y-119515000D02*
X122720000Y-119515000D01*
X120620000Y-122055000D02*
X120620000Y-123055000D01*
X120620000Y-123055000D02*
X122720000Y-123055000D01*
X120620000Y-122055000D02*
X122720000Y-122055000D01*
X146080000Y-105275000D02*
X146080000Y-104275000D01*
X146080000Y-104275000D02*
X143980000Y-104275000D01*
X146080000Y-105275000D02*
X143980000Y-105275000D01*
X146080000Y-107815000D02*
X146080000Y-106815000D01*
X146080000Y-106815000D02*
X143980000Y-106815000D01*
X146080000Y-107815000D02*
X143980000Y-107815000D01*
X146080000Y-110355000D02*
X146080000Y-109355000D01*
X146080000Y-109355000D02*
X143980000Y-109355000D01*
X146080000Y-110355000D02*
X143980000Y-110355000D01*
X146080000Y-112895000D02*
X146080000Y-111895000D01*
X146080000Y-111895000D02*
X143980000Y-111895000D01*
X146080000Y-112895000D02*
X143980000Y-112895000D01*
X146080000Y-115435000D02*
X146080000Y-114435000D01*
X146080000Y-114435000D02*
X143980000Y-114435000D01*
X146080000Y-115435000D02*
X143980000Y-115435000D01*
X146080000Y-117975000D02*
X146080000Y-116975000D01*
X146080000Y-116975000D02*
X143980000Y-116975000D01*
X146080000Y-117975000D02*
X143980000Y-117975000D01*
X146080000Y-120515000D02*
X146080000Y-119515000D01*
X146080000Y-119515000D02*
X143980000Y-119515000D01*
X146080000Y-120515000D02*
X143980000Y-120515000D01*
X146080000Y-123055000D02*
X146080000Y-122055000D01*
X146080000Y-122055000D02*
X143980000Y-122055000D01*
X146080000Y-123055000D02*
X143980000Y-123055000D01*
X108610000Y-80590000D02*
X108610000Y-84410000D01*
X108610000Y-84410000D02*
X110390000Y-84410000D01*
X110390000Y-84410000D02*
X110390000Y-80590000D01*
X108610000Y-80590000D02*
X110390000Y-80590000D01*
X135550000Y-129300000D02*
X135550000Y-128300000D01*
X133850000Y-128300000D02*
X133850000Y-129300000D01*
X132950000Y-129300000D02*
X132950000Y-128300000D01*
X131250000Y-128300000D02*
X131250000Y-129300000D01*
X106745406Y-88747487D02*
X107452513Y-89454594D01*
X108654594Y-88252513D02*
X107947487Y-87545406D01*
X156300000Y-70520000D02*
X157300000Y-70520000D01*
X157300000Y-71880000D02*
X156300000Y-71880000D01*
D13*
X143982381Y-85871905D02*
X144791905Y-85871905D01*
X144887143Y-85824286D01*
X144934762Y-85776667D01*
X144982381Y-85681429D01*
X144982381Y-85490952D01*
X144934762Y-85395714D01*
X144887143Y-85348095D01*
X144791905Y-85300476D01*
X143982381Y-85300476D01*
X144077619Y-84871905D02*
X144030000Y-84824286D01*
X143982381Y-84729048D01*
X143982381Y-84490952D01*
X144030000Y-84395714D01*
X144077619Y-84348095D01*
X144172857Y-84300476D01*
X144268095Y-84300476D01*
X144410952Y-84348095D01*
X144982381Y-84919524D01*
X144982381Y-84300476D01*
X132761905Y-100252381D02*
X132761905Y-99252381D01*
X133142858Y-99252381D01*
X133238096Y-99300000D01*
X133285715Y-99347619D01*
X133333334Y-99442857D01*
X133333334Y-99585714D01*
X133285715Y-99680952D01*
X133238096Y-99728571D01*
X133142858Y-99776190D01*
X132761905Y-99776190D01*
X134285715Y-100252381D02*
X133714286Y-100252381D01*
X134000000Y-100252381D02*
X134000000Y-99252381D01*
X133904762Y-99395238D01*
X133809524Y-99490476D01*
X133714286Y-99538095D01*
X120951667Y-58507381D02*
X120951667Y-59221667D01*
X120904047Y-59364524D01*
X120808809Y-59459762D01*
X120665952Y-59507381D01*
X120570714Y-59507381D01*
X121380238Y-58602619D02*
X121427857Y-58555000D01*
X121523095Y-58507381D01*
X121761191Y-58507381D01*
X121856429Y-58555000D01*
X121904048Y-58602619D01*
X121951667Y-58697857D01*
X121951667Y-58793095D01*
X121904048Y-58935952D01*
X121332619Y-59507381D01*
X121951667Y-59507381D01*
X102131905Y-79402381D02*
X102131905Y-78402381D01*
X102512858Y-78402381D01*
X102608096Y-78450000D01*
X102655715Y-78497619D01*
X102703334Y-78592857D01*
X102703334Y-78735714D01*
X102655715Y-78830952D01*
X102608096Y-78878571D01*
X102512858Y-78926190D01*
X102131905Y-78926190D01*
X103084286Y-78497619D02*
X103131905Y-78450000D01*
X103227143Y-78402381D01*
X103465239Y-78402381D01*
X103560477Y-78450000D01*
X103608096Y-78497619D01*
X103655715Y-78592857D01*
X103655715Y-78688095D01*
X103608096Y-78830952D01*
X103036667Y-79402381D01*
X103655715Y-79402381D01*
X163091905Y-79402381D02*
X163091905Y-78402381D01*
X163472858Y-78402381D01*
X163568096Y-78450000D01*
X163615715Y-78497619D01*
X163663334Y-78592857D01*
X163663334Y-78735714D01*
X163615715Y-78830952D01*
X163568096Y-78878571D01*
X163472858Y-78926190D01*
X163091905Y-78926190D01*
X163996667Y-78402381D02*
X164615715Y-78402381D01*
X164282381Y-78783333D01*
X164425239Y-78783333D01*
X164520477Y-78830952D01*
X164568096Y-78878571D01*
X164615715Y-78973810D01*
X164615715Y-79211905D01*
X164568096Y-79307143D01*
X164520477Y-79354762D01*
X164425239Y-79402381D01*
X164139524Y-79402381D01*
X164044286Y-79354762D01*
X163996667Y-79307143D01*
X122257143Y-86366666D02*
X122304762Y-86414285D01*
X122352381Y-86557142D01*
X122352381Y-86652380D01*
X122304762Y-86795238D01*
X122209524Y-86890476D01*
X122114286Y-86938095D01*
X121923810Y-86985714D01*
X121780952Y-86985714D01*
X121590476Y-86938095D01*
X121495238Y-86890476D01*
X121400000Y-86795238D01*
X121352381Y-86652380D01*
X121352381Y-86557142D01*
X121400000Y-86414285D01*
X121447619Y-86366666D01*
X122352381Y-85414285D02*
X122352381Y-85985714D01*
X122352381Y-85700000D02*
X121352381Y-85700000D01*
X121495238Y-85795238D01*
X121590476Y-85890476D01*
X121638095Y-85985714D01*
X147157143Y-70216666D02*
X147204762Y-70264285D01*
X147252381Y-70407142D01*
X147252381Y-70502380D01*
X147204762Y-70645238D01*
X147109524Y-70740476D01*
X147014286Y-70788095D01*
X146823810Y-70835714D01*
X146680952Y-70835714D01*
X146490476Y-70788095D01*
X146395238Y-70740476D01*
X146300000Y-70645238D01*
X146252381Y-70502380D01*
X146252381Y-70407142D01*
X146300000Y-70264285D01*
X146347619Y-70216666D01*
X146347619Y-69835714D02*
X146300000Y-69788095D01*
X146252381Y-69692857D01*
X146252381Y-69454761D01*
X146300000Y-69359523D01*
X146347619Y-69311904D01*
X146442857Y-69264285D01*
X146538095Y-69264285D01*
X146680952Y-69311904D01*
X147252381Y-69883333D01*
X147252381Y-69264285D01*
X120357143Y-70216666D02*
X120404762Y-70264285D01*
X120452381Y-70407142D01*
X120452381Y-70502380D01*
X120404762Y-70645238D01*
X120309524Y-70740476D01*
X120214286Y-70788095D01*
X120023810Y-70835714D01*
X119880952Y-70835714D01*
X119690476Y-70788095D01*
X119595238Y-70740476D01*
X119500000Y-70645238D01*
X119452381Y-70502380D01*
X119452381Y-70407142D01*
X119500000Y-70264285D01*
X119547619Y-70216666D01*
X119452381Y-69883333D02*
X119452381Y-69264285D01*
X119833333Y-69597619D01*
X119833333Y-69454761D01*
X119880952Y-69359523D01*
X119928571Y-69311904D01*
X120023810Y-69264285D01*
X120261905Y-69264285D01*
X120357143Y-69311904D01*
X120404762Y-69359523D01*
X120452381Y-69454761D01*
X120452381Y-69740476D01*
X120404762Y-69835714D01*
X120357143Y-69883333D01*
X126357143Y-91166666D02*
X126404762Y-91214285D01*
X126452381Y-91357142D01*
X126452381Y-91452380D01*
X126404762Y-91595238D01*
X126309524Y-91690476D01*
X126214286Y-91738095D01*
X126023810Y-91785714D01*
X125880952Y-91785714D01*
X125690476Y-91738095D01*
X125595238Y-91690476D01*
X125500000Y-91595238D01*
X125452381Y-91452380D01*
X125452381Y-91357142D01*
X125500000Y-91214285D01*
X125547619Y-91166666D01*
X126452381Y-90690476D02*
X126452381Y-90500000D01*
X126404762Y-90404761D01*
X126357143Y-90357142D01*
X126214286Y-90261904D01*
X126023810Y-90214285D01*
X125642857Y-90214285D01*
X125547619Y-90261904D01*
X125500000Y-90309523D01*
X125452381Y-90404761D01*
X125452381Y-90595238D01*
X125500000Y-90690476D01*
X125547619Y-90738095D01*
X125642857Y-90785714D01*
X125880952Y-90785714D01*
X125976190Y-90738095D01*
X126023810Y-90690476D01*
X126071429Y-90595238D01*
X126071429Y-90404761D01*
X126023810Y-90309523D01*
X125976190Y-90261904D01*
X125880952Y-90214285D01*
X126857143Y-85642857D02*
X126904762Y-85690476D01*
X126952381Y-85833333D01*
X126952381Y-85928571D01*
X126904762Y-86071429D01*
X126809524Y-86166667D01*
X126714286Y-86214286D01*
X126523810Y-86261905D01*
X126380952Y-86261905D01*
X126190476Y-86214286D01*
X126095238Y-86166667D01*
X126000000Y-86071429D01*
X125952381Y-85928571D01*
X125952381Y-85833333D01*
X126000000Y-85690476D01*
X126047619Y-85642857D01*
X126952381Y-84690476D02*
X126952381Y-85261905D01*
X126952381Y-84976191D02*
X125952381Y-84976191D01*
X126095238Y-85071429D01*
X126190476Y-85166667D01*
X126238095Y-85261905D01*
X125952381Y-84071429D02*
X125952381Y-83976190D01*
X126000000Y-83880952D01*
X126047619Y-83833333D01*
X126142857Y-83785714D01*
X126333333Y-83738095D01*
X126571429Y-83738095D01*
X126761905Y-83785714D01*
X126857143Y-83833333D01*
X126904762Y-83880952D01*
X126952381Y-83976190D01*
X126952381Y-84071429D01*
X126904762Y-84166667D01*
X126857143Y-84214286D01*
X126761905Y-84261905D01*
X126571429Y-84309524D01*
X126333333Y-84309524D01*
X126142857Y-84261905D01*
X126047619Y-84214286D01*
X126000000Y-84166667D01*
X125952381Y-84071429D01*
X119957143Y-77392857D02*
X120004762Y-77440476D01*
X120052381Y-77583333D01*
X120052381Y-77678571D01*
X120004762Y-77821429D01*
X119909524Y-77916667D01*
X119814286Y-77964286D01*
X119623810Y-78011905D01*
X119480952Y-78011905D01*
X119290476Y-77964286D01*
X119195238Y-77916667D01*
X119100000Y-77821429D01*
X119052381Y-77678571D01*
X119052381Y-77583333D01*
X119100000Y-77440476D01*
X119147619Y-77392857D01*
X120052381Y-76440476D02*
X120052381Y-77011905D01*
X120052381Y-76726191D02*
X119052381Y-76726191D01*
X119195238Y-76821429D01*
X119290476Y-76916667D01*
X119338095Y-77011905D01*
X120052381Y-75964286D02*
X120052381Y-75773810D01*
X120004762Y-75678571D01*
X119957143Y-75630952D01*
X119814286Y-75535714D01*
X119623810Y-75488095D01*
X119242857Y-75488095D01*
X119147619Y-75535714D01*
X119100000Y-75583333D01*
X119052381Y-75678571D01*
X119052381Y-75869048D01*
X119100000Y-75964286D01*
X119147619Y-76011905D01*
X119242857Y-76059524D01*
X119480952Y-76059524D01*
X119576190Y-76011905D01*
X119623810Y-75964286D01*
X119671429Y-75869048D01*
X119671429Y-75678571D01*
X119623810Y-75583333D01*
X119576190Y-75535714D01*
X119480952Y-75488095D01*
X119957143Y-80392857D02*
X120004762Y-80440476D01*
X120052381Y-80583333D01*
X120052381Y-80678571D01*
X120004762Y-80821429D01*
X119909524Y-80916667D01*
X119814286Y-80964286D01*
X119623810Y-81011905D01*
X119480952Y-81011905D01*
X119290476Y-80964286D01*
X119195238Y-80916667D01*
X119100000Y-80821429D01*
X119052381Y-80678571D01*
X119052381Y-80583333D01*
X119100000Y-80440476D01*
X119147619Y-80392857D01*
X119147619Y-80011905D02*
X119100000Y-79964286D01*
X119052381Y-79869048D01*
X119052381Y-79630952D01*
X119100000Y-79535714D01*
X119147619Y-79488095D01*
X119242857Y-79440476D01*
X119338095Y-79440476D01*
X119480952Y-79488095D01*
X120052381Y-80059524D01*
X120052381Y-79440476D01*
X119052381Y-78821429D02*
X119052381Y-78726190D01*
X119100000Y-78630952D01*
X119147619Y-78583333D01*
X119242857Y-78535714D01*
X119433333Y-78488095D01*
X119671429Y-78488095D01*
X119861905Y-78535714D01*
X119957143Y-78583333D01*
X120004762Y-78630952D01*
X120052381Y-78726190D01*
X120052381Y-78821429D01*
X120004762Y-78916667D01*
X119957143Y-78964286D01*
X119861905Y-79011905D01*
X119671429Y-79059524D01*
X119433333Y-79059524D01*
X119242857Y-79011905D01*
X119147619Y-78964286D01*
X119100000Y-78916667D01*
X119052381Y-78821429D01*
X142557143Y-71157143D02*
X142509524Y-71204762D01*
X142366667Y-71252381D01*
X142271429Y-71252381D01*
X142128571Y-71204762D01*
X142033333Y-71109524D01*
X141985714Y-71014286D01*
X141938095Y-70823810D01*
X141938095Y-70680952D01*
X141985714Y-70490476D01*
X142033333Y-70395238D01*
X142128571Y-70300000D01*
X142271429Y-70252381D01*
X142366667Y-70252381D01*
X142509524Y-70300000D01*
X142557143Y-70347619D01*
X142938095Y-70347619D02*
X142985714Y-70300000D01*
X143080952Y-70252381D01*
X143319048Y-70252381D01*
X143414286Y-70300000D01*
X143461905Y-70347619D01*
X143509524Y-70442857D01*
X143509524Y-70538095D01*
X143461905Y-70680952D01*
X142890476Y-71252381D01*
X143509524Y-71252381D01*
X144461905Y-71252381D02*
X143890476Y-71252381D01*
X144176190Y-71252381D02*
X144176190Y-70252381D01*
X144080952Y-70395238D01*
X143985714Y-70490476D01*
X143890476Y-70538095D01*
X139757143Y-71157143D02*
X139709524Y-71204762D01*
X139566667Y-71252381D01*
X139471429Y-71252381D01*
X139328571Y-71204762D01*
X139233333Y-71109524D01*
X139185714Y-71014286D01*
X139138095Y-70823810D01*
X139138095Y-70680952D01*
X139185714Y-70490476D01*
X139233333Y-70395238D01*
X139328571Y-70300000D01*
X139471429Y-70252381D01*
X139566667Y-70252381D01*
X139709524Y-70300000D01*
X139757143Y-70347619D01*
X140138095Y-70347619D02*
X140185714Y-70300000D01*
X140280952Y-70252381D01*
X140519048Y-70252381D01*
X140614286Y-70300000D01*
X140661905Y-70347619D01*
X140709524Y-70442857D01*
X140709524Y-70538095D01*
X140661905Y-70680952D01*
X140090476Y-71252381D01*
X140709524Y-71252381D01*
X141090476Y-70347619D02*
X141138095Y-70300000D01*
X141233333Y-70252381D01*
X141471429Y-70252381D01*
X141566667Y-70300000D01*
X141614286Y-70347619D01*
X141661905Y-70442857D01*
X141661905Y-70538095D01*
X141614286Y-70680952D01*
X141042857Y-71252381D01*
X141661905Y-71252381D01*
X136957143Y-71157143D02*
X136909524Y-71204762D01*
X136766667Y-71252381D01*
X136671429Y-71252381D01*
X136528571Y-71204762D01*
X136433333Y-71109524D01*
X136385714Y-71014286D01*
X136338095Y-70823810D01*
X136338095Y-70680952D01*
X136385714Y-70490476D01*
X136433333Y-70395238D01*
X136528571Y-70300000D01*
X136671429Y-70252381D01*
X136766667Y-70252381D01*
X136909524Y-70300000D01*
X136957143Y-70347619D01*
X137338095Y-70347619D02*
X137385714Y-70300000D01*
X137480952Y-70252381D01*
X137719048Y-70252381D01*
X137814286Y-70300000D01*
X137861905Y-70347619D01*
X137909524Y-70442857D01*
X137909524Y-70538095D01*
X137861905Y-70680952D01*
X137290476Y-71252381D01*
X137909524Y-71252381D01*
X138242857Y-70252381D02*
X138861905Y-70252381D01*
X138528571Y-70633333D01*
X138671429Y-70633333D01*
X138766667Y-70680952D01*
X138814286Y-70728571D01*
X138861905Y-70823810D01*
X138861905Y-71061905D01*
X138814286Y-71157143D01*
X138766667Y-71204762D01*
X138671429Y-71252381D01*
X138385714Y-71252381D01*
X138290476Y-71204762D01*
X138242857Y-71157143D01*
X134157143Y-71157143D02*
X134109524Y-71204762D01*
X133966667Y-71252381D01*
X133871429Y-71252381D01*
X133728571Y-71204762D01*
X133633333Y-71109524D01*
X133585714Y-71014286D01*
X133538095Y-70823810D01*
X133538095Y-70680952D01*
X133585714Y-70490476D01*
X133633333Y-70395238D01*
X133728571Y-70300000D01*
X133871429Y-70252381D01*
X133966667Y-70252381D01*
X134109524Y-70300000D01*
X134157143Y-70347619D01*
X134538095Y-70347619D02*
X134585714Y-70300000D01*
X134680952Y-70252381D01*
X134919048Y-70252381D01*
X135014286Y-70300000D01*
X135061905Y-70347619D01*
X135109524Y-70442857D01*
X135109524Y-70538095D01*
X135061905Y-70680952D01*
X134490476Y-71252381D01*
X135109524Y-71252381D01*
X135966667Y-70585714D02*
X135966667Y-71252381D01*
X135728571Y-70204762D02*
X135490476Y-70919048D01*
X136109524Y-70919048D01*
X145857143Y-78742857D02*
X145904762Y-78790476D01*
X145952381Y-78933333D01*
X145952381Y-79028571D01*
X145904762Y-79171429D01*
X145809524Y-79266667D01*
X145714286Y-79314286D01*
X145523810Y-79361905D01*
X145380952Y-79361905D01*
X145190476Y-79314286D01*
X145095238Y-79266667D01*
X145000000Y-79171429D01*
X144952381Y-79028571D01*
X144952381Y-78933333D01*
X145000000Y-78790476D01*
X145047619Y-78742857D01*
X145047619Y-78361905D02*
X145000000Y-78314286D01*
X144952381Y-78219048D01*
X144952381Y-77980952D01*
X145000000Y-77885714D01*
X145047619Y-77838095D01*
X145142857Y-77790476D01*
X145238095Y-77790476D01*
X145380952Y-77838095D01*
X145952381Y-78409524D01*
X145952381Y-77790476D01*
X144952381Y-76885714D02*
X144952381Y-77361905D01*
X145428571Y-77409524D01*
X145380952Y-77361905D01*
X145333333Y-77266667D01*
X145333333Y-77028571D01*
X145380952Y-76933333D01*
X145428571Y-76885714D01*
X145523810Y-76838095D01*
X145761905Y-76838095D01*
X145857143Y-76885714D01*
X145904762Y-76933333D01*
X145952381Y-77028571D01*
X145952381Y-77266667D01*
X145904762Y-77361905D01*
X145857143Y-77409524D01*
X122857143Y-71157143D02*
X122809524Y-71204762D01*
X122666667Y-71252381D01*
X122571429Y-71252381D01*
X122428571Y-71204762D01*
X122333333Y-71109524D01*
X122285714Y-71014286D01*
X122238095Y-70823810D01*
X122238095Y-70680952D01*
X122285714Y-70490476D01*
X122333333Y-70395238D01*
X122428571Y-70300000D01*
X122571429Y-70252381D01*
X122666667Y-70252381D01*
X122809524Y-70300000D01*
X122857143Y-70347619D01*
X123238095Y-70347619D02*
X123285714Y-70300000D01*
X123380952Y-70252381D01*
X123619048Y-70252381D01*
X123714286Y-70300000D01*
X123761905Y-70347619D01*
X123809524Y-70442857D01*
X123809524Y-70538095D01*
X123761905Y-70680952D01*
X123190476Y-71252381D01*
X123809524Y-71252381D01*
X124666667Y-70252381D02*
X124476190Y-70252381D01*
X124380952Y-70300000D01*
X124333333Y-70347619D01*
X124238095Y-70490476D01*
X124190476Y-70680952D01*
X124190476Y-71061905D01*
X124238095Y-71157143D01*
X124285714Y-71204762D01*
X124380952Y-71252381D01*
X124571429Y-71252381D01*
X124666667Y-71204762D01*
X124714286Y-71157143D01*
X124761905Y-71061905D01*
X124761905Y-70823810D01*
X124714286Y-70728571D01*
X124666667Y-70680952D01*
X124571429Y-70633333D01*
X124380952Y-70633333D01*
X124285714Y-70680952D01*
X124238095Y-70728571D01*
X124190476Y-70823810D01*
X125657143Y-71157143D02*
X125609524Y-71204762D01*
X125466667Y-71252381D01*
X125371429Y-71252381D01*
X125228571Y-71204762D01*
X125133333Y-71109524D01*
X125085714Y-71014286D01*
X125038095Y-70823810D01*
X125038095Y-70680952D01*
X125085714Y-70490476D01*
X125133333Y-70395238D01*
X125228571Y-70300000D01*
X125371429Y-70252381D01*
X125466667Y-70252381D01*
X125609524Y-70300000D01*
X125657143Y-70347619D01*
X126038095Y-70347619D02*
X126085714Y-70300000D01*
X126180952Y-70252381D01*
X126419048Y-70252381D01*
X126514286Y-70300000D01*
X126561905Y-70347619D01*
X126609524Y-70442857D01*
X126609524Y-70538095D01*
X126561905Y-70680952D01*
X125990476Y-71252381D01*
X126609524Y-71252381D01*
X126942857Y-70252381D02*
X127609524Y-70252381D01*
X127180952Y-71252381D01*
X128457143Y-71157143D02*
X128409524Y-71204762D01*
X128266667Y-71252381D01*
X128171429Y-71252381D01*
X128028571Y-71204762D01*
X127933333Y-71109524D01*
X127885714Y-71014286D01*
X127838095Y-70823810D01*
X127838095Y-70680952D01*
X127885714Y-70490476D01*
X127933333Y-70395238D01*
X128028571Y-70300000D01*
X128171429Y-70252381D01*
X128266667Y-70252381D01*
X128409524Y-70300000D01*
X128457143Y-70347619D01*
X128838095Y-70347619D02*
X128885714Y-70300000D01*
X128980952Y-70252381D01*
X129219048Y-70252381D01*
X129314286Y-70300000D01*
X129361905Y-70347619D01*
X129409524Y-70442857D01*
X129409524Y-70538095D01*
X129361905Y-70680952D01*
X128790476Y-71252381D01*
X129409524Y-71252381D01*
X129980952Y-70680952D02*
X129885714Y-70633333D01*
X129838095Y-70585714D01*
X129790476Y-70490476D01*
X129790476Y-70442857D01*
X129838095Y-70347619D01*
X129885714Y-70300000D01*
X129980952Y-70252381D01*
X130171429Y-70252381D01*
X130266667Y-70300000D01*
X130314286Y-70347619D01*
X130361905Y-70442857D01*
X130361905Y-70490476D01*
X130314286Y-70585714D01*
X130266667Y-70633333D01*
X130171429Y-70680952D01*
X129980952Y-70680952D01*
X129885714Y-70728571D01*
X129838095Y-70776190D01*
X129790476Y-70871429D01*
X129790476Y-71061905D01*
X129838095Y-71157143D01*
X129885714Y-71204762D01*
X129980952Y-71252381D01*
X130171429Y-71252381D01*
X130266667Y-71204762D01*
X130314286Y-71157143D01*
X130361905Y-71061905D01*
X130361905Y-70871429D01*
X130314286Y-70776190D01*
X130266667Y-70728571D01*
X130171429Y-70680952D01*
X131257143Y-71157143D02*
X131209524Y-71204762D01*
X131066667Y-71252381D01*
X130971429Y-71252381D01*
X130828571Y-71204762D01*
X130733333Y-71109524D01*
X130685714Y-71014286D01*
X130638095Y-70823810D01*
X130638095Y-70680952D01*
X130685714Y-70490476D01*
X130733333Y-70395238D01*
X130828571Y-70300000D01*
X130971429Y-70252381D01*
X131066667Y-70252381D01*
X131209524Y-70300000D01*
X131257143Y-70347619D01*
X131638095Y-70347619D02*
X131685714Y-70300000D01*
X131780952Y-70252381D01*
X132019048Y-70252381D01*
X132114286Y-70300000D01*
X132161905Y-70347619D01*
X132209524Y-70442857D01*
X132209524Y-70538095D01*
X132161905Y-70680952D01*
X131590476Y-71252381D01*
X132209524Y-71252381D01*
X132685714Y-71252381D02*
X132876190Y-71252381D01*
X132971429Y-71204762D01*
X133019048Y-71157143D01*
X133114286Y-71014286D01*
X133161905Y-70823810D01*
X133161905Y-70442857D01*
X133114286Y-70347619D01*
X133066667Y-70300000D01*
X132971429Y-70252381D01*
X132780952Y-70252381D01*
X132685714Y-70300000D01*
X132638095Y-70347619D01*
X132590476Y-70442857D01*
X132590476Y-70680952D01*
X132638095Y-70776190D01*
X132685714Y-70823810D01*
X132780952Y-70871429D01*
X132971429Y-70871429D01*
X133066667Y-70823810D01*
X133114286Y-70776190D01*
X133161905Y-70680952D01*
X107061905Y-124052381D02*
X107061905Y-123052381D01*
X107300000Y-123052381D01*
X107442858Y-123100000D01*
X107538096Y-123195238D01*
X107585715Y-123290476D01*
X107633334Y-123480952D01*
X107633334Y-123623810D01*
X107585715Y-123814286D01*
X107538096Y-123909524D01*
X107442858Y-124004762D01*
X107300000Y-124052381D01*
X107061905Y-124052381D01*
X108585715Y-124052381D02*
X108014286Y-124052381D01*
X108300000Y-124052381D02*
X108300000Y-123052381D01*
X108204762Y-123195238D01*
X108109524Y-123290476D01*
X108014286Y-123338095D01*
X107061905Y-126852381D02*
X107061905Y-125852381D01*
X107300000Y-125852381D01*
X107442858Y-125900000D01*
X107538096Y-125995238D01*
X107585715Y-126090476D01*
X107633334Y-126280952D01*
X107633334Y-126423810D01*
X107585715Y-126614286D01*
X107538096Y-126709524D01*
X107442858Y-126804762D01*
X107300000Y-126852381D01*
X107061905Y-126852381D01*
X108014286Y-125947619D02*
X108061905Y-125900000D01*
X108157143Y-125852381D01*
X108395239Y-125852381D01*
X108490477Y-125900000D01*
X108538096Y-125947619D01*
X108585715Y-126042857D01*
X108585715Y-126138095D01*
X108538096Y-126280952D01*
X107966667Y-126852381D01*
X108585715Y-126852381D01*
X116233334Y-124052381D02*
X115900000Y-123576190D01*
X115661905Y-124052381D02*
X115661905Y-123052381D01*
X116042858Y-123052381D01*
X116138096Y-123100000D01*
X116185715Y-123147619D01*
X116233334Y-123242857D01*
X116233334Y-123385714D01*
X116185715Y-123480952D01*
X116138096Y-123528571D01*
X116042858Y-123576190D01*
X115661905Y-123576190D01*
X117185715Y-124052381D02*
X116614286Y-124052381D01*
X116900000Y-124052381D02*
X116900000Y-123052381D01*
X116804762Y-123195238D01*
X116709524Y-123290476D01*
X116614286Y-123338095D01*
X116233334Y-126852381D02*
X115900000Y-126376190D01*
X115661905Y-126852381D02*
X115661905Y-125852381D01*
X116042858Y-125852381D01*
X116138096Y-125900000D01*
X116185715Y-125947619D01*
X116233334Y-126042857D01*
X116233334Y-126185714D01*
X116185715Y-126280952D01*
X116138096Y-126328571D01*
X116042858Y-126376190D01*
X115661905Y-126376190D01*
X116614286Y-125947619D02*
X116661905Y-125900000D01*
X116757143Y-125852381D01*
X116995239Y-125852381D01*
X117090477Y-125900000D01*
X117138096Y-125947619D01*
X117185715Y-126042857D01*
X117185715Y-126138095D01*
X117138096Y-126280952D01*
X116566667Y-126852381D01*
X117185715Y-126852381D01*
X120852381Y-86266666D02*
X120376190Y-86600000D01*
X120852381Y-86838095D02*
X119852381Y-86838095D01*
X119852381Y-86457142D01*
X119900000Y-86361904D01*
X119947619Y-86314285D01*
X120042857Y-86266666D01*
X120185714Y-86266666D01*
X120280952Y-86314285D01*
X120328571Y-86361904D01*
X120376190Y-86457142D01*
X120376190Y-86838095D01*
X120185714Y-85409523D02*
X120852381Y-85409523D01*
X119804762Y-85647619D02*
X120519048Y-85885714D01*
X120519048Y-85266666D01*
X140602381Y-76516666D02*
X140126190Y-76850000D01*
X140602381Y-77088095D02*
X139602381Y-77088095D01*
X139602381Y-76707142D01*
X139650000Y-76611904D01*
X139697619Y-76564285D01*
X139792857Y-76516666D01*
X139935714Y-76516666D01*
X140030952Y-76564285D01*
X140078571Y-76611904D01*
X140126190Y-76707142D01*
X140126190Y-77088095D01*
X140030952Y-75945238D02*
X139983333Y-76040476D01*
X139935714Y-76088095D01*
X139840476Y-76135714D01*
X139792857Y-76135714D01*
X139697619Y-76088095D01*
X139650000Y-76040476D01*
X139602381Y-75945238D01*
X139602381Y-75754761D01*
X139650000Y-75659523D01*
X139697619Y-75611904D01*
X139792857Y-75564285D01*
X139840476Y-75564285D01*
X139935714Y-75611904D01*
X139983333Y-75659523D01*
X140030952Y-75754761D01*
X140030952Y-75945238D01*
X140078571Y-76040476D01*
X140126190Y-76088095D01*
X140221429Y-76135714D01*
X140411905Y-76135714D01*
X140507143Y-76088095D01*
X140554762Y-76040476D01*
X140602381Y-75945238D01*
X140602381Y-75754761D01*
X140554762Y-75659523D01*
X140507143Y-75611904D01*
X140411905Y-75564285D01*
X140221429Y-75564285D01*
X140126190Y-75611904D01*
X140078571Y-75659523D01*
X140030952Y-75754761D01*
X138652381Y-76516666D02*
X138176190Y-76850000D01*
X138652381Y-77088095D02*
X137652381Y-77088095D01*
X137652381Y-76707142D01*
X137700000Y-76611904D01*
X137747619Y-76564285D01*
X137842857Y-76516666D01*
X137985714Y-76516666D01*
X138080952Y-76564285D01*
X138128571Y-76611904D01*
X138176190Y-76707142D01*
X138176190Y-77088095D01*
X138652381Y-76040476D02*
X138652381Y-75850000D01*
X138604762Y-75754761D01*
X138557143Y-75707142D01*
X138414286Y-75611904D01*
X138223810Y-75564285D01*
X137842857Y-75564285D01*
X137747619Y-75611904D01*
X137700000Y-75659523D01*
X137652381Y-75754761D01*
X137652381Y-75945238D01*
X137700000Y-76040476D01*
X137747619Y-76088095D01*
X137842857Y-76135714D01*
X138080952Y-76135714D01*
X138176190Y-76088095D01*
X138223810Y-76040476D01*
X138271429Y-75945238D01*
X138271429Y-75754761D01*
X138223810Y-75659523D01*
X138176190Y-75611904D01*
X138080952Y-75564285D01*
X136652381Y-77492857D02*
X136176190Y-77826191D01*
X136652381Y-78064286D02*
X135652381Y-78064286D01*
X135652381Y-77683333D01*
X135700000Y-77588095D01*
X135747619Y-77540476D01*
X135842857Y-77492857D01*
X135985714Y-77492857D01*
X136080952Y-77540476D01*
X136128571Y-77588095D01*
X136176190Y-77683333D01*
X136176190Y-78064286D01*
X136652381Y-76540476D02*
X136652381Y-77111905D01*
X136652381Y-76826191D02*
X135652381Y-76826191D01*
X135795238Y-76921429D01*
X135890476Y-77016667D01*
X135938095Y-77111905D01*
X135652381Y-75921429D02*
X135652381Y-75826190D01*
X135700000Y-75730952D01*
X135747619Y-75683333D01*
X135842857Y-75635714D01*
X136033333Y-75588095D01*
X136271429Y-75588095D01*
X136461905Y-75635714D01*
X136557143Y-75683333D01*
X136604762Y-75730952D01*
X136652381Y-75826190D01*
X136652381Y-75921429D01*
X136604762Y-76016667D01*
X136557143Y-76064286D01*
X136461905Y-76111905D01*
X136271429Y-76159524D01*
X136033333Y-76159524D01*
X135842857Y-76111905D01*
X135747619Y-76064286D01*
X135700000Y-76016667D01*
X135652381Y-75921429D01*
X134752381Y-77492857D02*
X134276190Y-77826191D01*
X134752381Y-78064286D02*
X133752381Y-78064286D01*
X133752381Y-77683333D01*
X133800000Y-77588095D01*
X133847619Y-77540476D01*
X133942857Y-77492857D01*
X134085714Y-77492857D01*
X134180952Y-77540476D01*
X134228571Y-77588095D01*
X134276190Y-77683333D01*
X134276190Y-78064286D01*
X134752381Y-76540476D02*
X134752381Y-77111905D01*
X134752381Y-76826191D02*
X133752381Y-76826191D01*
X133895238Y-76921429D01*
X133990476Y-77016667D01*
X134038095Y-77111905D01*
X134752381Y-75588095D02*
X134752381Y-76159524D01*
X134752381Y-75873810D02*
X133752381Y-75873810D01*
X133895238Y-75969048D01*
X133990476Y-76064286D01*
X134038095Y-76159524D01*
X125452381Y-87242857D02*
X124976190Y-87576191D01*
X125452381Y-87814286D02*
X124452381Y-87814286D01*
X124452381Y-87433333D01*
X124500000Y-87338095D01*
X124547619Y-87290476D01*
X124642857Y-87242857D01*
X124785714Y-87242857D01*
X124880952Y-87290476D01*
X124928571Y-87338095D01*
X124976190Y-87433333D01*
X124976190Y-87814286D01*
X125452381Y-86290476D02*
X125452381Y-86861905D01*
X125452381Y-86576191D02*
X124452381Y-86576191D01*
X124595238Y-86671429D01*
X124690476Y-86766667D01*
X124738095Y-86861905D01*
X124547619Y-85909524D02*
X124500000Y-85861905D01*
X124452381Y-85766667D01*
X124452381Y-85528571D01*
X124500000Y-85433333D01*
X124547619Y-85385714D01*
X124642857Y-85338095D01*
X124738095Y-85338095D01*
X124880952Y-85385714D01*
X125452381Y-85957143D01*
X125452381Y-85338095D01*
X127052381Y-77492857D02*
X126576190Y-77826191D01*
X127052381Y-78064286D02*
X126052381Y-78064286D01*
X126052381Y-77683333D01*
X126100000Y-77588095D01*
X126147619Y-77540476D01*
X126242857Y-77492857D01*
X126385714Y-77492857D01*
X126480952Y-77540476D01*
X126528571Y-77588095D01*
X126576190Y-77683333D01*
X126576190Y-78064286D01*
X127052381Y-76540476D02*
X127052381Y-77111905D01*
X127052381Y-76826191D02*
X126052381Y-76826191D01*
X126195238Y-76921429D01*
X126290476Y-77016667D01*
X126338095Y-77111905D01*
X126385714Y-75683333D02*
X127052381Y-75683333D01*
X126004762Y-75921429D02*
X126719048Y-76159524D01*
X126719048Y-75540476D01*
X128952381Y-77492857D02*
X128476190Y-77826191D01*
X128952381Y-78064286D02*
X127952381Y-78064286D01*
X127952381Y-77683333D01*
X128000000Y-77588095D01*
X128047619Y-77540476D01*
X128142857Y-77492857D01*
X128285714Y-77492857D01*
X128380952Y-77540476D01*
X128428571Y-77588095D01*
X128476190Y-77683333D01*
X128476190Y-78064286D01*
X128952381Y-76540476D02*
X128952381Y-77111905D01*
X128952381Y-76826191D02*
X127952381Y-76826191D01*
X128095238Y-76921429D01*
X128190476Y-77016667D01*
X128238095Y-77111905D01*
X127952381Y-75635714D02*
X127952381Y-76111905D01*
X128428571Y-76159524D01*
X128380952Y-76111905D01*
X128333333Y-76016667D01*
X128333333Y-75778571D01*
X128380952Y-75683333D01*
X128428571Y-75635714D01*
X128523810Y-75588095D01*
X128761905Y-75588095D01*
X128857143Y-75635714D01*
X128904762Y-75683333D01*
X128952381Y-75778571D01*
X128952381Y-76016667D01*
X128904762Y-76111905D01*
X128857143Y-76159524D01*
X130902381Y-77492857D02*
X130426190Y-77826191D01*
X130902381Y-78064286D02*
X129902381Y-78064286D01*
X129902381Y-77683333D01*
X129950000Y-77588095D01*
X129997619Y-77540476D01*
X130092857Y-77492857D01*
X130235714Y-77492857D01*
X130330952Y-77540476D01*
X130378571Y-77588095D01*
X130426190Y-77683333D01*
X130426190Y-78064286D01*
X130902381Y-76540476D02*
X130902381Y-77111905D01*
X130902381Y-76826191D02*
X129902381Y-76826191D01*
X130045238Y-76921429D01*
X130140476Y-77016667D01*
X130188095Y-77111905D01*
X129902381Y-75683333D02*
X129902381Y-75873810D01*
X129950000Y-75969048D01*
X129997619Y-76016667D01*
X130140476Y-76111905D01*
X130330952Y-76159524D01*
X130711905Y-76159524D01*
X130807143Y-76111905D01*
X130854762Y-76064286D01*
X130902381Y-75969048D01*
X130902381Y-75778571D01*
X130854762Y-75683333D01*
X130807143Y-75635714D01*
X130711905Y-75588095D01*
X130473810Y-75588095D01*
X130378571Y-75635714D01*
X130330952Y-75683333D01*
X130283333Y-75778571D01*
X130283333Y-75969048D01*
X130330952Y-76064286D01*
X130378571Y-76111905D01*
X130473810Y-76159524D01*
X132852381Y-77492857D02*
X132376190Y-77826191D01*
X132852381Y-78064286D02*
X131852381Y-78064286D01*
X131852381Y-77683333D01*
X131900000Y-77588095D01*
X131947619Y-77540476D01*
X132042857Y-77492857D01*
X132185714Y-77492857D01*
X132280952Y-77540476D01*
X132328571Y-77588095D01*
X132376190Y-77683333D01*
X132376190Y-78064286D01*
X132852381Y-76540476D02*
X132852381Y-77111905D01*
X132852381Y-76826191D02*
X131852381Y-76826191D01*
X131995238Y-76921429D01*
X132090476Y-77016667D01*
X132138095Y-77111905D01*
X131852381Y-76207143D02*
X131852381Y-75540476D01*
X132852381Y-75969048D01*
X151052381Y-76042857D02*
X150576190Y-76376191D01*
X151052381Y-76614286D02*
X150052381Y-76614286D01*
X150052381Y-76233333D01*
X150100000Y-76138095D01*
X150147619Y-76090476D01*
X150242857Y-76042857D01*
X150385714Y-76042857D01*
X150480952Y-76090476D01*
X150528571Y-76138095D01*
X150576190Y-76233333D01*
X150576190Y-76614286D01*
X151052381Y-75090476D02*
X151052381Y-75661905D01*
X151052381Y-75376191D02*
X150052381Y-75376191D01*
X150195238Y-75471429D01*
X150290476Y-75566667D01*
X150338095Y-75661905D01*
X151052381Y-74614286D02*
X151052381Y-74423810D01*
X151004762Y-74328571D01*
X150957143Y-74280952D01*
X150814286Y-74185714D01*
X150623810Y-74138095D01*
X150242857Y-74138095D01*
X150147619Y-74185714D01*
X150100000Y-74233333D01*
X150052381Y-74328571D01*
X150052381Y-74519048D01*
X150100000Y-74614286D01*
X150147619Y-74661905D01*
X150242857Y-74709524D01*
X150480952Y-74709524D01*
X150576190Y-74661905D01*
X150623810Y-74614286D01*
X150671429Y-74519048D01*
X150671429Y-74328571D01*
X150623810Y-74233333D01*
X150576190Y-74185714D01*
X150480952Y-74138095D01*
X152652381Y-76042857D02*
X152176190Y-76376191D01*
X152652381Y-76614286D02*
X151652381Y-76614286D01*
X151652381Y-76233333D01*
X151700000Y-76138095D01*
X151747619Y-76090476D01*
X151842857Y-76042857D01*
X151985714Y-76042857D01*
X152080952Y-76090476D01*
X152128571Y-76138095D01*
X152176190Y-76233333D01*
X152176190Y-76614286D01*
X151747619Y-75661905D02*
X151700000Y-75614286D01*
X151652381Y-75519048D01*
X151652381Y-75280952D01*
X151700000Y-75185714D01*
X151747619Y-75138095D01*
X151842857Y-75090476D01*
X151938095Y-75090476D01*
X152080952Y-75138095D01*
X152652381Y-75709524D01*
X152652381Y-75090476D01*
X151652381Y-74471429D02*
X151652381Y-74376190D01*
X151700000Y-74280952D01*
X151747619Y-74233333D01*
X151842857Y-74185714D01*
X152033333Y-74138095D01*
X152271429Y-74138095D01*
X152461905Y-74185714D01*
X152557143Y-74233333D01*
X152604762Y-74280952D01*
X152652381Y-74376190D01*
X152652381Y-74471429D01*
X152604762Y-74566667D01*
X152557143Y-74614286D01*
X152461905Y-74661905D01*
X152271429Y-74709524D01*
X152033333Y-74709524D01*
X151842857Y-74661905D01*
X151747619Y-74614286D01*
X151700000Y-74566667D01*
X151652381Y-74471429D01*
X123852381Y-87242857D02*
X123376190Y-87576191D01*
X123852381Y-87814286D02*
X122852381Y-87814286D01*
X122852381Y-87433333D01*
X122900000Y-87338095D01*
X122947619Y-87290476D01*
X123042857Y-87242857D01*
X123185714Y-87242857D01*
X123280952Y-87290476D01*
X123328571Y-87338095D01*
X123376190Y-87433333D01*
X123376190Y-87814286D01*
X122947619Y-86861905D02*
X122900000Y-86814286D01*
X122852381Y-86719048D01*
X122852381Y-86480952D01*
X122900000Y-86385714D01*
X122947619Y-86338095D01*
X123042857Y-86290476D01*
X123138095Y-86290476D01*
X123280952Y-86338095D01*
X123852381Y-86909524D01*
X123852381Y-86290476D01*
X123852381Y-85338095D02*
X123852381Y-85909524D01*
X123852381Y-85623810D02*
X122852381Y-85623810D01*
X122995238Y-85719048D01*
X123090476Y-85814286D01*
X123138095Y-85909524D01*
X138238095Y-89452381D02*
X138238095Y-90261905D01*
X138285714Y-90357143D01*
X138333333Y-90404762D01*
X138428571Y-90452381D01*
X138619048Y-90452381D01*
X138714286Y-90404762D01*
X138761905Y-90357143D01*
X138809524Y-90261905D01*
X138809524Y-89452381D01*
X139809524Y-90452381D02*
X139238095Y-90452381D01*
X139523809Y-90452381D02*
X139523809Y-89452381D01*
X139428571Y-89595238D01*
X139333333Y-89690476D01*
X139238095Y-89738095D01*
X122813809Y-75376190D02*
X122813809Y-75852381D01*
X122480476Y-74852381D02*
X122813809Y-75376190D01*
X123147143Y-74852381D01*
X124004286Y-75852381D02*
X123432857Y-75852381D01*
X123718571Y-75852381D02*
X123718571Y-74852381D01*
X123623333Y-74995238D01*
X123528095Y-75090476D01*
X123432857Y-75138095D01*
X142541667Y-58507381D02*
X142541667Y-59221667D01*
X142494047Y-59364524D01*
X142398809Y-59459762D01*
X142255952Y-59507381D01*
X142160714Y-59507381D01*
X143541667Y-59507381D02*
X142970238Y-59507381D01*
X143255952Y-59507381D02*
X143255952Y-58507381D01*
X143160714Y-58650238D01*
X143065476Y-58745476D01*
X142970238Y-58793095D01*
X121181905Y-103957381D02*
X121181905Y-102957381D01*
X121420000Y-102957381D01*
X121562858Y-103005000D01*
X121658096Y-103100238D01*
X121705715Y-103195476D01*
X121753334Y-103385952D01*
X121753334Y-103528810D01*
X121705715Y-103719286D01*
X121658096Y-103814524D01*
X121562858Y-103909762D01*
X121420000Y-103957381D01*
X121181905Y-103957381D01*
X122086667Y-102957381D02*
X122705715Y-102957381D01*
X122372381Y-103338333D01*
X122515239Y-103338333D01*
X122610477Y-103385952D01*
X122658096Y-103433571D01*
X122705715Y-103528810D01*
X122705715Y-103766905D01*
X122658096Y-103862143D01*
X122610477Y-103909762D01*
X122515239Y-103957381D01*
X122229524Y-103957381D01*
X122134286Y-103909762D01*
X122086667Y-103862143D01*
X121181905Y-106517381D02*
X121181905Y-105517381D01*
X121420000Y-105517381D01*
X121562858Y-105565000D01*
X121658096Y-105660238D01*
X121705715Y-105755476D01*
X121753334Y-105945952D01*
X121753334Y-106088810D01*
X121705715Y-106279286D01*
X121658096Y-106374524D01*
X121562858Y-106469762D01*
X121420000Y-106517381D01*
X121181905Y-106517381D01*
X122610477Y-105850714D02*
X122610477Y-106517381D01*
X122372381Y-105469762D02*
X122134286Y-106184048D01*
X122753334Y-106184048D01*
X121181905Y-109057381D02*
X121181905Y-108057381D01*
X121420000Y-108057381D01*
X121562858Y-108105000D01*
X121658096Y-108200238D01*
X121705715Y-108295476D01*
X121753334Y-108485952D01*
X121753334Y-108628810D01*
X121705715Y-108819286D01*
X121658096Y-108914524D01*
X121562858Y-109009762D01*
X121420000Y-109057381D01*
X121181905Y-109057381D01*
X122658096Y-108057381D02*
X122181905Y-108057381D01*
X122134286Y-108533571D01*
X122181905Y-108485952D01*
X122277143Y-108438333D01*
X122515239Y-108438333D01*
X122610477Y-108485952D01*
X122658096Y-108533571D01*
X122705715Y-108628810D01*
X122705715Y-108866905D01*
X122658096Y-108962143D01*
X122610477Y-109009762D01*
X122515239Y-109057381D01*
X122277143Y-109057381D01*
X122181905Y-109009762D01*
X122134286Y-108962143D01*
X121181905Y-111597381D02*
X121181905Y-110597381D01*
X121420000Y-110597381D01*
X121562858Y-110645000D01*
X121658096Y-110740238D01*
X121705715Y-110835476D01*
X121753334Y-111025952D01*
X121753334Y-111168810D01*
X121705715Y-111359286D01*
X121658096Y-111454524D01*
X121562858Y-111549762D01*
X121420000Y-111597381D01*
X121181905Y-111597381D01*
X122610477Y-110597381D02*
X122420000Y-110597381D01*
X122324762Y-110645000D01*
X122277143Y-110692619D01*
X122181905Y-110835476D01*
X122134286Y-111025952D01*
X122134286Y-111406905D01*
X122181905Y-111502143D01*
X122229524Y-111549762D01*
X122324762Y-111597381D01*
X122515239Y-111597381D01*
X122610477Y-111549762D01*
X122658096Y-111502143D01*
X122705715Y-111406905D01*
X122705715Y-111168810D01*
X122658096Y-111073571D01*
X122610477Y-111025952D01*
X122515239Y-110978333D01*
X122324762Y-110978333D01*
X122229524Y-111025952D01*
X122181905Y-111073571D01*
X122134286Y-111168810D01*
X121181905Y-114137381D02*
X121181905Y-113137381D01*
X121420000Y-113137381D01*
X121562858Y-113185000D01*
X121658096Y-113280238D01*
X121705715Y-113375476D01*
X121753334Y-113565952D01*
X121753334Y-113708810D01*
X121705715Y-113899286D01*
X121658096Y-113994524D01*
X121562858Y-114089762D01*
X121420000Y-114137381D01*
X121181905Y-114137381D01*
X122086667Y-113137381D02*
X122753334Y-113137381D01*
X122324762Y-114137381D01*
X121181905Y-116677381D02*
X121181905Y-115677381D01*
X121420000Y-115677381D01*
X121562858Y-115725000D01*
X121658096Y-115820238D01*
X121705715Y-115915476D01*
X121753334Y-116105952D01*
X121753334Y-116248810D01*
X121705715Y-116439286D01*
X121658096Y-116534524D01*
X121562858Y-116629762D01*
X121420000Y-116677381D01*
X121181905Y-116677381D01*
X122324762Y-116105952D02*
X122229524Y-116058333D01*
X122181905Y-116010714D01*
X122134286Y-115915476D01*
X122134286Y-115867857D01*
X122181905Y-115772619D01*
X122229524Y-115725000D01*
X122324762Y-115677381D01*
X122515239Y-115677381D01*
X122610477Y-115725000D01*
X122658096Y-115772619D01*
X122705715Y-115867857D01*
X122705715Y-115915476D01*
X122658096Y-116010714D01*
X122610477Y-116058333D01*
X122515239Y-116105952D01*
X122324762Y-116105952D01*
X122229524Y-116153571D01*
X122181905Y-116201190D01*
X122134286Y-116296429D01*
X122134286Y-116486905D01*
X122181905Y-116582143D01*
X122229524Y-116629762D01*
X122324762Y-116677381D01*
X122515239Y-116677381D01*
X122610477Y-116629762D01*
X122658096Y-116582143D01*
X122705715Y-116486905D01*
X122705715Y-116296429D01*
X122658096Y-116201190D01*
X122610477Y-116153571D01*
X122515239Y-116105952D01*
X121181905Y-119217381D02*
X121181905Y-118217381D01*
X121420000Y-118217381D01*
X121562858Y-118265000D01*
X121658096Y-118360238D01*
X121705715Y-118455476D01*
X121753334Y-118645952D01*
X121753334Y-118788810D01*
X121705715Y-118979286D01*
X121658096Y-119074524D01*
X121562858Y-119169762D01*
X121420000Y-119217381D01*
X121181905Y-119217381D01*
X122229524Y-119217381D02*
X122420000Y-119217381D01*
X122515239Y-119169762D01*
X122562858Y-119122143D01*
X122658096Y-118979286D01*
X122705715Y-118788810D01*
X122705715Y-118407857D01*
X122658096Y-118312619D01*
X122610477Y-118265000D01*
X122515239Y-118217381D01*
X122324762Y-118217381D01*
X122229524Y-118265000D01*
X122181905Y-118312619D01*
X122134286Y-118407857D01*
X122134286Y-118645952D01*
X122181905Y-118741190D01*
X122229524Y-118788810D01*
X122324762Y-118836429D01*
X122515239Y-118836429D01*
X122610477Y-118788810D01*
X122658096Y-118741190D01*
X122705715Y-118645952D01*
X120705714Y-121757381D02*
X120705714Y-120757381D01*
X120943809Y-120757381D01*
X121086667Y-120805000D01*
X121181905Y-120900238D01*
X121229524Y-120995476D01*
X121277143Y-121185952D01*
X121277143Y-121328810D01*
X121229524Y-121519286D01*
X121181905Y-121614524D01*
X121086667Y-121709762D01*
X120943809Y-121757381D01*
X120705714Y-121757381D01*
X122229524Y-121757381D02*
X121658095Y-121757381D01*
X121943809Y-121757381D02*
X121943809Y-120757381D01*
X121848571Y-120900238D01*
X121753333Y-120995476D01*
X121658095Y-121043095D01*
X122848571Y-120757381D02*
X122943810Y-120757381D01*
X123039048Y-120805000D01*
X123086667Y-120852619D01*
X123134286Y-120947857D01*
X123181905Y-121138333D01*
X123181905Y-121376429D01*
X123134286Y-121566905D01*
X123086667Y-121662143D01*
X123039048Y-121709762D01*
X122943810Y-121757381D01*
X122848571Y-121757381D01*
X122753333Y-121709762D01*
X122705714Y-121662143D01*
X122658095Y-121566905D01*
X122610476Y-121376429D01*
X122610476Y-121138333D01*
X122658095Y-120947857D01*
X122705714Y-120852619D01*
X122753333Y-120805000D01*
X122848571Y-120757381D01*
X143565714Y-106477381D02*
X143565714Y-105477381D01*
X143803809Y-105477381D01*
X143946667Y-105525000D01*
X144041905Y-105620238D01*
X144089524Y-105715476D01*
X144137143Y-105905952D01*
X144137143Y-106048810D01*
X144089524Y-106239286D01*
X144041905Y-106334524D01*
X143946667Y-106429762D01*
X143803809Y-106477381D01*
X143565714Y-106477381D01*
X145089524Y-106477381D02*
X144518095Y-106477381D01*
X144803809Y-106477381D02*
X144803809Y-105477381D01*
X144708571Y-105620238D01*
X144613333Y-105715476D01*
X144518095Y-105763095D01*
X146041905Y-106477381D02*
X145470476Y-106477381D01*
X145756190Y-106477381D02*
X145756190Y-105477381D01*
X145660952Y-105620238D01*
X145565714Y-105715476D01*
X145470476Y-105763095D01*
X143565714Y-109017381D02*
X143565714Y-108017381D01*
X143803809Y-108017381D01*
X143946667Y-108065000D01*
X144041905Y-108160238D01*
X144089524Y-108255476D01*
X144137143Y-108445952D01*
X144137143Y-108588810D01*
X144089524Y-108779286D01*
X144041905Y-108874524D01*
X143946667Y-108969762D01*
X143803809Y-109017381D01*
X143565714Y-109017381D01*
X145089524Y-109017381D02*
X144518095Y-109017381D01*
X144803809Y-109017381D02*
X144803809Y-108017381D01*
X144708571Y-108160238D01*
X144613333Y-108255476D01*
X144518095Y-108303095D01*
X145470476Y-108112619D02*
X145518095Y-108065000D01*
X145613333Y-108017381D01*
X145851429Y-108017381D01*
X145946667Y-108065000D01*
X145994286Y-108112619D01*
X146041905Y-108207857D01*
X146041905Y-108303095D01*
X145994286Y-108445952D01*
X145422857Y-109017381D01*
X146041905Y-109017381D01*
X143565714Y-111557381D02*
X143565714Y-110557381D01*
X143803809Y-110557381D01*
X143946667Y-110605000D01*
X144041905Y-110700238D01*
X144089524Y-110795476D01*
X144137143Y-110985952D01*
X144137143Y-111128810D01*
X144089524Y-111319286D01*
X144041905Y-111414524D01*
X143946667Y-111509762D01*
X143803809Y-111557381D01*
X143565714Y-111557381D01*
X145089524Y-111557381D02*
X144518095Y-111557381D01*
X144803809Y-111557381D02*
X144803809Y-110557381D01*
X144708571Y-110700238D01*
X144613333Y-110795476D01*
X144518095Y-110843095D01*
X145422857Y-110557381D02*
X146041905Y-110557381D01*
X145708571Y-110938333D01*
X145851429Y-110938333D01*
X145946667Y-110985952D01*
X145994286Y-111033571D01*
X146041905Y-111128810D01*
X146041905Y-111366905D01*
X145994286Y-111462143D01*
X145946667Y-111509762D01*
X145851429Y-111557381D01*
X145565714Y-111557381D01*
X145470476Y-111509762D01*
X145422857Y-111462143D01*
X143565714Y-114097381D02*
X143565714Y-113097381D01*
X143803809Y-113097381D01*
X143946667Y-113145000D01*
X144041905Y-113240238D01*
X144089524Y-113335476D01*
X144137143Y-113525952D01*
X144137143Y-113668810D01*
X144089524Y-113859286D01*
X144041905Y-113954524D01*
X143946667Y-114049762D01*
X143803809Y-114097381D01*
X143565714Y-114097381D01*
X145089524Y-114097381D02*
X144518095Y-114097381D01*
X144803809Y-114097381D02*
X144803809Y-113097381D01*
X144708571Y-113240238D01*
X144613333Y-113335476D01*
X144518095Y-113383095D01*
X145946667Y-113430714D02*
X145946667Y-114097381D01*
X145708571Y-113049762D02*
X145470476Y-113764048D01*
X146089524Y-113764048D01*
X143565714Y-116637381D02*
X143565714Y-115637381D01*
X143803809Y-115637381D01*
X143946667Y-115685000D01*
X144041905Y-115780238D01*
X144089524Y-115875476D01*
X144137143Y-116065952D01*
X144137143Y-116208810D01*
X144089524Y-116399286D01*
X144041905Y-116494524D01*
X143946667Y-116589762D01*
X143803809Y-116637381D01*
X143565714Y-116637381D01*
X145089524Y-116637381D02*
X144518095Y-116637381D01*
X144803809Y-116637381D02*
X144803809Y-115637381D01*
X144708571Y-115780238D01*
X144613333Y-115875476D01*
X144518095Y-115923095D01*
X145994286Y-115637381D02*
X145518095Y-115637381D01*
X145470476Y-116113571D01*
X145518095Y-116065952D01*
X145613333Y-116018333D01*
X145851429Y-116018333D01*
X145946667Y-116065952D01*
X145994286Y-116113571D01*
X146041905Y-116208810D01*
X146041905Y-116446905D01*
X145994286Y-116542143D01*
X145946667Y-116589762D01*
X145851429Y-116637381D01*
X145613333Y-116637381D01*
X145518095Y-116589762D01*
X145470476Y-116542143D01*
X143565714Y-119177381D02*
X143565714Y-118177381D01*
X143803809Y-118177381D01*
X143946667Y-118225000D01*
X144041905Y-118320238D01*
X144089524Y-118415476D01*
X144137143Y-118605952D01*
X144137143Y-118748810D01*
X144089524Y-118939286D01*
X144041905Y-119034524D01*
X143946667Y-119129762D01*
X143803809Y-119177381D01*
X143565714Y-119177381D01*
X145089524Y-119177381D02*
X144518095Y-119177381D01*
X144803809Y-119177381D02*
X144803809Y-118177381D01*
X144708571Y-118320238D01*
X144613333Y-118415476D01*
X144518095Y-118463095D01*
X145946667Y-118177381D02*
X145756190Y-118177381D01*
X145660952Y-118225000D01*
X145613333Y-118272619D01*
X145518095Y-118415476D01*
X145470476Y-118605952D01*
X145470476Y-118986905D01*
X145518095Y-119082143D01*
X145565714Y-119129762D01*
X145660952Y-119177381D01*
X145851429Y-119177381D01*
X145946667Y-119129762D01*
X145994286Y-119082143D01*
X146041905Y-118986905D01*
X146041905Y-118748810D01*
X145994286Y-118653571D01*
X145946667Y-118605952D01*
X145851429Y-118558333D01*
X145660952Y-118558333D01*
X145565714Y-118605952D01*
X145518095Y-118653571D01*
X145470476Y-118748810D01*
X143565714Y-121717381D02*
X143565714Y-120717381D01*
X143803809Y-120717381D01*
X143946667Y-120765000D01*
X144041905Y-120860238D01*
X144089524Y-120955476D01*
X144137143Y-121145952D01*
X144137143Y-121288810D01*
X144089524Y-121479286D01*
X144041905Y-121574524D01*
X143946667Y-121669762D01*
X143803809Y-121717381D01*
X143565714Y-121717381D01*
X145089524Y-121717381D02*
X144518095Y-121717381D01*
X144803809Y-121717381D02*
X144803809Y-120717381D01*
X144708571Y-120860238D01*
X144613333Y-120955476D01*
X144518095Y-121003095D01*
X145422857Y-120717381D02*
X146089524Y-120717381D01*
X145660952Y-121717381D01*
X143565714Y-124257381D02*
X143565714Y-123257381D01*
X143803809Y-123257381D01*
X143946667Y-123305000D01*
X144041905Y-123400238D01*
X144089524Y-123495476D01*
X144137143Y-123685952D01*
X144137143Y-123828810D01*
X144089524Y-124019286D01*
X144041905Y-124114524D01*
X143946667Y-124209762D01*
X143803809Y-124257381D01*
X143565714Y-124257381D01*
X145089524Y-124257381D02*
X144518095Y-124257381D01*
X144803809Y-124257381D02*
X144803809Y-123257381D01*
X144708571Y-123400238D01*
X144613333Y-123495476D01*
X144518095Y-123543095D01*
X145660952Y-123685952D02*
X145565714Y-123638333D01*
X145518095Y-123590714D01*
X145470476Y-123495476D01*
X145470476Y-123447857D01*
X145518095Y-123352619D01*
X145565714Y-123305000D01*
X145660952Y-123257381D01*
X145851429Y-123257381D01*
X145946667Y-123305000D01*
X145994286Y-123352619D01*
X146041905Y-123447857D01*
X146041905Y-123495476D01*
X145994286Y-123590714D01*
X145946667Y-123638333D01*
X145851429Y-123685952D01*
X145660952Y-123685952D01*
X145565714Y-123733571D01*
X145518095Y-123781190D01*
X145470476Y-123876429D01*
X145470476Y-124066905D01*
X145518095Y-124162143D01*
X145565714Y-124209762D01*
X145660952Y-124257381D01*
X145851429Y-124257381D01*
X145946667Y-124209762D01*
X145994286Y-124162143D01*
X146041905Y-124066905D01*
X146041905Y-123876429D01*
X145994286Y-123781190D01*
X145946667Y-123733571D01*
X145851429Y-123685952D01*
X107252381Y-82833333D02*
X107966667Y-82833333D01*
X108109524Y-82880953D01*
X108204762Y-82976191D01*
X108252381Y-83119048D01*
X108252381Y-83214286D01*
X107252381Y-81880952D02*
X107252381Y-82357143D01*
X107728571Y-82404762D01*
X107680952Y-82357143D01*
X107633333Y-82261905D01*
X107633333Y-82023809D01*
X107680952Y-81928571D01*
X107728571Y-81880952D01*
X107823810Y-81833333D01*
X108061905Y-81833333D01*
X108157143Y-81880952D01*
X108204762Y-81928571D01*
X108252381Y-82023809D01*
X108252381Y-82261905D01*
X108204762Y-82357143D01*
X108157143Y-82404762D01*
X136857143Y-129442857D02*
X136904762Y-129490476D01*
X136952381Y-129633333D01*
X136952381Y-129728571D01*
X136904762Y-129871429D01*
X136809524Y-129966667D01*
X136714286Y-130014286D01*
X136523810Y-130061905D01*
X136380952Y-130061905D01*
X136190476Y-130014286D01*
X136095238Y-129966667D01*
X136000000Y-129871429D01*
X135952381Y-129728571D01*
X135952381Y-129633333D01*
X136000000Y-129490476D01*
X136047619Y-129442857D01*
X135952381Y-129109524D02*
X135952381Y-128490476D01*
X136333333Y-128823810D01*
X136333333Y-128680952D01*
X136380952Y-128585714D01*
X136428571Y-128538095D01*
X136523810Y-128490476D01*
X136761905Y-128490476D01*
X136857143Y-128538095D01*
X136904762Y-128585714D01*
X136952381Y-128680952D01*
X136952381Y-128966667D01*
X136904762Y-129061905D01*
X136857143Y-129109524D01*
X135952381Y-127871429D02*
X135952381Y-127776190D01*
X136000000Y-127680952D01*
X136047619Y-127633333D01*
X136142857Y-127585714D01*
X136333333Y-127538095D01*
X136571429Y-127538095D01*
X136761905Y-127585714D01*
X136857143Y-127633333D01*
X136904762Y-127680952D01*
X136952381Y-127776190D01*
X136952381Y-127871429D01*
X136904762Y-127966667D01*
X136857143Y-128014286D01*
X136761905Y-128061905D01*
X136571429Y-128109524D01*
X136333333Y-128109524D01*
X136142857Y-128061905D01*
X136047619Y-128014286D01*
X136000000Y-127966667D01*
X135952381Y-127871429D01*
X130757143Y-129442857D02*
X130804762Y-129490476D01*
X130852381Y-129633333D01*
X130852381Y-129728571D01*
X130804762Y-129871429D01*
X130709524Y-129966667D01*
X130614286Y-130014286D01*
X130423810Y-130061905D01*
X130280952Y-130061905D01*
X130090476Y-130014286D01*
X129995238Y-129966667D01*
X129900000Y-129871429D01*
X129852381Y-129728571D01*
X129852381Y-129633333D01*
X129900000Y-129490476D01*
X129947619Y-129442857D01*
X129852381Y-129109524D02*
X129852381Y-128490476D01*
X130233333Y-128823810D01*
X130233333Y-128680952D01*
X130280952Y-128585714D01*
X130328571Y-128538095D01*
X130423810Y-128490476D01*
X130661905Y-128490476D01*
X130757143Y-128538095D01*
X130804762Y-128585714D01*
X130852381Y-128680952D01*
X130852381Y-128966667D01*
X130804762Y-129061905D01*
X130757143Y-129109524D01*
X130852381Y-127538095D02*
X130852381Y-128109524D01*
X130852381Y-127823810D02*
X129852381Y-127823810D01*
X129995238Y-127919048D01*
X130090476Y-128014286D01*
X130138095Y-128109524D01*
X105932233Y-89358630D02*
X105864890Y-89358630D01*
X105730203Y-89291286D01*
X105662859Y-89223943D01*
X105595515Y-89089255D01*
X105595515Y-88954568D01*
X105629187Y-88853553D01*
X105730202Y-88685195D01*
X105831218Y-88584179D01*
X105999577Y-88483164D01*
X106100592Y-88449492D01*
X106235279Y-88449492D01*
X106369966Y-88516836D01*
X106437310Y-88584179D01*
X106504653Y-88718866D01*
X106504653Y-88786210D01*
X106807699Y-88954568D02*
X107245432Y-89392301D01*
X106740355Y-89425972D01*
X106841371Y-89526988D01*
X106875043Y-89628003D01*
X106875043Y-89695347D01*
X106841370Y-89796363D01*
X106673012Y-89964721D01*
X106571997Y-89998393D01*
X106504653Y-89998393D01*
X106403638Y-89964721D01*
X106201607Y-89762690D01*
X106167935Y-89661675D01*
X106167935Y-89594332D01*
X107447462Y-89729019D02*
X107514805Y-89729019D01*
X107615821Y-89762690D01*
X107784180Y-89931050D01*
X107817852Y-90032065D01*
X107817852Y-90099408D01*
X107784180Y-90200423D01*
X107716836Y-90267767D01*
X107582150Y-90335110D01*
X106774027Y-90335110D01*
X107211760Y-90772843D01*
X156157143Y-73102381D02*
X155823809Y-72626190D01*
X155585714Y-73102381D02*
X155585714Y-72102381D01*
X155966667Y-72102381D01*
X156061905Y-72150000D01*
X156109524Y-72197619D01*
X156157143Y-72292857D01*
X156157143Y-72435714D01*
X156109524Y-72530952D01*
X156061905Y-72578571D01*
X155966667Y-72626190D01*
X155585714Y-72626190D01*
X157014286Y-72435714D02*
X157014286Y-73102381D01*
X156776190Y-72054762D02*
X156538095Y-72769048D01*
X157157143Y-72769048D01*
X157490476Y-72197619D02*
X157538095Y-72150000D01*
X157633333Y-72102381D01*
X157871429Y-72102381D01*
X157966667Y-72150000D01*
X158014286Y-72197619D01*
X158061905Y-72292857D01*
X158061905Y-72388095D01*
X158014286Y-72530952D01*
X157442857Y-73102381D01*
X158061905Y-73102381D01*
M02*
